<?xml version="1.0" encoding="UTF-8" standalone="no"?>
<!-- Created with Inkscape (http://www.inkscape.org/) -->

<svg
   xmlns:dc="http://purl.org/dc/elements/1.1/"
   xmlns:cc="http://creativecommons.org/ns#"
   xmlns:rdf="http://www.w3.org/1999/02/22-rdf-syntax-ns#"
   xmlns:svg="http://www.w3.org/2000/svg"
   xmlns="http://www.w3.org/2000/svg"
   xmlns:sodipodi="http://sodipodi.sourceforge.net/DTD/sodipodi-0.dtd"
   xmlns:inkscape="http://www.inkscape.org/namespaces/inkscape"
   width="744.09003"
   height="772"
   id="svg2"
   version="1.1"
   inkscape:version="0.47pre4 r22446"
   sodipodi:docname="basic-rules.svg">
  <defs
     id="defs4">
    <inkscape:perspective
       sodipodi:type="inkscape:persp3d"
       inkscape:vp_x="0 : 526.18109 : 1"
       inkscape:vp_y="0 : 1000 : 0"
       inkscape:vp_z="744.09448 : 526.18109 : 1"
       inkscape:persp3d-origin="372.04724 : 350.78739 : 1"
       id="perspective10" />
  </defs>
  <sodipodi:namedview
     id="base"
     pagecolor="#ffffff"
     bordercolor="#666666"
     borderopacity="1.0"
     inkscape:pageopacity="0.0"
     inkscape:pageshadow="2"
     inkscape:zoom="0.5227862"
     inkscape:cx="372.04501"
     inkscape:cy="386"
     inkscape:document-units="px"
     inkscape:current-layer="layer1"
     showgrid="false"
     inkscape:window-width="949"
     inkscape:window-height="706"
     inkscape:window-x="0"
     inkscape:window-y="48"
     inkscape:window-maximized="0" />
  <metadata
     id="metadata7">
    <rdf:RDF>
      <cc:Work
         rdf:about="">
        <dc:format>image/svg+xml</dc:format>
        <dc:type
           rdf:resource="http://purl.org/dc/dcmitype/StillImage" />
        <dc:title></dc:title>
      </cc:Work>
    </rdf:RDF>
  </metadata>
  <g
     inkscape:label="Layer 1"
     inkscape:groupmode="layer"
     id="layer1"
     transform="translate(0,-280.36218)">
    <g
       style="font-size:880.18963623px;font-style:normal;font-weight:normal;fill:#000000;fill-opacity:1;stroke:none;font-family:Bitstream Vera Sans"
       id="text2816"
       transform="matrix(1.547365,0,0,1.547365,-43.40039,-173.65348)">
      <path
         d="m 388.44042,345.2104 c 5.13152,4e-4 10.08645,2.65482 14.86478,7.96328 3.53886,3.89355 6.01632,10.97201 7.43241,21.23542 4.60061,-0.17659 7.78592,0.17733 9.55593,1.06177 5.66238,2.12391 9.7325,4.42441 12.21036,6.90151 2.47706,2.30087 3.71579,5.30921 3.7162,9.02505 -4.1e-4,7.07882 -1.4161,12.03375 -4.24708,14.86479 -42.64816,38.75494 -84.76503,85.82674 -126.35073,141.21553 26.19004,36.10037 52.38036,68.48435 78.57104,97.15203 3.00799,3.18542 4.51216,6.90161 4.51253,11.1486 -3.7e-4,8.67121 -2.65479,15.30727 -7.96329,19.90821 -3.53958,3.00841 -8.58299,4.68954 -15.13023,5.04341 -0.35426,3.00841 -1.76996,7.60941 -4.24708,13.80301 -4.24742,10.26383 -9.20234,15.39572 -14.8648,15.39568 -6.37094,4e-5 -12.21067,-2.1235 -17.51921,-6.37062 -1.416,3.18535 -3.36258,5.7513 -5.83975,7.69784 -6.37091,4.778 -11.9452,7.16698 -16.72288,7.16695 -4.0704,3e-5 -8.40597,-2.47743 -13.0067,-7.43239 -15.74985,-16.81132 -34.33083,-42.11684 -55.74297,-75.91662 -40.70139,46.18709 -68.83829,81.2255 -84.41079,105.11531 -3.00847,4.60101 -6.37074,6.90151 -10.08682,6.90151 l -0.53088,0 c -3.18543,0 -6.28226,-3.18531 -9.2905,-9.55593 -2.65453,-5.48581 -4.1587,-9.37896 -4.51253,-11.67949 -3.53933,2.12356 -6.9016,3.18533 -10.08682,3.18532 -4.42413,10e-6 -9.2021,-2.65441 -14.33391,-7.96328 -6.37069,-6.19364 -9.556001,-10.79463 -9.555933,-13.80302 -6.8e-5,-4.77793 2.654358,-11.14854 7.963283,-19.11188 -1.59273,-0.53082 -3.18539,-1.94652 -4.777972,-4.24708 -3.185379,-4.24702 -4.778034,-8.4941 -4.777967,-12.74126 -6.7e-5,-3.71611 2.123473,-8.31711 6.370623,-13.80301 23.004946,-31.14517 51.849686,-65.47572 86.534326,-102.99178 -21.58948,-33.44555 -41.14374,-73.79281 -58.66284,-121.04188 -3.89326,-10.79435 -5.83983,-18.66914 -5.83974,-23.6244 -9e-5,-4.60067 2.03496,-11.23673 6.10518,-19.90821 2.83129,-5.66241 6.19356,-8.4938 10.08683,-8.49416 4.60089,3.6e-4 11.14847,3.45112 19.64276,10.35226 0.17683,-2.47711 1.2386,-5.92785 3.18531,-10.35226 4.06998,-8.84772 7.60922,-13.27176 10.61771,-13.27214 7.6092,3.8e-4 12.56413,2.30088 14.86479,6.90151 18.75777,34.68486 41.40886,68.48453 67.95334,101.39912 40.87791,-46.7176 83.3487,-89.36536 127.4125,-127.94339 2.12319,-2.12314 4.42369,-3.18491 6.90152,-3.18531"
         id="path2842" />
    </g>
  </g>
</svg>
