<?xml version="1.0" encoding="UTF-8" standalone="no"?>
<!-- Created with Inkscape (http://www.inkscape.org/) -->

<svg
   xmlns:dc="http://purl.org/dc/elements/1.1/"
   xmlns:cc="http://creativecommons.org/ns#"
   xmlns:rdf="http://www.w3.org/1999/02/22-rdf-syntax-ns#"
   xmlns:svg="http://www.w3.org/2000/svg"
   xmlns="http://www.w3.org/2000/svg"
   xmlns:sodipodi="http://sodipodi.sourceforge.net/DTD/sodipodi-0.dtd"
   xmlns:inkscape="http://www.inkscape.org/namespaces/inkscape"
   width="100"
   height="100"
   id="svg2"
   version="1.1"
   inkscape:version="0.47pre4 r22446"
   sodipodi:docname="keeper.svg">
  <defs
     id="defs4">
    <inkscape:perspective
       sodipodi:type="inkscape:persp3d"
       inkscape:vp_x="0 : 526.18109 : 1"
       inkscape:vp_y="0 : 1000 : 0"
       inkscape:vp_z="744.09448 : 526.18109 : 1"
       inkscape:persp3d-origin="372.04724 : 350.78739 : 1"
       id="perspective10" />
  </defs>
  <sodipodi:namedview
     id="base"
     pagecolor="#ffffff"
     bordercolor="#666666"
     borderopacity="1.0"
     inkscape:pageopacity="0.0"
     inkscape:pageshadow="2"
     inkscape:zoom="5.23"
     inkscape:cx="50"
     inkscape:cy="51.225828"
     inkscape:document-units="px"
     inkscape:current-layer="layer1"
     showgrid="false"
     inkscape:window-width="1383"
     inkscape:window-height="782"
     inkscape:window-x="211"
     inkscape:window-y="58"
     inkscape:window-maximized="0" />
  <metadata
     id="metadata7">
    <rdf:RDF>
      <cc:Work
         rdf:about="">
        <dc:format>image/svg+xml</dc:format>
        <dc:type
           rdf:resource="http://purl.org/dc/dcmitype/StillImage" />
        <dc:title />
      </cc:Work>
    </rdf:RDF>
  </metadata>
  <g
     inkscape:label="Layer 1"
     inkscape:groupmode="layer"
     id="layer1"
     transform="translate(0,-952.36218)">
    <g
       style="font-size:156.00296021px;font-style:normal;font-weight:normal;fill:#000000;fill-opacity:1;stroke:none;font-family:Bitstream Vera Sans"
       id="text2816"
       transform="matrix(0.76315752,0,0,0.76315752,13.018844,236.42157)">
      <path
         d="m 19.754156,998.2137 c 1.98047,6e-5 3.478543,1.62509 4.494226,4.8751 2.031247,6.0939 3.478539,9.1408 4.341879,9.1408 0.660125,0 1.345684,-0.5078 2.05668,-1.5235 14.269742,-20.97296 27.473104,-35.90292 39.610126,-44.78989 5.128914,-3.75779 10.130957,-5.63673 15.006144,-5.63683 6.449235,1e-4 10.33407,0.20323 11.654518,0.60939 0.558492,0.15244 0.837794,0.78722 0.837907,1.90433 -1.13e-4,0.91418 -0.584108,2.05678 -1.751987,3.4278 -32.653041,37.4773 -52.102609,61.8528 -58.348763,73.1264 -2.132903,3.8595 -7.058773,5.7892 -14.777624,5.7892 -2.539146,0 -5.205209,-0.6602 -7.998199,-1.9805 -1.168019,-0.6094 -3.199306,-4.4943 -6.0938654,-11.6546 -3.6563393,-9.0392 -5.4844972,-16.9612 -5.4844791,-23.766 -1.81e-5,-2.4883 1.7773576,-4.545 5.3321324,-6.1701 4.8750641,-2.23434 8.5313801,-3.35154 10.9689581,-3.3516 l 0.152347,0"
         id="path2821" />
    </g>
  </g>
</svg>
