<?xml version="1.0" encoding="UTF-8" standalone="no"?>
<!-- Created with Inkscape (http://www.inkscape.org/) -->

<svg
   xmlns:dc="http://purl.org/dc/elements/1.1/"
   xmlns:cc="http://creativecommons.org/ns#"
   xmlns:rdf="http://www.w3.org/1999/02/22-rdf-syntax-ns#"
   xmlns:svg="http://www.w3.org/2000/svg"
   xmlns="http://www.w3.org/2000/svg"
   xmlns:sodipodi="http://sodipodi.sourceforge.net/DTD/sodipodi-0.dtd"
   xmlns:inkscape="http://www.inkscape.org/namespaces/inkscape"
   id="svg1247"
   sodipodi:version="0.32"
   inkscape:version="0.47pre4 r22446"
   width="120pt"
   height="120pt"
   sodipodi:docname="milk.svg"
   version="1.1"
   style="display:inline">
  <metadata
     id="metadata30" />
  <defs
     id="defs1249">
    <inkscape:perspective
       sodipodi:type="inkscape:persp3d"
       inkscape:vp_x="0 : 75 : 1"
       inkscape:vp_y="0 : 1000 : 0"
       inkscape:vp_z="150 : 75 : 1"
       inkscape:persp3d-origin="75 : 50 : 1"
       id="perspective34" />
    <inkscape:perspective
       id="perspective2917"
       inkscape:persp3d-origin="0.5 : 0.33333333 : 1"
       inkscape:vp_z="1 : 0.5 : 1"
       inkscape:vp_y="0 : 1000 : 0"
       inkscape:vp_x="0 : 0.5 : 1"
       sodipodi:type="inkscape:persp3d" />
    <inkscape:perspective
       id="perspective3711"
       inkscape:persp3d-origin="0.5 : 0.33333333 : 1"
       inkscape:vp_z="1 : 0.5 : 1"
       inkscape:vp_y="0 : 1000 : 0"
       inkscape:vp_x="0 : 0.5 : 1"
       sodipodi:type="inkscape:persp3d" />
    <inkscape:perspective
       id="perspective3761"
       inkscape:persp3d-origin="0.5 : 0.33333333 : 1"
       inkscape:vp_z="1 : 0.5 : 1"
       inkscape:vp_y="0 : 1000 : 0"
       inkscape:vp_x="0 : 0.5 : 1"
       sodipodi:type="inkscape:persp3d" />
  </defs>
  <sodipodi:namedview
     id="base"
     pagecolor="#ffffff"
     bordercolor="#666666"
     borderopacity="1.0"
     inkscape:pageopacity="0.0"
     inkscape:pageshadow="2"
     inkscape:zoom="2.9666667"
     inkscape:cx="75"
     inkscape:cy="75"
     inkscape:window-width="1004"
     inkscape:window-height="704"
     inkscape:window-x="327"
     inkscape:window-y="76"
     showgrid="false"
     inkscape:window-maximized="0"
     inkscape:current-layer="layer1" />
  <metadata
     id="metadata32">
    <rdf:RDF>
      <cc:Work
         rdf:about="">
        <dc:title>Clipart by Nicu Buculei - baloon1_04</dc:title>
        <dc:rights>
          <cc:Agent>
            <dc:title>Nicu Buculei</dc:title>
          </cc:Agent>
        </dc:rights>
        <dc:type
           rdf:resource="http://purl.org/dc/dcmitype/StillImage" />
        <cc:license
           rdf:resource="http://web.resource.org/cc/PublicDomain" />
        <dc:format>image/svg+xml</dc:format>
      </cc:Work>
      <cc:License
         rdf:about="http://web.resource.org/cc/PublicDomain">
        <cc:permits
           rdf:resource="http://web.resource.org/cc/Reproduction" />
        <cc:permits
           rdf:resource="http://web.resource.org/cc/Distribution" />
        <cc:permits
           rdf:resource="http://web.resource.org/cc/DerivativeWorks" />
      </cc:License>
    </rdf:RDF>
  </metadata>
  <g
     inkscape:groupmode="layer"
     id="layer2"
     inkscape:label="bottom"
     style="display:inline">
    <path
       sodipodi:nodetypes="ccccc"
       id="path1255"
       d="m 91.903859,78.110495 c 0,2.93996 -9.85741,5.7082 -25.5946,5.7082 -15.7372,0 -24.56585,-2.57715 -24.56585,-5.51711 0,-2.93996 8.82865,-5.13492 24.56585,-5.13492 15.73719,0 25.5946,2.00387 25.5946,4.94383 z"
       style="fill:#ffffff;fill-opacity:0.5;fill-rule:evenodd;stroke:none;display:inline" />
    <path
       id="path1253"
       d="m 88.322989,137.41259 c 0,3.88043 -9.0202,7.02976 -20.13438,7.02976 -11.11418,0 -20.13438,-3.14933 -20.13438,-7.02976 0,-3.88043 9.0202,-7.02976 20.13438,-7.02976 11.11418,0 20.13438,3.14933 20.13438,7.02976 z"
       style="fill:#7573ae;fill-opacity:0.14901961;fill-rule:evenodd;stroke:#000000;stroke-width:2.5;stroke-linejoin:round;stroke-dasharray:none;display:inline" />
    <path
       id="path1252"
       d="m 94.608319,48.245855 c 0,4.31594 -12.77222,7.81872 -28.50942,7.81872 -15.73719,0 -28.50941,-3.50278 -28.50941,-7.81872 0,-4.31594 12.77222,-7.81873 28.50941,-7.81873 15.7372,0 28.50942,3.50279 28.50942,7.81873 z"
       style="fill:#7573ae;fill-opacity:0.15;fill-rule:evenodd;stroke:#000000;stroke-width:2.5;stroke-linejoin:round;stroke-dasharray:none;display:inline" />
    <path
       sodipodi:nodetypes="ccccccccc"
       id="path1258"
       d="m 81.913119,134.06684 10.3125,-100.624995 c -0.3125,-1.875 0.9375,-4.0625 3.125,-4.0625 2.1875,0 47.184591,-9.726791 48.842401,-9.726791 1.89465,-0.947323 0.58571,-4.147993 -1.57232,-4.289508 -3.57902,-0.615177 -48.520081,8.391299 -51.020081,9.016299 -2.5,0.625 -4.6875,2.1875 -5.625,7.1875 1.25,5.3125 -9.0625,101.562495 -9.0625,101.562495 0,0 0.625,4.6875 5,0.9375 z"
       style="fill:#ffffff;fill-opacity:1;fill-rule:evenodd;stroke:#000000;stroke-width:2.5;stroke-linecap:butt;stroke-linejoin:round;stroke-opacity:1;stroke-dasharray:none;display:inline" />
    <path
       sodipodi:nodetypes="ccccccc"
       id="path1257"
       d="m 41.06925,77.25768 6.67637,60.04597 c 3.21334,3.15076 8.09855,4.95051 20.63671,5.4527 8.35879,-0.67992 12.96377,-0.79992 18.80726,-5.4527 0.59706,-0.90656 4.16719,-59.88025 4.16719,-59.88025 -2.0897,2.71967 -10.60163,4.85589 -24.63244,5.08252 -13.60522,0.1911 -25.65509,-2.52857 -25.65509,-5.24824 z"
       style="fill:#ffffff;fill-opacity:0.6142857;fill-rule:evenodd;stroke:none;display:inline" />
    <path
       sodipodi:nodetypes="ccccc"
       id="path1273"
       d="m 39.725619,52.716999 c 0.82469,0.206173 14.18827,5.418826 18.01867,4.075461 1.5625,-0.3125 4.36204,83.19892 3.96266,85.79228 -4.31668,0.11929 -8.78889,-1.3628 -12.29383,-4.4554 l -9.6875,-85.412341 z"
       style="fill:#ffffff;fill-opacity:0.5;fill-rule:evenodd;stroke:none;display:inline" />
    <path
       style="fill:#ffffff;fill-opacity:0.61428570000000005;fill-rule:evenodd;stroke:#000000;display:inline;stroke-opacity:1"
       d="m 91.35678,77.4234 c -2.0897,2.71967 -10.60163,4.85589 -24.63244,5.08252 -13.60522,0.1911 -25.65509,-2.52857 -25.65509,-5.24824 m 50.28753,0.16572"
       id="path3775"
       sodipodi:nodetypes="cccc" />
  </g>
  <g
     inkscape:groupmode="layer"
     id="layer1"
     inkscape:label="front"
     style="display:inline">
    <path
       sodipodi:nodetypes="ccccccc"
       id="path1254"
       d="m 37.551,47.927648 10.44848,89.832172 c 0.29853,2.66169 8.95584,6.98694 21.49401,6.32152 8.35878,-0.99814 13.13523,-0.33272 18.80726,-6.32152 0.59705,-1.33085 6.05323,-89.308362 6.05323,-89.308362 -2.08969,3.99254 -13.51643,7.12856 -27.54724,7.46127 -13.43376,0 -29.25574,-3.99254 -29.25574,-7.98508 z"
       style="fill:#ffffff;fill-opacity:0.07142855;fill-rule:evenodd;stroke:#000000;stroke-width:2.5;stroke-linejoin:round;stroke-dasharray:none" />
  </g>
</svg>
