<?xml version="1.0" encoding="utf-8"?>
<!-- Generator: Adobe Illustrator 12.0.1, SVG Export Plug-In . SVG Version: 6.00 Build 51448)  -->
<!DOCTYPE svg PUBLIC "-//W3C//DTD SVG 1.1//EN" "http://www.w3.org/Graphics/SVG/1.1/DTD/svg11.dtd" [
	<!ENTITY ns_svg "http://www.w3.org/2000/svg">
	<!ENTITY ns_xlink "http://www.w3.org/1999/xlink">
]>
<svg  version="1.1" id="Layer_1" xmlns="&ns_svg;" xmlns:xlink="&ns_xlink;" width="244.371" height="309.234"
	 viewBox="0 0 244.371 309.234" overflow="visible" enable-background="new 0 0 244.371 309.234" xml:space="preserve">
<g>
	<path fill-rule="evenodd" clip-rule="evenodd" fill="#FFFFFF" d="M74.402,8.889c-0.481,2.732-3.364,2.984-3.801,5.762
		c1.335,2.737,3.959-0.376,6.352,0.104c0.702-3.581,2.061-6.485,3.854-8.938c3.165,0.834,4.97-1.75,7.976-1.986
		c4.833-0.378,9.194,2.661,13.191,2.865c1.842,3.633,5.288,3.984,9.459,4.392c0.314,2.648,3.097,2.908,4.695,4.314
		c9.521-7.202,23.521-6.263,29.575,4.724c2.219-0.41,2.482,1.07,4.217,1.128c1.988,8.286,15.497,10.516,10.222,22.408
		c0.29,3.54,4.744,3.05,7.341,4.357c2.643,4.412,4.186,15.35-2.388,16.376c0.581-2.473-0.821-3.025-1.519-4.261
		c-19.655-5.743-45.473-5.946-62.874-8.451c-1.438,1.386-3.389,2.24-5.867,2.551c-2.266,4.299-3.582,9.58-10.216,9.363
		c-2.917,8.459-14.571,9.43-18.554,1.283c0.427-3.539-0.087-6.167-1.995-7.446c-5.381,1.84-8.464,5.917-14.372,4.528
		c-2.569-2.376-5.564-4.34-7.827-7.012c-1.705,0.391-3.802,0.377-3.229,3.124c-9.064,1.104-14.376,1.441-21.792,4.936
		c-5.033,7.767,1.208,15.535-0.913,23.284c-1.147-1.321-2.881-2.075-3.645-3.766c-4.211,0.134-1.632,7.286-5.425,7.854
		c7.253-14.848-9.689-33.501,4.439-44.407C11.128,36.277,19.579,35.5,28.43,35.136c-0.138,2.043-0.083,3.901,0.442,5.303
		c4.199-0.974,2.921-6.923,4.93-9.98c1.313-1.998,3.511-2.1,4.305-4.165c3.1-0.386,4.963-2.05,7.464-3.054
		c0.717-4.724-4.837-1.957-6.856-1.702c-3.126-3.801,1.818-5.61,4.87-6.273C47.938,5.316,63.369,0.23,73.378,6.754
		C73.21,7.958,73.473,8.746,74.402,8.889z"/>
	<path fill-rule="evenodd" clip-rule="evenodd" fill="#E5B53A" d="M119.116,58.872c0.53,0.009,1.059,0.018,1.588,0.026
		c0.897,2.938,3.138,11.253-1.251,11.629C118.422,66.509,117.708,62.687,119.116,58.872z"/>
	<path fill-rule="evenodd" clip-rule="evenodd" fill="#E5B53A" d="M131.795,60.67c0.529,0.008,1.059,0.017,1.588,0.026
		c1.49,4.714-0.474,12.249,0.242,17.478c0.427,3.122,1.529,3.417-0.113,6.882C129.112,80.629,132.743,68.435,131.795,60.67z"/>
	<path fill-rule="evenodd" clip-rule="evenodd" fill="#E5B53A" d="M153.421,65.792c2.056,6.615-0.178,14.778,0.692,22.251
		c-3.437-3.22-0.033-10.151-2.42-13.808C153.252,72.078,151.746,68.579,153.421,65.792z"/>
	<path fill-rule="evenodd" clip-rule="evenodd" fill="#FFFFFF" d="M232.107,142.811c-2.692-2.453,0.372-6.747,1.729-8.444
		c2.241-9.413,2.691-19.489,1.027-30.165c-1.824-11.696-11.298-23.303-20.175-28.928c-4.242-0.235-7.5-1.425-10.006-3.342
		c-6.006-0.223-9.626-1.646-14.293-0.235c-8.337,2.52-11.191,11.895-18.78,15.045c0.17-3.412,2.222-4.881,2.257-8.435
		c7.396-6.308,16.605-13.896,29.846-11.687c10.27,1.713,18.773,8.159,25.739,12.604c-0.746,3.326,1.846,3.422,3.098,4.817
		c2.277,6.332,3.908,13.363,4.952,20.732c0.625,4.409,1.1,8.895,2.446,12.219c-1.33,5.838-2.332,14.774-2.97,19.543
		C235.444,138.722,234.55,141.566,232.107,142.811z"/>
	<path fill-rule="evenodd" clip-rule="evenodd" fill="#E5B53A" d="M157.1,67.441c1.917-0.475,0.902,2.301,0.487,2.656
		c0.22,0.655,0.659,1.099,1.57,1.085c-0.679,17.296,0.276,28.607,0.386,40.78c-4.793-6.534-0.361-18.18-1.681-26.504
		C157.104,80.675,156.427,72.566,157.1,67.441z"/>
	<path fill-rule="evenodd" clip-rule="evenodd" d="M107.729,75.1c-2.118,0.962-4.74-1.507-5.232-3.793
		c-2.173-1.543-8.558,0.987-8.964-2.266C97.695,63.949,107.286,70.698,107.729,75.1z"/>
	<path fill-rule="evenodd" clip-rule="evenodd" fill="#E5B53A" d="M142.182,73.02c3.352,3.398,3.557,12.136,1.31,16.966
		C140.843,84.85,142.943,80.449,142.182,73.02z"/>
	<path fill-rule="evenodd" clip-rule="evenodd" fill="#FFFFFF" d="M177.23,195.388c-1.707-2.29,1.857-2.855,1.154-5.806
		c11.68-17.361,25.957-32.038,38.918-48.074c0.957-4.755,4.078-7.271,3.925-13.173c0.724-0.508,1.081-1.395,1.623-2.091
		c0.861-9.76,1.838-14.287,0.366-22.233c-1.947-3.325-2.662-7.843-4.581-11.196c-2.733-2.738-6.375-4.597-8.877-7.56
		c-4.126-0.696-7.005-2.599-11.064-3.359c-2.539,0.681-4.923,2.232-6.353-0.105c0.714-5.691,9.647-2.062,14.337-2.411
		c4.811,3.332,9.751,6.541,14.127,10.293c7.943,13.507,5.508,36.322-0.855,51.879c-7.489,8.411-13.062,18.804-22.133,25.583
		c-0.012,0.705-0.023,1.411-0.035,2.117c-6.184,4.735-10.058,11.859-15.119,17.754C181.519,190.488,180.531,194.133,177.23,195.388z
		"/>
	<path fill-rule="evenodd" clip-rule="evenodd" fill="#E5B53A" d="M119.843,79.005c5.39,2.268,1.623,8.758,2.429,13.279
		C118.092,90.403,119.315,82.644,119.843,79.005z"/>
	<path fill-rule="evenodd" clip-rule="evenodd" fill="#E5B53A" d="M25.605,77.981c1.338,13.203,2.511,25.744,1.542,34.974
		c-1.978-1.071-1.867-4.505-1.996-7.446C24.822,97.962,25.796,87.269,25.605,77.981z"/>
	<path fill-rule="evenodd" clip-rule="evenodd" d="M68.945,82.932c-0.831,2.658,0.699,4.577-1.164,6.335
		c-2.245,0.088-2.666-1.588-4.2-2.188C62.453,81.253,67.095,78.346,68.945,82.932z"/>
	<path fill-rule="evenodd" clip-rule="evenodd" d="M83.776,82.647c4.316,0.512,6.336,3.246,7.835,6.483
		c-0.475,0.227-0.954,0.449-1.076,1.041C87.065,88.841,84.479,86.655,83.776,82.647z"/>
	<path fill-rule="evenodd" clip-rule="evenodd" fill="#E5B53A" d="M163.625,89.259c0.856-0.135,0.902,0.516,1.579,0.556
		c0.366,3.503,1.661,11.944-1.286,13.746C162.045,100.792,162.917,92.814,163.625,89.259z"/>
	<path fill-rule="evenodd" clip-rule="evenodd" fill="#E5B53A" d="M131.853,89.264c2.426-0.61,1.643,1.884,3.142,2.17
		c-1.966,2.132,2.036,8.007-2.795,8.956C132.827,96.786,130.074,92.648,131.853,89.264z"/>
	<path fill-rule="evenodd" clip-rule="evenodd" fill="#E5B53A" d="M126.489,93.412c0.951-0.052,1.106,0.667,2.108,0.564
		c0.017,8.012-0.935,13.708-0.306,18.528C124.815,109.235,125.611,99.171,126.489,93.412z"/>
	<path fill-rule="evenodd" clip-rule="evenodd" fill="#E5B53A" d="M119.546,97.004c0.706,0.012,1.412,0.023,2.118,0.035
		c1.715,4.961,2.562,10.274,0.285,14.832C117.285,110.522,120.26,103.033,119.546,97.004z"/>
	<path fill-rule="evenodd" clip-rule="evenodd" fill="#E5B53A" d="M152.888,98.083c0.53,0.009,1.06,0.018,1.589,0.026
		c0.535,2.825,0.421,8.804,0.303,13.773C150.501,108.65,154.05,104.469,152.888,98.083z"/>
	<path fill-rule="evenodd" clip-rule="evenodd" fill="#FFFFFF" d="M171.885,102.104c0.529,0.009,1.059,0.018,1.589,0.026
		c0.341,4.617,0.319,14.916-1.4,20.627c-1.65-4.174-2.641-10.008-0.831-13.781c-0.221-0.654-0.659-1.098-1.571-1.084
		C170.729,106.294,171.412,104.308,171.885,102.104z"/>
	<path fill-rule="evenodd" clip-rule="evenodd" d="M69.671,103.065c1.688,1.364,1.092,6.376,0.39,8.479
		c-2.496,0.111-3.773,1.484-6.899,0.945c-0.908-1.552-2.814-2.139-3.106-4.288c0.725-0.508,1.082-1.395,1.624-2.091
		c1.451-0.362,1.047,1.07,2.1,1.093C66.592,106.702,66.229,102.918,69.671,103.065z"/>
	<path fill-rule="evenodd" clip-rule="evenodd" fill="#E5B53A" d="M163.875,106.208c0.468,0.242,0.938,0.48,1.041,1.076
		c2.253,22.89-0.262,46.716,2.526,71.527c-2.127,4.73,0.694,9.397-0.279,16.939c-4.828-1.739-2.02-10.396-2.394-15.396
		C162.581,151.151,162.301,135.195,163.875,106.208z"/>
	<path fill-rule="evenodd" clip-rule="evenodd" d="M93.848,114.055c2.739,15.054-0.355,32.03,2.399,47.167
		c-0.844,2.269,0.608,3.756-1.146,5.275c1.494,3.678,0.854,9.597,0.806,15.37c-0.035,4.154,0.983,9.515-1.789,12.15
		c-7.857-3.311-2.736-21.281-3.712-31.834c-0.136-1.479-1.423-3.055-1.518-4.261c-0.174-2.199,0.43-2.939,0.096-5.823
		c-0.988-8.513,1.217-18.478-0.084-27.007c-0.284-1.857-1.542-5.985-0.901-9.546C89.47,114.691,91.395,112.187,93.848,114.055z"/>
	<path fill-rule="evenodd" clip-rule="evenodd" d="M103.872,116.338c-1.389,8.915,1.172,18.348,1.187,24.377
		c0.024,10.549-1.473,24.523,1.029,33.906c-2.061,6.775,0.667,9.585,0.242,17.479c-0.876,1.471-3.896,2.844-5.85,1.492
		c-0.505-9.393-3.668-19.132-0.535-31.781c-2.883-6.331,1.173-18.354-2.289-21.747c3.105-4.708-2.298-17.438,1.495-26.452
		C102.514,112.789,102.063,115.657,103.872,116.338z"/>
	<path fill-rule="evenodd" clip-rule="evenodd" d="M82.184,114.921c2.056-0.427,1.862,1.324,3.151,1.641
		c-1.307,24.785,1.967,44.069,0.54,63.551c0.38,0.5,0.949,0.818,1.57,1.085c-1.795,2.236,0.368,6.012-2.769,7.367
		c-2.027-0.47-0.081-4.783-2.568-4.808c-0.558-12.165,1.664-24.922,0.594-35.998c-0.159-1.642-1.378-3.206-1.51-4.791
		c-0.127-1.534,1.197-3.235,1.138-4.747c-0.036-0.883-1.252-0.963-1.554-2.144C79.958,132.869,81.879,119.446,82.184,114.921z"/>
	<path fill-rule="evenodd" clip-rule="evenodd" d="M112.341,116.478c-0.697,12.435,1.557,17.87,0.11,25.418
		c0.669,13.903,2.359,38.103-0.83,50.291c-5.833-5.001-1.608-21.513-3.173-32.353c-0.369-2.554-2.05-5.621,0.131-7.941
		c-1.806-11.166-0.972-26.632,0.073-36.536C110.558,115.077,111.205,116.016,112.341,116.478z"/>
	<path fill-rule="evenodd" clip-rule="evenodd" d="M79.054,176.294c3.263,1.645,2.183,6.286-0.14,8.471
		c-4.707-5.438,0.51-21.334-3.243-28.119c0.228-4.308,0.779-17.178,0.428-25.939c-0.054-1.35-1.05-3.113-0.989-4.253
		c0.019-0.348,1.088-1.529,1.085-1.57c-0.251-3.328-2.773-6.482,0.678-8.991c1.666-0.223,1.375,1.448,2.621,1.632
		c0.652,3.234-1.314,7.79-0.722,11.637c0.133,0.86,1.492,1.393,1.554,2.144c0.436,5.343-2.377,19.644-0.454,27.527
		C81.06,163.706,82.115,170.309,79.054,176.294z"/>
	<path fill-rule="evenodd" clip-rule="evenodd" fill="#E5B53A" d="M36.519,122.641c1.976,9.671,1.078,17.737,1.186,24.377
		C35.179,141.269,36.917,131.8,36.519,122.641z"/>
	<path fill-rule="evenodd" clip-rule="evenodd" d="M64.471,129.456c1.059,0.018,2.117,0.035,3.176,0.052
		c1.33,3.518,4.325,8.625,2.42,13.808c-1.341,3.647-7.83,7.514-10.093,1.951c0.382-1.758,1.408-2.852,3.75-2.586
		C69.064,139.889,65.756,135.676,64.471,129.456z"/>
	<path fill-rule="evenodd" clip-rule="evenodd" d="M55.174,147.306c0.857-0.135,0.903,0.515,1.579,0.555
		c0.836,4.121,4.489,17.342-2.44,19.553C53.848,160.887,52.802,152.557,55.174,147.306z"/>
	<path fill-rule="evenodd" clip-rule="evenodd" fill="#E5B53A" d="M32.871,151.175c2.197,5.515,0.236,15.052,0.692,22.251
		C31.638,165.165,32.495,156.588,32.871,151.175z"/>
	<path fill-rule="evenodd" clip-rule="evenodd" d="M81.081,213.924c0.614,20.335,2.068,46.147,1.469,71.51
		c-4.969,3.216-9.153-0.45-11.048-4.418c-0.193-1.996,1.687-1.848,2.17-3.143c-0.558-21.292-0.321-42.029-2.103-65.166
		c3.024-2.586,2.523-7.843,5.469-10.5c1.775-1.603,3.709-0.934,5.866-2.551C88.782,203.347,80.712,208.337,81.081,213.924z"/>
	<path fill-rule="evenodd" clip-rule="evenodd" d="M108.818,201.673c-4.023,5.13-3.309,20.025-2.051,28.03
		c1.052,6.699-0.78,14.161-0.35,21.175c0.51,8.323,2.078,16.743,1.655,28.092c-0.131,3.521,0.64,7.959-3.333,9.477
		c-8.369-3.709-5.317-12.533-5.448-22.858c-0.113-8.922-1.408-18.46-1.69-25.975c-0.487-12.983-0.99-24.224,0.021-33.36
		C98.047,202.421,104.609,197.44,108.818,201.673z"/>
	<path fill-rule="evenodd" clip-rule="evenodd" fill="#E5B53A" d="M139.774,283.199c-3.565-6.014-0.487-13.376-1.265-19.613
		c-0.192-1.534-1.432-2.756-1.519-4.261c-0.923-15.946,2.949-35.29-2.877-50.352c-2.597-0.613-3.528-2.837-5.761-3.803
		c-2.62-0.014-3.13,2.15-4.816,3.099c-1.131,8.393,0.691,15.851,0.717,20.663c0.011,1.914-1.221,3.494-1.145,5.276
		c0.06,1.417,1.28,0.562,1.56,1.614c-0.041-0.154-0.099,3.658-0.069,4.235c0.492,9.357-1.704,19.241,0.57,29.662
		c-1.178,1.768-0.262,2.353-1.129,4.218c0.834,2.35,2.581,9.058-0.166,10.059c-3.987-1.355-2.536-6.72-2.48-10.103
		c0.319-19.368-1.56-40.52-2.146-62.52c1.689-1.937,1.35-2.625,1.684-5.797c3.769-6.117,12.266-4.739,15.874,0.792
		c2.654,24.177,2.072,37.887,2.076,66.754C140.402,276.214,140.362,280.437,139.774,283.199z"/>
	<path fill-rule="evenodd" clip-rule="evenodd" fill="#E5B53A" d="M159.37,282.993c-4.267-9.504-1.266-26.639-3.016-41.882
		c-0.693-6.028,0.704-20.12-0.613-27.016c-0.586-3.059-3.525-8.048-7.315-5.944c-4.886,2.709-0.938,23.172-0.992,28.048
		c-1.521,2.347-0.251,4.878-0.122,7.411c0.732,14.464,1.4,31.544-0.134,40.24c-2.252,1.251-2.413-1.542-4.201-2.187
		c0.079-17.155,0.834-27.009-0.985-36.554c-0.436-1.706,1.391-1.075,1.623-2.091c-1.778-5.563-2.045-19.867-1.637-29.151
		c0.396-9.044,5.314-15.952,13.93-9.831c1.486,2.729,2.123,6.281,3.557,9.062c-1.157,1.944,0.796,3.95-1.146,5.276
		C161.025,242.036,160.303,257.051,159.37,282.993z"/>
	<path fill-rule="evenodd" clip-rule="evenodd" d="M62.719,203.561c-0.164,2.701-1.849,3.831-3.784,4.702
		c0.59,5.037-1.686,7.987-1.771,11.091c-0.062,2.234,1.18,3.68,1.483,6.379c0.757,6.742-0.748,14.082-0.332,20.116
		c0.086,1.248,1.296,1.026,1.553,2.144c0.22,0.956-1.003,0.941-1.093,2.101c-0.066,0.85,1.013,2.58,1.015,2.664
		c0.351,11.113,0.167,22.033-1.07,32.813c-2.475,0.311-3.387-0.891-5.276-1.147c-1.266-8.204,1.298-17.733-0.11-25.418
		c-1.937-10.565-1.271-25.738-2.053-36.042c-0.542-7.144,2.351-12.718,3.491-19.006c2.634-0.326,3.222-2.771,6.917-2.003
		C61.648,202.859,62.057,203.332,62.719,203.561z"/>
	<path fill-rule="evenodd" clip-rule="evenodd" d="M44.182,203.783c-1.455,3.164-4.073,5.123-5.434,8.383
		c0.457,7.827-0.905,14.445,1.257,20.144c-1.905-0.533-0.772,2.072-1.111,3.158c1.397,16.516,0.842,31.902,1.87,47.158
		c-1.464,0.103-1.24,1.947-2.161,2.612c-1.279,0.195-1.135-0.987-2.638-0.573c-3.875-8.825-0.867-27.671-2.426-45.579
		c-0.664-7.628-1.54-17.972-0.63-25.956C33.364,209.122,37.543,199.797,44.182,203.783z"/>
	<path fill-rule="evenodd" clip-rule="evenodd" fill="#FFFFFF" d="M183.382,207.668c1.358,7.894-1.004,12.723-0.854,19.578
		C179.567,222.247,180.832,211.232,183.382,207.668z"/>
	<path fill-rule="evenodd" clip-rule="evenodd" d="M90.186,207.72c0.353,0.006,0.706,0.012,1.059,0.018
		c3.108,2.481,2.786,9.008,2.932,14.875c0.279,11.207-0.228,24.638,0.456,36.544c0.198,3.435,1.604,6.653,1.952,10.094
		c0.478,4.713,1.027,12.372-2.371,15.316c-3.934-4.104-1.601-13.551-2.237-24.924c-0.547-9.795-0.532-18.759-0.604-27.546
		C91.313,225.103,88.563,216.855,90.186,207.72z"/>
	<path fill-rule="evenodd" clip-rule="evenodd" d="M66.346,208.386c0.951-0.052,1.106,0.665,2.109,0.563
		c-0.049,27.755,1.163,42.083,2.085,66.226c0.112,2.934-0.149,3.646-1.181,7.393c-4.459-3.535-3.016-14.624-2.853-19.639
		c-0.461-15.821-1.581-33.242-1.87-47.158C64.573,212.765,65.367,210.615,66.346,208.386z"/>
	<path fill-rule="evenodd" clip-rule="evenodd" d="M46.628,216.003c7.237,3.364,0.926,19.765,4.884,24.969
		c0.361,1.449-1.07,1.048-1.094,2.099c2.043,4.25-0.693,16.688,1.716,24.387c-2.071,5.29,2.345,11.622-1.32,15.864
		c-2.455-0.601-3.681-1.569-4.183-3.246c-0.592-1.982,1.652-3.796,1.667-4.738c0.01-0.639-1.406-1.523-1.553-2.144
		c-0.451-1.901,1.457-2.557,1.667-4.738c0.144-1.495-1.22-4.812-1.458-7.967c-0.351-4.672,1.083-8.527-1.414-10.614
		c0.536-3.976,2.062-7.753,0.218-13.233C46.859,233.113,44.84,221.848,46.628,216.003z"/>
	<path fill-rule="evenodd" clip-rule="evenodd" d="M76.109,290.622c-0.71,3.716-5.361,2.311-8.513,2.508
		c-3.396,0.211-7.162,1.332-10.084,1.422c-5.506,0.168-15.62,1.728-17.409-3.994c7.014-1.713,15.769-0.36,24.907-1.178
		C69.241,289.002,73.9,286.323,76.109,290.622z"/>
	<path fill-rule="evenodd" clip-rule="evenodd" d="M77.657,4.177c8.149-5.465,21.83-6.167,28.04,1.521
		c5.087-1.761,6.921,4.551,11.038,4.948c2.796,0.27,4.377-2.826,6.943-3.593c10.035-2.997,18.438,2.313,23.144,9.384
		c1.908-0.11,2.535,1.02,4.219,1.129c1.697,2.523,4.389,4.087,4.633,8.019c4.154,0.668,5.153,4.391,8.374,5.963
		c-0.578,4.031,1.703,5.298,1.439,9.025c1.747,2.304,3.826,4.285,6.795,5.407c2.109,5.138,2.931,8.414,1.36,13.791
		c-1.783,6.106-9.216,11.077-2.38,15.846c4.444-3.843,8.352-8.239,13.427-11.428c10.171-2.029,16.36-2.487,28.066-0.066
		c5.654,2.342,9.582,6.356,15.75,8.203c7.202,8.626,12.733,18.555,14.846,30.957c1.398,8.206,1.47,19.3-0.48,29.116
		c-0.564,2.843-3.215,3.258-1.693,6.326c-1.284,1.363-2.009,3.308-3.775,4.174c-8.486,25.686-36.717,30.967-44.369,57.516
		c-1.08,0.14-1.428,1.037-2.144,1.553c0.896,2.527-0.563,2.581-1.137,4.746c-1.432,13.412,0.552,19.797-4.256,33.29
		c-3.372,2.977-7.726,4.938-11.769,7.22c-0.64,11.582,0.605,19.003,0.084,27.007c3.611,14.266-0.583,29.901-14.826,32.058
		c-4.812,0.727-10.822,0.457-16.428,0.786c-29.421,1.737-63.474,2.117-93.761,2.161c-7.974,0.012-15.638-0.642-23.804-1.452
		c-3.908-3.511-7.946-6.897-10.396-11.82c-2.171-12.964,0.001-30.127-0.854-44.494c-0.179-3-1.287-5.833-1.449-8.496
		c-0.417-6.86,0.547-14.342,0.349-21.175c-0.102-3.53-1.319-6.907-1.421-10.085c0.005,0.162,1.081-3.036,1.128-4.217
		c0.012-0.293-0.963-1.792-1.023-2.136c-0.244-1.399,1.126-2.886,1.128-4.218c0.019-9.665-0.793-25.062-1.029-33.906
		c-0.092-3.461-0.166-6.845-0.363-10.066c-0.722-11.752,0.119-19.958-3.763-28.656c3.56-14.276,3.299-30.791-4.64-39.791
		c1.203-4.043,3.44-7.946,1.79-12.149c-0.158-0.401-1.406-0.867-1.562-1.614c-0.533-2.56,0.604-6.081,0.14-8.47
		c-0.75-3.869-3.302-7.217-3.001-10.64c0.449-5.112,3.858-7.674,7.083-12.062c1.657-2.255,2.935-6.938,5.442-8.912
		c6.963-5.483,18.716-0.177,21.358-10.768c-2.752-6.063,2.468-11.305,8.141-12.044C46.837-0.503,65.998-3.271,77.657,4.177z
		 M73.378,6.754c-10.01-6.524-25.441-1.438-29.793,8.511c-3.051,0.664-7.996,2.473-4.87,6.273c2.019-0.255,7.573-3.022,6.856,1.702
		c-2.501,1.004-4.364,2.668-7.464,3.054c-0.794,2.065-2.992,2.167-4.305,4.165c-2.009,3.057-0.731,9.006-4.93,9.98
		c-0.526-1.402-0.58-3.259-0.442-5.303c-8.852,0.364-17.302,1.141-17.124,10.837c-14.128,10.906,2.814,29.56-4.439,44.407
		c3.793-0.568,1.214-7.719,5.425-7.854c0.764,1.691,2.498,2.445,3.645,3.766c2.122-7.749-4.12-15.517,0.913-23.284
		c7.416-3.494,12.728-3.831,21.792-4.936c-0.573-2.746,1.523-2.732,3.229-3.124c2.263,2.672,5.258,4.636,7.827,7.012
		c5.907,1.389,8.99-2.688,14.372-4.528c1.908,1.279,2.422,3.908,1.995,7.446c3.983,8.147,15.637,7.177,18.554-1.283
		c6.634,0.216,7.95-5.064,10.216-9.363c2.478-0.311,4.429-1.165,5.867-2.551c17.4,2.505,43.218,2.708,62.874,8.451
		c0.697,1.236,2.1,1.789,1.519,4.261c6.573-1.027,5.03-11.964,2.388-16.376c-2.597-1.307-7.051-0.817-7.341-4.357
		c5.275-11.893-8.233-14.122-10.222-22.408c-1.734-0.059-1.998-1.539-4.217-1.128c-6.054-10.987-20.054-11.926-29.575-4.724
		c-1.598-1.406-4.381-1.666-4.695-4.314c-4.171-0.408-7.617-0.759-9.459-4.392c-3.997-0.204-8.357-3.243-13.191-2.865
		c-3.006,0.236-4.811,2.821-7.976,1.986c-1.793,2.453-3.152,5.357-3.854,8.938c-2.393-0.481-5.017,2.633-6.352-0.104
		c0.438-2.778,3.32-3.029,3.801-5.762C73.473,8.746,73.21,7.958,73.378,6.754z M97.976,56.405
		c-2.034,5.256-4.496,10.07-11.291,10.405c-1.919,5.375-6.741,7.75-12.333,9.328c-6.898-2.008-10.552-7.154-14.63-11.891
		c-5.699,2.048-3.598,9.324-0.201,12.176c-0.781,1.346-3.637,0.548-3.75,2.585c-1.348,19.634,2.857,27.979-0.23,46.065
		c1.014,1.624,1.207,4.042,0.945,6.899c-1.668-0.289-0.24,2.624-2.152,2.083c-2.087-1.695-1.901-6.618-0.372-9.538
		c-2.081-3.095-0.601-9.2-0.832-13.781c-0.592-11.753-1.792-18.472-2.635-32.875c-3.264,3.139-1.588,13.269-0.8,16.402
		c-1.826,2.105-0.959,7.469,0.893,10.076c-0.897,8.901-1.072,26.731-0.681,41.292c0.194,7.234,3.475,14.844-1.364,18.511
		c-3.875-3.488,0.568-15.594-2.341-18.572c2.517-4.933,0.143-12.607-0.259-16.419c-1.009-9.582,2.588-22.442-2.184-28.101
		c2.96-4.8,3.022-14.888-0.18-21.185c2.393-3.27,1.618-9.813,1.842-15.325c-3.187-4.348-8.081-3.504-13.738-1.815
		c-3.028,6.463,0.005,11.382-0.887,21.695c0.776,0.986,2.188,1.356,2.603,2.691c-2.934,3.3-4.245,11.579-1.329,16.393
		c-0.308,6.259-1.058,9.289,0.285,14.832c0.543-0.694,0.533-1.961,1.623-2.091c1.742,0.92,1.898,3.373,3.098,4.817
		c0.601-1.626-0.356-4.554,2.205-5.259c3.507,1.685,1.489,5.536,1.475,6.908c-0.153,15.209,2.057,35.848,1.8,51.393
		c-0.062,3.706,1.169,8.634-1.771,11.091c-5.476-7.206,0.566-26.182-3.632-36.597c1.325,6.078-0.463,8.26-0.245,14.823
		c0.19,5.715,3.517,21.989-1.999,24.854c-2.815-6.121,0.59-9.355-1.882-14.328c-1.842,10.733,1.096,20.415-1.027,30.165
		c-1.879,0.93-3.114,2.526-5.346,3.09c-2.749,8.501-2.547,23.795-0.515,31.233c-2.171,1.077-0.159,1.831-0.052,3.176
		c0.088,1.118-0.663,3.023-0.608,4.757c0.215,6.739,0.893,15.288,0.701,21.722c-0.246,8.246,2.651,16.872-2.979,20.072
		c-5.343-10.427-1.703-27.223-2.999-42.941c-0.852-10.336-1.455-21.601-1.62-30.209c-0.063-3.331,0.575-6.43,1.737-8.973
		c1.843-0.395,2.022,0.821,3.697,0.59c2.986-2.499,0.858-5.798,0.668-8.46c-0.703-9.901,0.967-20.36-0.057-28.596
		c-1.346-10.824-0.66-21.749-1.056-32.319c-0.344-9.17-0.39-20.211-2.219-25.983c2.255-2.835-1.632-7.029,1.251-11.628
		c-3.214-6.877,2.477-27.25-3.182-31.824c-0.189,11.99-0.584,23.752,0.526,32.31c0.094,0.729-1.145,0.904-1.085,1.571
		c0.066,0.743,1.295,0.988,1.553,2.144c2.019,9.043-2.964,23.692,1.047,32.848c-2.202,24.312,2.076,47.928,0.038,61.954
		c-5.372-0.899-3.549-7.561-3.479-13.825c0.149-13.423,1.633-22.916-0.023-30.711c-2.363-11.122,0.165-25.947-0.977-37.083
		c-0.462-4.509-0.838-11.127-0.761-18.017c0.028-2.628,1.639-7.532-1.979-8.504c-0.705,9.775-1.034,20.201,0.579,29.133
		c1.834,10.156-1.112,23.208,1.021,34.437c2.043,10.759-2.846,22.619,1.038,33.376c-0.244,1.005-1.163,1.311-1.103,2.63
		c3.425,10.322-0.463,37.438,1.357,46.091c0.666,3.162-0.816,2.014-0.59,3.696c0.083,0.623,1.486,1.578,1.544,2.673
		c0.528,9.852-0.483,18.58-0.445,26.998c-0.18,1.39,2.047,0.451,1.553,2.144c-0.651,10.287,0.122,21.628,2.705,28.639
		c5.807,5.065,10.732,4.503,21.105,4.585c17.295,0.135,29.79,0.169,41.838-0.369c20.394-0.911,40.204-1.011,57.745-1.695
		c5.788-0.225,12.802,2.115,17.515-2.358c-4.029-7.649-16.732,0.596-23.258-2.502c-4.986,2.467-10.866,0.687-16.958,0.779
		c-23.221,0.354-46.424,2.426-64.637,2.111c-7.391-0.129-16.598,1.737-20.073-2.979c5.556-3.844,16.895-2.857,28.109-2.712
		c17.491,0.224,40.291,1.805,59.334-1.671c-0.111-2.844-3.056-2.947-4.157-4.833c-0.707-3.303,0.508-8.04,0.201-12.176
		c-0.056-0.754-1.437-1.797-1.544-2.673c0.009,0.071,1.065-0.966,1.076-1.042c0.093-0.651-1.013-1.183-1.032-1.605
		c-0.382-8.448,1.106-21.037,0.533-32.292c-0.421-8.243-2.778-22.189-1.065-31.789c1.152-6.452,1.446-11.415,1.356-17.98
		c-0.177-12.886,0.498-23.472-0.509-33.368c-1.019-10.014,1.358-21.441-0.031-30.184c-1.201-7.56-1.558-15.73-0.674-23.31
		c-1.843-2.878-0.907-4.493-1.466-7.438c-1.348-0.258-2.421-0.782-3.15-1.64c4.894-3.047,3.816-11.211,1.32-15.864
		c4.236-5.751,1.489-13.732,1.382-19.57C111.186,55.944,102.888,56.872,97.976,56.405z M119.454,70.527
		c4.389-0.375,2.148-8.691,1.251-11.629c-0.53-0.008-1.059-0.017-1.588-0.026C117.708,62.687,118.422,66.509,119.454,70.527z
		 M133.512,85.056c1.643-3.464,0.54-3.76,0.113-6.882c-0.716-5.229,1.248-12.764-0.242-17.478c-0.529-0.009-1.059-0.018-1.588-0.026
		C132.743,68.435,129.112,80.629,133.512,85.056z M151.693,74.235c2.387,3.657-1.017,10.588,2.42,13.808
		c-0.87-7.473,1.363-15.637-0.692-22.251C151.746,68.579,153.252,72.078,151.693,74.235z M236.978,136.537
		c0.638-4.769,1.64-13.705,2.97-19.543c-1.347-3.325-1.821-7.81-2.446-12.219c-1.044-7.369-2.675-14.4-4.952-20.732
		c-1.252-1.395-3.844-1.491-3.098-4.817c-6.966-4.445-15.47-10.891-25.739-12.604c-13.24-2.209-22.45,5.379-29.846,11.687
		c-0.035,3.554-2.087,5.022-2.257,8.435c7.589-3.15,10.443-12.526,18.78-15.045c4.667-1.411,8.287,0.012,14.293,0.235
		c2.506,1.917,5.764,3.107,10.006,3.342c8.877,5.625,18.351,17.232,20.175,28.928c1.664,10.676,1.214,20.752-1.027,30.165
		c-1.356,1.697-4.421,5.991-1.729,8.444C234.55,141.566,235.444,138.722,236.978,136.537z M157.862,85.458
		c1.319,8.324-3.112,19.97,1.681,26.504c-0.109-12.172-1.064-23.484-0.386-40.78c-0.911,0.014-1.351-0.43-1.57-1.085
		c0.415-0.355,1.43-3.131-0.487-2.656C156.427,72.566,157.104,80.675,157.862,85.458z M143.491,89.986
		c2.247-4.831,2.042-13.568-1.31-16.966C142.943,80.449,140.843,84.85,143.491,89.986z M182.663,187.005
		c5.062-5.895,8.936-13.019,15.119-17.754c0.012-0.706,0.023-1.412,0.035-2.117c9.07-6.778,14.644-17.171,22.133-25.583
		c6.363-15.557,8.799-38.372,0.855-51.879c-4.376-3.752-9.316-6.961-14.127-10.293c-4.689,0.35-13.623-3.28-14.337,2.411
		c1.43,2.337,3.813,0.786,6.353,0.105c4.06,0.76,6.938,2.663,11.064,3.359c2.502,2.963,6.144,4.821,8.877,7.56
		c1.919,3.354,2.634,7.871,4.581,11.196c1.472,7.946,0.495,12.473-0.366,22.233c-0.542,0.697-0.899,1.583-1.623,2.091
		c0.153,5.902-2.968,8.418-3.925,13.173c-12.961,16.036-27.238,30.713-38.918,48.074c0.703,2.95-2.861,3.516-1.154,5.806
		C180.531,194.133,181.519,190.488,182.663,187.005z M122.272,92.284c-0.807-4.521,2.961-11.011-2.429-13.279
		C119.315,82.644,118.092,90.403,122.272,92.284z M25.151,105.508c0.128,2.941,0.018,6.375,1.996,7.446
		c0.969-9.229-0.203-21.771-1.542-34.974C25.796,87.269,24.822,97.962,25.151,105.508z M218.938,106.586
		c-1.935-0.559-1.607-3.307-1.491-5.849c-3.819-5.257-6.53-12.408-14.597-14.007c-8.472-1.68-17.217,1.136-19.734,8.676
		c-3.768,11.278,0.387,21.1-6.321,30.078c-2.727,0.592-4.375,2.298-5.894,4.14c-1.003,11.391,0.42,19.489,0.613,27.016
		c0.025,0.982-1.198,1.792-1.102,2.629c0.149,1.319,1.42,2.346,1.526,3.731c0.195,2.533-0.367,5.612-0.131,7.941
		c0.641,6.301-2.336,15.178,1.785,20.151C187.37,162.019,220.69,148.209,218.938,106.586z M163.918,103.561
		c2.947-1.802,1.652-10.243,1.286-13.746c-0.677-0.04-0.723-0.69-1.579-0.556C162.917,92.814,162.045,100.792,163.918,103.561z
		 M132.199,100.39c4.831-0.949,0.829-6.824,2.795-8.956c-1.499-0.286-0.716-2.78-3.142-2.17
		C130.074,92.648,132.827,96.786,132.199,100.39z M128.292,112.505c-0.629-4.82,0.322-10.516,0.306-18.528
		c-1.002,0.102-1.157-0.616-2.108-0.564C125.611,99.171,124.815,109.235,128.292,112.505z M121.949,111.871
		c2.276-4.557,1.43-9.871-0.285-14.832c-0.706-0.011-1.412-0.023-2.118-0.035C120.26,103.033,117.285,110.522,121.949,111.871z
		 M154.779,111.883c0.118-4.969,0.232-10.948-0.303-13.773c-0.529-0.009-1.059-0.018-1.589-0.026
		C154.05,104.469,150.501,108.65,154.779,111.883z M169.671,107.892c0.912-0.013,1.351,0.43,1.571,1.084
		c-1.81,3.773-0.819,9.607,0.831,13.781c1.72-5.711,1.741-16.011,1.4-20.627c-0.53-0.009-1.06-0.018-1.589-0.026
		C171.412,104.308,170.729,106.294,169.671,107.892z M164.77,180.355c0.374,5-2.435,13.656,2.394,15.396
		c0.974-7.542-1.848-12.209,0.279-16.939c-2.788-24.811-0.273-48.637-2.526-71.527c-0.103-0.596-0.573-0.834-1.041-1.076
		C162.301,135.195,162.581,151.151,164.77,180.355z M37.705,147.018c-0.108-6.641,0.79-14.706-1.186-24.377
		C36.917,131.8,35.179,141.269,37.705,147.018z M33.563,173.426c-0.456-7.199,1.505-16.736-0.692-22.251
		C32.495,156.588,31.638,165.165,33.563,173.426z M138.882,273.124c-0.004-28.867,0.578-42.577-2.076-66.754
		c-3.607-5.531-12.104-6.909-15.874-0.792c-0.333,3.172,0.006,3.86-1.684,5.797c0.586,22,2.465,43.151,2.146,62.52
		c-0.056,3.383-1.507,8.747,2.48,10.103c2.747-1.001,1-7.709,0.166-10.059c0.867-1.865-0.049-2.45,1.129-4.218
		c-2.274-10.421-0.078-20.305-0.57-29.662c-0.029-0.577,0.028-4.39,0.069-4.235c-0.279-1.052-1.5-0.197-1.56-1.614
		c-0.076-1.782,1.155-3.362,1.145-5.276c-0.025-4.812-1.848-12.271-0.717-20.663c1.687-0.948,2.196-3.112,4.816-3.099
		c2.232,0.966,3.164,3.189,5.761,3.803c5.826,15.062,1.954,34.405,2.877,50.352c0.087,1.505,1.326,2.727,1.519,4.261
		c0.777,6.237-2.301,13.6,1.265,19.613C140.362,280.437,140.402,276.214,138.882,273.124z M158.317,218.375
		c1.942-1.326-0.011-3.332,1.146-5.276c-1.434-2.78-2.07-6.333-3.557-9.062c-8.615-6.121-13.533,0.787-13.93,9.831
		c-0.408,9.284-0.142,23.588,1.637,29.151c-0.232,1.016-2.059,0.385-1.623,2.091c1.819,9.545,1.064,19.398,0.985,36.554
		c1.788,0.645,1.949,3.438,4.201,2.187c1.534-8.696,0.866-25.776,0.134-40.24c-0.129-2.533-1.399-5.064,0.122-7.411
		c0.054-4.876-3.894-25.339,0.992-28.048c3.79-2.104,6.729,2.886,7.315,5.944c1.317,6.896-0.08,20.987,0.613,27.016
		c1.75,15.243-1.251,32.378,3.016,41.882C160.303,257.051,161.025,242.036,158.317,218.375z M182.528,227.246
		c-0.15-6.855,2.212-11.685,0.854-19.578C180.832,211.232,179.567,222.247,182.528,227.246z"/>
	<path fill-rule="evenodd" clip-rule="evenodd" fill="#E5B53A" d="M114.899,57.743c0.107,5.837,2.854,13.818-1.382,19.57
		c2.496,4.652,3.573,12.816-1.32,15.864c0.729,0.858,1.802,1.382,3.15,1.64c0.559,2.945-0.376,4.56,1.466,7.438
		c-0.884,7.58-0.526,15.75,0.674,23.31c1.389,8.742-0.987,20.169,0.031,30.184c1.007,9.896,0.333,20.482,0.509,33.368
		c0.09,6.565-0.204,11.528-1.356,17.98c-1.713,9.6,0.644,23.546,1.065,31.789c0.574,11.255-0.915,23.844-0.533,32.292
		c0.019,0.423,1.125,0.954,1.032,1.605c-0.011,0.076-1.067,1.113-1.076,1.042c0.107,0.876,1.488,1.919,1.544,2.673
		c0.308,4.136-0.908,8.873-0.201,12.176c1.101,1.886,4.045,1.989,4.157,4.833c-19.044,3.476-41.844,1.895-59.334,1.671
		c-11.214-0.146-22.553-1.132-28.109,2.712c3.475,4.717,12.682,2.851,20.073,2.979c18.212,0.314,41.416-1.758,64.637-2.111
		c6.092-0.093,11.972,1.688,16.958-0.779c6.525,3.098,19.229-5.147,23.258,2.502c-4.713,4.474-11.727,2.134-17.515,2.358
		c-17.541,0.685-37.352,0.784-57.745,1.695c-12.048,0.538-24.543,0.504-41.838,0.369c-10.373-0.082-15.298,0.48-21.105-4.585
		c-2.583-7.011-3.355-18.352-2.705-28.639c0.494-1.692-1.733-0.754-1.553-2.144c-0.038-8.418,0.973-17.146,0.445-26.998
		c-0.059-1.095-1.461-2.05-1.544-2.673c-0.226-1.683,1.256-0.534,0.59-3.696c-1.821-8.653,2.067-35.769-1.357-46.091
		c-0.06-1.319,0.858-1.625,1.103-2.63c-3.884-10.757,1.005-22.617-1.038-33.376c-2.133-11.229,0.813-24.28-1.021-34.437
		c-1.613-8.932-1.284-19.357-0.579-29.133c3.617,0.973,2.007,5.876,1.979,8.504c-0.077,6.89,0.299,13.508,0.761,18.017
		c1.142,11.136-1.386,25.961,0.977,37.083c1.656,7.795,0.172,17.289,0.023,30.711c-0.07,6.265-1.893,12.926,3.479,13.825
		c2.039-14.026-2.239-37.642-0.038-61.954c-4.011-9.156,0.972-23.805-1.047-32.848c-0.258-1.156-1.487-1.4-1.553-2.144
		c-0.059-0.667,1.18-0.842,1.085-1.571c-1.11-8.557-0.715-20.319-0.526-32.31c5.659,4.574-0.033,24.947,3.182,31.824
		c-2.883,4.599,1.004,8.793-1.251,11.628c1.829,5.772,1.875,16.813,2.219,25.983c0.396,10.57-0.29,21.495,1.056,32.319
		c1.024,8.235-0.646,18.694,0.057,28.596c0.189,2.662,2.317,5.961-0.668,8.46c-1.675,0.231-1.854-0.984-3.697-0.59
		c-1.162,2.543-1.8,5.642-1.737,8.973c0.165,8.608,0.768,19.873,1.62,30.209c1.296,15.719-2.345,32.515,2.999,42.941
		c5.63-3.2,2.733-11.826,2.979-20.072c0.192-6.434-0.486-14.982-0.701-21.722c-0.055-1.733,0.696-3.639,0.608-4.757
		c-0.107-1.345-2.119-2.099,0.052-3.176c-2.032-7.438-2.233-22.732,0.515-31.233c2.232-0.563,3.467-2.16,5.346-3.09
		c2.123-9.75-0.815-19.432,1.027-30.165c2.472,4.973-0.934,8.207,1.882,14.328c5.516-2.865,2.189-19.14,1.999-24.854
		c-0.219-6.562,1.569-8.745,0.245-14.823c4.198,10.416-1.843,29.391,3.632,36.597c2.94-2.457,1.71-7.385,1.771-11.091
		c0.256-15.545-1.953-36.184-1.8-51.393c0.014-1.373,2.033-5.223-1.475-6.908c-2.561,0.705-1.604,3.633-2.205,5.259
		c-1.2-1.444-1.356-3.897-3.098-4.817c-1.09,0.13-1.08,1.397-1.623,2.091c-1.342-5.543-0.592-8.572-0.285-14.832
		c-2.916-4.814-1.604-13.093,1.329-16.393c-0.416-1.334-1.827-1.705-2.603-2.691c0.892-10.313-2.141-15.232,0.887-21.695
		c5.657-1.689,10.551-2.533,13.738,1.815c-0.224,5.512,0.551,12.055-1.842,15.325c3.202,6.297,3.141,16.384,0.18,21.185
		c4.772,5.659,1.175,18.519,2.184,28.101c0.401,3.812,2.775,11.486,0.259,16.419c2.909,2.979-1.533,15.084,2.341,18.572
		c4.839-3.667,1.559-11.276,1.364-18.511c-0.391-14.561-0.216-32.39,0.681-41.292c-1.852-2.607-2.719-7.97-0.893-10.076
		c-0.788-3.134-2.464-13.264,0.8-16.402c0.843,14.402,2.043,21.121,2.635,32.875c0.231,4.581-1.249,10.686,0.832,13.781
		c-1.529,2.919-1.715,7.843,0.372,9.538c1.913,0.542,0.484-2.372,2.152-2.083c0.261-2.857,0.069-5.275-0.945-6.899
		c3.087-18.086-1.118-26.431,0.23-46.065c0.113-2.038,2.968-1.239,3.75-2.585c-3.396-2.852-5.498-10.127,0.201-12.176
		c4.078,4.736,7.732,9.882,14.63,11.891c5.592-1.578,10.414-3.953,12.333-9.328c6.795-0.335,9.257-5.148,11.291-10.405
		C102.888,56.872,111.186,55.944,114.899,57.743z M93.532,69.04c0.407,3.253,6.791,0.723,8.964,2.266
		c0.493,2.286,3.114,4.756,5.232,3.793C107.286,70.698,97.695,63.949,93.532,69.04z M63.581,87.079
		c1.535,0.599,1.956,2.276,4.2,2.188c1.863-1.758,0.333-3.677,1.164-6.335C67.095,78.346,62.453,81.253,63.581,87.079z
		 M90.536,90.171c0.122-0.592,0.601-0.814,1.076-1.041c-1.499-3.237-3.519-5.971-7.835-6.483
		C84.479,86.655,87.065,88.841,90.536,90.171z M63.779,107.204c-1.053-0.023-0.649-1.455-2.1-1.093
		c-0.542,0.697-0.899,1.583-1.624,2.091c0.292,2.148,2.199,2.735,3.106,4.288c3.126,0.539,4.403-0.834,6.899-0.945
		c0.703-2.103,1.298-7.115-0.39-8.479C66.229,102.918,66.592,106.702,63.779,107.204z M87.999,115.547
		c-0.641,3.562,0.618,7.689,0.901,9.546c1.302,8.529-0.903,18.494,0.084,27.007c0.334,2.883-0.27,3.624-0.096,5.823
		c0.095,1.206,1.381,2.781,1.518,4.261c0.976,10.553-4.145,28.523,3.712,31.834c2.771-2.636,1.754-7.996,1.789-12.15
		c0.049-5.773,0.688-11.692-0.806-15.37c1.755-1.52,0.302-3.007,1.146-5.275c-2.754-15.137,0.34-32.113-2.399-47.167
		C91.395,112.187,89.47,114.691,87.999,115.547z M99.15,113.613c-3.793,9.014,1.61,21.744-1.495,26.452
		c3.462,3.393-0.594,15.416,2.289,21.747c-3.133,12.649,0.03,22.389,0.535,31.781c1.953,1.352,4.974-0.021,5.85-1.492
		c0.425-7.894-2.302-10.703-0.242-17.479c-2.502-9.383-1.005-23.357-1.029-33.906c-0.014-6.029-2.575-15.463-1.187-24.377
		C102.063,115.657,102.514,112.789,99.15,113.613z M80.776,136.079c0.301,1.18,1.518,1.26,1.554,2.144
		c0.059,1.512-1.265,3.213-1.138,4.747c0.132,1.585,1.351,3.149,1.51,4.791c1.07,11.076-1.151,23.833-0.594,35.998
		c2.487,0.024,0.542,4.338,2.568,4.808c3.137-1.355,0.974-5.131,2.769-7.367c-0.621-0.267-1.19-0.585-1.57-1.085
		c1.427-19.482-1.847-38.766-0.54-63.551c-1.289-0.317-1.095-2.067-3.151-1.641C81.879,119.446,79.958,132.869,80.776,136.079z
		 M108.653,115.358c-1.045,9.903-1.879,25.37-0.073,36.536c-2.181,2.321-0.5,5.388-0.131,7.941
		c1.565,10.84-2.66,27.352,3.173,32.353c3.188-12.188,1.499-36.388,0.83-50.291c1.446-7.549-0.808-12.983-0.11-25.418
		C111.205,116.016,110.558,115.077,108.653,115.358z M79.872,158.833c-1.923-7.883,0.89-22.185,0.454-27.527
		c-0.062-0.751-1.421-1.283-1.554-2.144c-0.592-3.848,1.374-8.403,0.722-11.637c-1.246-0.184-0.955-1.855-2.621-1.632
		c-3.451,2.509-0.929,5.663-0.678,8.991c0.003,0.041-1.066,1.222-1.085,1.57c-0.061,1.14,0.935,2.903,0.989,4.253
		c0.351,8.761-0.2,21.631-0.428,25.939c3.753,6.785-1.464,22.681,3.243,28.119c2.323-2.185,3.402-6.826,0.14-8.471
		C82.115,170.309,81.06,163.706,79.872,158.833z M63.723,142.681c-2.341-0.266-3.367,0.828-3.75,2.586
		c2.263,5.563,8.752,1.696,10.093-1.951c1.905-5.182-1.09-10.29-2.42-13.808c-1.059-0.018-2.118-0.035-3.176-0.052
		C65.756,135.676,69.064,139.889,63.723,142.681z M54.313,167.414c6.929-2.211,3.276-15.432,2.44-19.553
		c-0.676-0.04-0.722-0.69-1.579-0.555C52.802,152.557,53.848,160.887,54.313,167.414z M82.905,199.656
		c-2.157,1.617-4.091,0.948-5.866,2.551c-2.945,2.657-2.444,7.914-5.469,10.5c1.782,23.137,1.544,43.874,2.103,65.166
		c-0.483,1.295-2.364,1.146-2.17,3.143c1.895,3.968,6.079,7.634,11.048,4.418c0.6-25.362-0.855-51.175-1.469-71.51
		C80.712,208.337,88.782,203.347,82.905,199.656z M97.623,206.253c-1.01,9.137-0.507,20.377-0.021,33.36
		c0.282,7.515,1.577,17.053,1.69,25.975c0.131,10.325-2.921,19.149,5.448,22.858c3.973-1.518,3.202-5.956,3.333-9.477
		c0.423-11.349-1.145-19.769-1.655-28.092c-0.43-7.014,1.402-14.476,0.35-21.175c-1.258-8.005-1.972-22.9,2.051-28.03
		C104.609,197.44,98.047,202.421,97.623,206.253z M61.686,201.954c-3.694-0.768-4.282,1.677-6.917,2.003
		c-1.14,6.288-4.033,11.862-3.491,19.006c0.782,10.304,0.117,25.477,2.053,36.042c1.409,7.685-1.156,17.214,0.11,25.418
		c1.889,0.257,2.802,1.458,5.276,1.147c1.237-10.78,1.421-21.7,1.07-32.813c-0.002-0.084-1.081-1.814-1.015-2.664
		c0.09-1.159,1.313-1.145,1.093-2.101c-0.256-1.117-1.467-0.896-1.553-2.144c-0.416-6.034,1.088-13.374,0.332-20.116
		c-0.303-2.699-1.545-4.145-1.483-6.379c0.086-3.104,2.361-6.054,1.771-11.091c1.936-0.871,3.621-2.001,3.784-4.702
		C62.057,203.332,61.648,202.859,61.686,201.954z M32.908,213.13c-0.909,7.984-0.033,18.328,0.63,25.956
		c1.559,17.908-1.45,36.754,2.426,45.579c1.503-0.414,1.359,0.769,2.638,0.573c0.921-0.665,0.697-2.51,2.161-2.612
		c-1.028-15.256-0.473-30.643-1.87-47.158c0.339-1.086-0.794-3.691,1.111-3.158c-2.162-5.698-0.8-12.316-1.257-20.144
		c1.361-3.26,3.979-5.219,5.434-8.383C37.543,199.797,33.364,209.122,32.908,213.13z M91.372,232.097
		c0.072,8.787,0.057,17.751,0.604,27.546c0.636,11.373-1.697,20.819,2.237,24.924c3.398-2.944,2.848-10.604,2.371-15.316
		c-0.348-3.44-1.754-6.659-1.952-10.094c-0.684-11.906-0.177-25.337-0.456-36.544c-0.146-5.867,0.176-12.394-2.932-14.875
		c-0.353-0.006-0.706-0.012-1.059-0.018C88.563,216.855,91.313,225.103,91.372,232.097z M64.636,215.771
		c0.289,13.916,1.408,31.337,1.87,47.158c-0.163,5.015-1.606,16.104,2.853,19.639c1.032-3.747,1.293-4.459,1.181-7.393
		c-0.922-24.143-2.134-38.471-2.085-66.226c-1.002,0.102-1.158-0.615-2.109-0.563C65.367,210.615,64.573,212.765,64.636,215.771z
		 M45.758,236.641c1.844,5.48,0.317,9.258-0.218,13.233c2.496,2.087,1.062,5.942,1.414,10.614c0.237,3.154,1.602,6.472,1.458,7.967
		c-0.21,2.182-2.118,2.837-1.667,4.738c0.147,0.62,1.563,1.505,1.553,2.144c-0.015,0.942-2.259,2.756-1.667,4.738
		c0.501,1.677,1.728,2.646,4.183,3.246c3.666-4.242-0.75-10.574,1.32-15.864c-2.409-7.698,0.328-20.137-1.716-24.387
		c0.024-1.051,1.456-0.649,1.094-2.099c-3.958-5.204,2.353-21.604-4.884-24.969C44.84,221.848,46.859,233.113,45.758,236.641z
		 M65.01,289.38c-9.138,0.817-17.893-0.535-24.907,1.178c1.789,5.722,11.902,4.162,17.409,3.994
		c2.923-0.09,6.688-1.211,10.084-1.422c3.152-0.197,7.803,1.208,8.513-2.508C73.9,286.323,69.241,289.002,65.01,289.38z"/>
</g>
</svg>
