<?xml version="1.0" encoding="UTF-8" standalone="no"?>
<!-- Created with Inkscape (http://www.inkscape.org/) -->
<svg
   xmlns:dc="http://purl.org/dc/elements/1.1/"
   xmlns:cc="http://creativecommons.org/ns#"
   xmlns:rdf="http://www.w3.org/1999/02/22-rdf-syntax-ns#"
   xmlns:svg="http://www.w3.org/2000/svg"
   xmlns="http://www.w3.org/2000/svg"
   xmlns:sodipodi="http://sodipodi.sourceforge.net/DTD/sodipodi-0.dtd"
   xmlns:inkscape="http://www.inkscape.org/namespaces/inkscape"
   width="201.16179"
   height="141.95763"
   id="svg2469"
   sodipodi:version="0.32"
   inkscape:version="0.46"
   version="1.0"
   sodipodi:docname="brain.svg"
   inkscape:output_extension="org.inkscape.output.svg.inkscape"
   inkscape:export-filename="C:\Documents and Settings\Monsta\My Documents\university_leiden\multimedia_systems\movie\brain.png"
   inkscape:export-xdpi="90"
   inkscape:export-ydpi="90">
  <defs
     id="defs2471">
    <inkscape:perspective
       sodipodi:type="inkscape:persp3d"
       inkscape:vp_x="0 : 526.18109 : 1"
       inkscape:vp_y="0 : 1000 : 0"
       inkscape:vp_z="744.09448 : 526.18109 : 1"
       inkscape:persp3d-origin="372.04724 : 350.78739 : 1"
       id="perspective2477" />
  </defs>
  <sodipodi:namedview
     id="base"
     pagecolor="#ffffff"
     bordercolor="#666666"
     borderopacity="1.0"
     gridtolerance="10000"
     guidetolerance="10"
     objecttolerance="10"
     inkscape:pageopacity="0.0"
     inkscape:pageshadow="2"
     inkscape:zoom="1"
     inkscape:cx="117.76139"
     inkscape:cy="81.395177"
     inkscape:document-units="px"
     inkscape:current-layer="layer1"
     showgrid="false"
     inkscape:window-width="1280"
     inkscape:window-height="774"
     inkscape:window-x="-4"
     inkscape:window-y="-4" />
  <metadata
     id="metadata2474">
    <rdf:RDF>
      <cc:Work
         rdf:about="">
        <dc:format>image/svg+xml</dc:format>
        <dc:type
           rdf:resource="http://purl.org/dc/dcmitype/StillImage" />
      </cc:Work>
    </rdf:RDF>
  </metadata>
  <g
     inkscape:label="Layer 1"
     inkscape:groupmode="layer"
     id="layer1"
     transform="translate(-474.4191,-69.383372)">
    <path
       style="opacity:1;fill:#000000;fill-opacity:1;fill-rule:nonzero;stroke:none;stroke-width:1;stroke-linecap:round;stroke-linejoin:round;stroke-miterlimit:4;stroke-dasharray:none;stroke-dashoffset:0;stroke-opacity:1"
       d="M 578.86907,72.475332 C 576.69322,71.873972 574.16178,72.921842 571.88515,72.895832 C 569.70355,72.900182 567.50428,72.970972 565.32265,72.927082 C 562.92518,72.885702 560.58974,72.517342 558.19765,72.489582 C 552.34349,73.319642 548.97535,77.395392 546.6664,82.270832 C 546.34849,82.942122 550.2196,81.393072 550.57265,80.739582 C 551.43375,79.145762 552.44093,77.611402 553.69765,76.302082 C 553.76744,76.285612 553.77775,76.288572 553.8539,76.270832 C 556.11131,76.173832 558.36221,76.552682 560.6039,76.770832 C 562.77155,76.895532 564.93353,76.885712 567.1039,76.864582 C 570.88499,76.822382 575.95954,77.190102 578.7289,78.520832 C 577.80598,80.421992 578.65175,82.768942 579.0414,84.708332 C 579.18982,85.447082 582.95364,83.517722 582.8539,82.770832 C 582.62005,81.019562 581.48825,78.561662 582.7914,77.270832 C 585.38779,74.698992 590.07886,75.034232 593.7289,74.489582 C 596.22917,74.080692 598.75678,73.746752 601.26015,73.364582 C 603.11174,72.876482 604.52069,72.995092 606.1664,73.958332 C 607.56756,75.158062 609.13774,76.139742 610.5414,77.333332 C 611.56571,78.414012 612.92734,79.350932 613.4789,80.770832 C 613.79274,81.959542 613.29471,82.870872 612.51015,83.614582 C 611.23243,84.099762 604.21243,87.011162 603.26015,87.270832 C 607.01523,87.015302 609.1188,86.259002 611.3539,87.052082 C 611.62277,87.585612 612.5935,86.415192 613.2289,86.177082 C 614.97781,85.521742 616.80199,85.170062 618.63515,84.864582 C 621.19393,84.518752 623.7936,84.624222 626.3539,84.895832 C 628.97593,85.112092 631.18751,86.142752 633.2289,87.739582 C 634.71512,89.210652 635.14688,91.346622 635.2914,93.364582 C 635.48877,95.160672 635.11617,96.365702 634.07265,97.833332 C 633.68078,98.384472 633.17072,98.860912 632.8539,99.458332 C 632.5921,99.951982 632.51682,100.54883 632.3539,101.08333 C 632.29101,101.28965 633.36528,100.83284 633.5414,100.70833 C 637.47527,97.927522 641.02635,96.057122 640.4789,90.833332 C 640.20525,88.550132 639.50853,86.323402 637.8539,84.645832 C 635.64687,83.007812 633.32637,81.728432 630.51015,81.583332 C 627.77402,81.187572 624.99467,81.330082 622.26015,81.708332 C 620.08613,82.113562 618.04357,82.663472 616.1039,83.364582 C 617.89556,82.037652 619.27251,80.385992 618.63515,77.958332 C 617.9612,76.371122 616.68483,75.315712 615.4789,74.114582 C 614.03426,72.890112 612.37372,71.915202 610.88515,70.739582 C 609.60632,69.810072 608.31725,69.295162 606.88515,69.395832 C 606.40778,69.429392 605.92888,69.526962 605.4164,69.708332 C 602.88072,70.248212 600.26296,70.443942 597.7289,71.020832 C 593.74933,71.769632 589.71146,72.413642 585.8539,73.677082 C 585.49288,73.880592 584.48816,72.816472 584.11018,73.002142"
       id="path2403" />
    <path
       style="opacity:1;fill:#000000;fill-opacity:1;fill-rule:nonzero;stroke:none;stroke-width:1;stroke-linecap:round;stroke-linejoin:round;stroke-miterlimit:4;stroke-dasharray:none;stroke-dashoffset:0;stroke-opacity:1"
       d="M 527.7914,158.48958 C 527.51354,158.50569 527.25152,158.55597 526.9789,158.55208 C 524.56755,158.51765 522.13679,158.53324 519.7289,158.67708 C 514.04628,159.31102 507.66248,161.2177 504.57265,166.45833 C 503.37949,169.32405 504.02575,172.21041 503.76015,175.27083 C 502.93681,184.75798 500.88887,200.13603 503.63515,203.58333 C 504.67862,206.80692 507.41003,208.48117 510.1664,210.11458 C 514.94618,212.39852 520.06999,211.05485 524.88515,209.61458 C 530.37072,207.70725 535.94539,205.81272 540.5414,202.14583 C 540.49188,203.3592 540.70848,204.52128 541.44765,205.52083 C 541.704,205.86748 542.09368,206.10989 542.4164,206.39583 C 544.88614,207.58559 547.31729,206.76387 549.82265,206.23958 C 552.98608,205.7747 556.0021,204.91926 558.9164,203.61458 C 562.11155,201.88655 561.26357,202.36895 566.2914,199.33333 C 566.46611,199.22784 566.62138,199.10252 566.7914,198.98958 C 567.08219,198.86376 567.4441,198.72027 567.9789,198.48958 C 572.24513,197.59689 576.35118,196.53546 580.32265,194.70833 C 584.56958,192.61799 588.5082,190.06323 591.6039,186.58333 C 592.13266,187.63336 593.32326,188.50691 594.19765,189.05208 C 595.67586,189.97373 598.40584,190.3051 600.19765,189.30208 C 604.45035,186.92154 607.81347,184.93262 611.13515,181.30208 C 613.19909,179.33714 613.65948,176.39995 614.0414,173.70833 C 614.24382,171.86316 613.93254,169.85624 613.07265,168.20833 C 611.90427,167.25796 609.46902,167.01336 608.88515,168.73958 C 608.11657,170.48103 609.37477,172.0333 609.82265,173.64583 C 609.86251,175.83087 609.66017,178.11505 608.76015,180.14583 C 607.42649,182.80437 604.94048,184.65783 602.6039,186.39583 C 602.50031,186.49252 602.29252,186.66939 602.0414,186.83333 C 600.96265,187.06728 599.15766,187.26736 598.69765,186.95833 C 596.19039,185.27406 595.54612,181.32321 595.76015,178.33333 C 596.07628,176.8032 596.23053,175.2355 596.32265,173.64583 C 596.32963,173.2999 596.44777,168.93951 596.32265,168.64583 C 595.98939,167.86351 595.14296,167.43436 594.5414,166.83333 C 594.51353,166.80548 594.47235,166.80337 594.4164,166.80208 C 594.02478,166.79307 593.02508,167.36108 592.9164,167.61458 C 592.44538,168.71334 591.79635,169.73512 591.51015,170.89583 C 591.11393,172.50259 591.83095,174.25571 591.4164,175.86458 C 591.09658,179.655 590.38547,183.37337 588.0414,186.48958 C 587.01507,187.79333 585.96652,188.97153 584.7289,190.08333 C 584.25304,190.51081 582.62335,191.3939 583.26015,191.33333 C 583.38989,191.32099 583.51269,191.30769 583.63515,191.27083 C 579.88262,193.04665 576.01599,194.24262 571.88515,194.83333 C 568.10027,196.21271 570.37478,195.26057 564.19765,198.89583 C 563.37986,199.37709 561.26671,200.63921 561.13515,200.80208 C 558.68474,201.85853 556.1754,202.5472 553.51015,202.98958 C 551.08053,203.44638 548.64709,204.5778 546.1664,203.89583 C 545.87553,203.71152 545.52589,203.5855 545.2914,203.33333 C 543.38082,201.27864 544.76556,197.70413 545.1664,195.27083 C 545.57914,194.28105 545.96582,193.24617 546.38515,192.17708 C 547.2255,186.07675 550.17578,180.33097 552.19765,174.58333 C 552.59193,173.75714 552.82549,172.70995 553.51015,172.05208 C 553.64727,171.92032 554.14121,171.59043 554.2914,171.48958 C 554.34169,171.44208 554.41943,171.38444 554.4789,171.33333 C 555.02027,171.26151 555.55908,171.32917 556.1039,171.52083 C 556.17038,171.59355 556.30746,171.64221 556.32265,171.73958 C 556.34663,171.89317 556.25699,172.0242 556.2289,172.17708 C 556.18089,172.43845 556.11738,172.7276 556.07265,172.98958 C 555.9774,173.54739 558.78449,172.28913 559.07265,171.80208 C 559.74531,170.66514 560.31002,170.23175 559.38515,169.11458 C 558.67855,168.79725 557.92195,168.66822 557.1664,168.73958 C 556.91455,168.76337 556.66677,168.78928 556.4164,168.86458 C 554.2273,170.11038 552.56076,170.96538 550.7914,172.55208 C 549.82726,173.41758 549.45195,174.68726 549.07265,175.89583 C 547.59599,182.2958 544.35666,188.04384 542.13515,194.20833 C 540.64271,197.57572 538.5664,200.66282 535.8539,203.17708 C 535.69014,203.30112 535.59444,203.3792 535.44765,203.48958 C 533.3306,204.352 531.10615,204.94806 529.01015,205.86458 C 524.45032,207.34085 519.55436,208.7963 514.9164,206.80208 C 512.35793,205.33526 509.51021,204.09145 508.3539,201.17708 C 506.34439,193.10118 507.18851,183.04106 507.6039,173.45833 C 507.74353,170.23709 507.67319,167.53106 509.26015,164.64583 C 508.76608,164.63409 509.28792,164.15759 509.9789,163.61458 C 510.34617,163.42529 510.70513,163.2211 510.94765,163.14583 C 512.69898,162.60231 513.65278,162.56927 515.4789,162.33333 C 518.83178,161.86002 522.23809,162.56608 525.57265,162.11458 C 526.34906,162.00944 529.50562,160.13102 529.1039,159.45833 C 528.93209,159.17063 528.91259,158.71377 528.6039,158.58333 C 528.35277,158.47722 528.06926,158.47347 527.7914,158.48958 z M 586.2289,189.92708 C 586.30903,189.97312 584.71566,190.7321 584.1664,191.05208 C 584.11571,191.07691 584.06089,191.08998 584.01015,191.11458 C 584.71274,190.78309 585.32262,190.17947 586.07265,189.95833 C 586.15975,189.93265 586.21745,189.9205 586.2289,189.92708 z M 563.7289,199.45833 C 563.33094,199.69128 562.80449,199.98646 562.5414,200.14583 C 562.38607,200.2226 562.22853,200.29088 562.07265,200.36458 C 562.61693,200.05921 563.1812,199.75776 563.7289,199.45833 z"
       id="path2402"
       sodipodi:nodetypes="csccsccccscccsccccssccccccccsccsssssccssccscccscccssccsssscscscccccccsccscsssccsssccssc" />
    <path
       style="opacity:1;fill:#000000;fill-opacity:1;fill-rule:nonzero;stroke:none;stroke-width:1;stroke-linecap:round;stroke-linejoin:round;stroke-miterlimit:4;stroke-dasharray:none;stroke-dashoffset:0;stroke-opacity:1"
       d="M 598.69765,109.89583 C 595.14461,110.15091 591.0952,111.48439 589.1664,114.67708 C 587.69146,118.00449 585.72643,121.13425 584.44765,124.52083 C 582.09069,127.14925 579.17162,130.9727 575.1039,130.14583 C 571.16925,129.75051 566.36269,131.6447 563.1664,128.55208 C 560.59493,126.38355 558.24757,124.02845 555.1664,122.55208 C 552.16067,120.65129 548.64921,120.91534 545.32265,121.20833 C 539.92464,121.19995 534.21589,121.07298 529.38515,123.89583 C 522.43401,127.13248 516.60803,132.14493 513.7914,139.33333 C 513.41639,140.40784 513.32485,141.55646 513.01015,142.64583 C 512.93404,143.21455 512.61108,144.66526 512.82265,145.17708 C 512.90287,145.37111 513.09387,145.48506 513.2289,145.64583 C 513.51449,145.98588 515.32163,144.98538 515.51015,144.58333 C 515.64369,144.29855 515.79314,144.0091 515.88515,143.70833 C 516.0871,143.04825 515.84097,141.99707 516.1039,141.30208 C 516.2283,140.2696 516.19737,139.20683 516.5414,138.20833 C 520.12074,128.2698 531.82459,125.33012 541.2289,124.70833 C 545.19483,124.66506 549.91399,123.86191 552.9164,127.14583 C 555.89262,130.51612 558.56705,134.70618 558.13515,139.39583 C 558.70955,142.61097 556.78886,145.61045 557.57265,148.83333 C 558.29066,150.39269 558.24974,152.68068 557.4164,154.36458 C 557.25629,154.38611 557.15446,154.40165 556.9789,154.42708 C 554.68096,154.75988 553.25217,155.1506 551.82265,155.73958 C 550.17107,154.35733 549.28771,150.14179 549.0414,148.08333 C 547.37796,146.14367 544.90169,151.30966 546.3539,153.45833 C 546.31217,154.9862 546.84689,156.58546 547.82265,157.73958 C 547.19728,158.07497 546.64434,158.35557 545.8539,158.77083 C 544.64037,159.40836 543.43923,160.12097 542.3539,160.95833 C 541.14295,161.89262 540.10324,163.04643 538.9789,164.08333 C 537.9486,165.35026 536.83688,166.53762 535.88515,167.86458 C 525.86918,182.46053 529.46941,186.54019 515.77732,188.48866 C 515.54069,189.04228 521.69516,194.56199 524.8539,192.20833 C 534.79491,186.72696 533.92671,175.2649 539.88515,166.42708 C 540.88306,165.10575 542.02298,163.93141 543.1039,162.67708 C 544.97341,161.05153 546.36351,159.2637 548.4789,158.36458 C 550.82877,157.3658 553.85293,157.40742 556.4164,157.36458 C 557.31911,157.34949 558.16958,157.45139 559.69765,157.55208 C 568.09583,158.64872 575.95088,163.90802 573.26015,173.58333 C 572.8001,174.70948 572.11103,175.75841 571.5414,176.83333 C 568.80631,180.77547 565.3689,184.04108 561.1039,186.30208 C 560.86496,186.42875 561.7464,185.54368 561.4789,185.58333 C 560.20069,185.7728 559.02828,186.4281 557.7914,186.80208 C 556.83738,187.09053 555.84762,187.32446 554.88515,187.58333 C 553.9721,187.82895 555.8253,190.25619 556.76015,190.11458 C 562.96637,189.17452 560.65633,188.1088 566.51015,184.73958 C 569.41122,183.06984 572.06719,180.86207 574.2914,178.36458 C 575.29166,177.24143 576.11009,175.9445 577.01015,174.73958 C 577.58645,173.58446 578.27723,172.48016 578.7289,171.27083 C 578.82255,171.02007 578.9046,170.77183 578.9789,170.52083 C 578.9817,170.51138 578.97613,170.49903 578.9789,170.48958 C 578.98575,170.47645 579.00738,170.47042 579.01015,170.45833 C 579.05403,170.26676 579.12107,170.05786 579.1664,169.86458 C 579.17816,169.81445 579.1858,169.75857 579.19765,169.70833 C 579.20202,169.68803 579.19288,169.666 579.19765,169.64583 C 581.43337,163.60735 579.35167,157.52271 584.6664,153.95833 C 587.89823,152.24873 592.27284,150.10466 602.38515,151.80208 C 606.89157,152.49428 609.6091,154.03601 611.5414,157.92708 C 613.13162,160.82511 612.42436,162.23696 610.94765,164.89583 C 609.65877,166.90966 608.00019,168.46638 606.07265,169.83333 C 604.45061,170.95129 603.38627,171.90317 602.9164,173.83333 C 602.89477,174.42875 602.70867,175.03861 602.07265,175.17708 C 601.02549,175.40504 607.252,174.28248 607.8539,173.39583 C 608.24618,172.81798 608.46527,172.18355 608.57265,171.48958 C 609.17191,170.00092 610.51028,169.01247 611.7914,168.11458 C 613.68195,166.66471 615.29226,164.87814 616.4789,162.80208 C 617.38439,161.00098 617.86083,159.5516 617.6664,158.02083 C 617.81384,158.02764 617.95677,158.04866 618.1039,158.05208 C 618.62782,158.02812 619.14304,158.06971 619.6664,158.08333 C 619.82293,158.1319 620.00913,158.0886 620.19765,158.08333 C 620.25769,158.46398 620.61134,158.70936 621.07265,158.77083 C 622.07629,158.63799 621.25209,158.78414 623.13515,157.30208 C 623.16225,157.28075 623.26537,157.1997 623.2914,157.17708 C 623.75036,156.77809 624.20743,156.38858 624.6664,155.98958 C 624.67382,155.99056 624.66051,155.98021 624.6664,155.95833 C 624.74515,155.88987 624.83764,155.83929 624.9164,155.77083 C 624.89887,155.7602 624.87148,155.75022 624.8539,155.73958 C 624.74376,155.73852 624.6985,155.78684 624.6664,155.83333 C 624.66796,155.77845 624.67983,155.75477 624.6664,155.64583 C 624.2981,154.87057 624.55591,154.99783 624.0414,154.95833 C 623.82973,154.95838 623.65243,154.91156 623.44765,154.95833 C 622.90811,154.97046 622.36251,155.0143 621.82265,154.98958 C 621.07122,155.00916 620.29625,155.10484 619.5414,155.05208 C 618.72526,155.0983 617.91505,155.12832 617.1039,155.02083 C 616.86433,154.98097 616.62697,154.90666 616.38515,154.83333 C 615.58006,153.47357 614.7793,152.08294 613.4164,151.70833 C 613.21689,150.96886 613.07174,150.22241 612.9789,149.45833 C 613.0629,149.46518 613.14484,149.4831 613.2289,149.48958 C 614.88807,149.4846 616.54367,149.57446 618.19765,149.42708 C 620.17568,148.92448 622.2238,148.90862 624.2289,148.61458 C 626.7291,148.19429 632.72964,144.81286 630.5414,143.27083 C 629.89425,142.8148 627.07591,144.47083 626.44765,145.14583 C 625.15383,145.22248 623.8256,145.21522 622.57265,145.58333 C 620.99434,146.00667 619.31952,145.81609 617.69765,145.83333 C 615.29968,145.80309 612.92955,145.44918 610.57265,145.02083 C 608.56182,144.9841 606.55374,145.03586 604.57265,145.42708 C 602.29663,145.98972 600.00197,146.45121 597.69765,146.89583 C 593.52511,147.03695 589.69681,144.94398 587.2914,141.55208 C 586.75158,140.79087 582.14139,143.45903 582.69765,144.20833 C 584.70816,146.91655 587.36974,148.84919 590.4789,149.77083 C 590.15404,149.88353 589.83369,149.99129 589.51015,150.11458 C 586.70501,151.13304 580.50571,153.29183 579.1664,155.98958 C 579.03119,156.26194 578.96412,156.53076 578.9164,156.80208 C 574.52004,158.86328 571.6067,155.82235 567.38515,154.86458 C 565.27728,153.11596 563.49467,150.95299 563.07265,148.14583 C 561.84465,144.42422 563.42746,140.59968 565.1664,137.36458 C 568.99051,133.33664 575.26219,135.03144 579.7289,132.17708 C 582.90341,130.67418 585.78162,128.2954 588.32265,126.33333 C 592.03303,125.82564 595.82343,124.60578 599.57265,125.36458 C 602.13852,126.59309 601.94241,132.99538 605.88515,129.48958 C 609.48978,127.16738 607.02308,120.56222 602.76015,120.83333 C 599.06377,120.8119 595.43069,121.75824 591.7914,122.33333 C 589.90265,122.78884 588.96702,123.59587 590.32265,121.30208 C 591.4453,118.7611 592.6772,114.30574 595.32265,113.80208 C 597.96598,113.87578 603.089,113.57059 602.63515,109.92708 C 601.32459,109.97273 600.00906,109.89793 598.69765,109.89583 z M 629.69765,144.33333 C 629.61281,144.41412 629.33704,144.64639 629.19765,144.70833 C 629.09285,144.7549 628.967,144.81144 628.8539,144.83333 C 629.13685,144.67198 629.41016,144.48614 629.69765,144.33333 z"
       id="path2404"
       sodipodi:nodetypes="ccccccccccsssscccccccsccccssccccccsscccssssssscsssssscccccccssccccscccssssssscscccsccccccsccccccssccscccccccccccccccscc" />
    <path
       style="opacity:1;fill:#000000;fill-opacity:1;fill-rule:nonzero;stroke:none;stroke-width:1;stroke-linecap:round;stroke-linejoin:round;stroke-miterlimit:4;stroke-dasharray:none;stroke-dashoffset:0;stroke-opacity:1"
       d="M 657.69765,144.92708 C 655.39487,144.95856 652.96314,142.73476 654.12872,144.71053 C 654.46328,147.14846 656.07649,152.43325 654.34181,154.41758 C 652.15132,156.86341 648.91307,160.24513 646.17473,162.01869 C 641.59588,164.98431 636.62446,169.35281 632.12703,172.45042 C 626.36641,176.41805 622.22215,178.01136 616.28834,174.90117 C 614.57462,173.12879 614.36821,170.11608 614.48516,167.77871 C 614.24787,166.19455 614.72102,164.64222 613.87224,163.69378 C 611.11341,163.9299 611.02288,166.74263 610.6743,168.8885 C 610.16173,172.02049 609.78337,175.61613 611.64698,178.38727 C 618.2,183.67272 628.33126,177.91608 633.92118,173.48798 C 640.55298,168.23455 646.89379,163.12804 653.88837,158.23429 C 656.45987,156.43514 658.89432,153.56194 658.7223,150.15273 C 658.4459,148.69886 659.68732,145.32877 657.69765,144.92708 z"
       id="path2418"
       sodipodi:nodetypes="cccsscccscsscc" />
    <path
       style="opacity:1;fill:#000000;fill-opacity:1;fill-rule:nonzero;stroke:none;stroke-width:1;stroke-linecap:round;stroke-linejoin:round;stroke-miterlimit:4;stroke-dasharray:none;stroke-dashoffset:0;stroke-opacity:1"
       id="path2420"
       d="M 628.01384,166.70091 C 628.58055,166.37797 629.18015,166.10691 629.71398,165.73212 C 630.06758,165.48386 628.2777,166.64738 628.55818,166.31874 C 629.09156,165.69378 629.88273,165.34338 630.50432,164.80609 C 632.412,163.15712 633.99188,161.2049 635.6269,159.29841 C 637.56295,157.15176 638.66703,154.60592 639.58561,151.9162 C 640.3315,149.63537 640.28651,147.2089 640.22705,144.83827 C 640.22024,142.1831 639.84633,139.58615 639.39386,136.97703 C 638.88778,134.04714 637.32676,131.66798 635.446,129.44807 C 633.3418,127.16035 630.42974,126.46329 627.44793,126.24456 C 624.64086,126.23006 621.83802,126.42163 619.03442,126.54373 C 618.58948,126.71453 617.29408,127.30656 617.69959,127.05615 C 624.34214,122.95446 620.9588,125.30819 619.73442,126.43157 C 618.42791,127.63029 617.43777,128.95218 616.4404,130.40288 C 615.65637,131.78135 614.88141,133.17149 614.31179,134.65393 C 613.9424,135.51953 614.15895,135.09056 613.65418,135.9368 C 613.16336,136.75964 608.79119,138.9777 608.6546,138.02939 L 608.6546,138.02939 C 608.55308,137.32456 608.55217,137.70196 608.71135,136.89865 C 609.31024,135.33511 610.04684,133.84544 610.8976,132.37856 C 613.97281,128.02555 617.7693,123.84606 623.40374,122.90339 C 626.13387,122.90738 628.8686,122.70088 631.59519,122.91859 C 634.78479,123.2907 637.62436,124.25803 639.74805,126.81436 C 641.62328,129.19717 643.0489,131.87034 643.56681,134.89217 C 643.89801,137.58355 644.47812,140.22735 644.207,142.95734 C 644.19732,145.44649 644.25152,147.96447 643.43465,150.35426 C 642.42972,153.10816 641.45303,155.82467 639.40259,158.02479 C 634.97648,163.05101 631.7698,166.27929 625.39534,169.22146 C 624.81198,169.49071 627.45562,167.01901 628.01384,166.70091 z" />
    <path
       style="opacity:1;fill:#000000;fill-opacity:1;fill-rule:nonzero;stroke:none;stroke-width:1;stroke-linecap:round;stroke-linejoin:round;stroke-miterlimit:4;stroke-dasharray:none;stroke-dashoffset:0;stroke-opacity:1"
       id="path2422"
       d="M 615.50955,127.47483 C 613.55403,123.74388 612.12474,123.39415 607.70859,123.23038 C 606.83053,123.19783 605.95573,123.35555 605.07932,123.41814 C 604.41019,123.60261 603.74106,123.78708 603.07194,123.97155 C 602.19087,124.21446 606.02858,120.75377 606.9082,120.5057 L 606.9082,120.5057 C 607.74904,120.26856 608.58986,120.03144 609.43069,119.79431 C 610.30114,119.82113 611.18053,119.74756 612.04207,119.87477 C 616.96104,120.6011 617.43218,121.15964 619.20424,125.42097 C 619.49117,126.11095 615.85645,128.13669 615.50955,127.47483 z"
       sodipodi:nodetypes="cscscccssc" />
    <path
       style="opacity:1;fill:#000000;fill-opacity:1;fill-rule:nonzero;stroke:none;stroke-width:1;stroke-linecap:round;stroke-linejoin:round;stroke-miterlimit:4;stroke-dasharray:none;stroke-dashoffset:0;stroke-opacity:1"
       id="path2424"
       d="M 640.89113,139.49696 C 642.14642,136.4426 643.18945,133.3011 645.45185,130.82787 C 647.90847,128.94089 650.86811,127.00425 654.04781,126.70869 C 656.04209,126.62979 657.94324,126.48096 659.83456,127.18988 C 662.28444,127.79443 663.98614,129.19171 664.47426,131.72443 C 663.84292,132.39385 663.21158,133.06326 662.58025,133.73268 C 662.52232,133.79409 662.23992,133.94088 662.15631,133.95256 L 662.15631,133.95256 C 661.38652,134.06011 660.61673,134.16766 659.84694,134.2752 C 658.4862,132.45804 657.90284,131.03576 655.47905,130.41049 C 653.83722,129.86847 652.07934,129.79419 650.35935,129.87835 C 649.67036,129.97896 649.0176,130.1346 648.3602,130.3701 C 648.08797,130.46763 647.31687,130.85496 647.55307,130.68813 C 648.18009,130.24525 652.06205,127.87029 649.53407,129.5137 C 646.92427,131.74779 645.76437,135.06907 644.36851,138.11339 C 644.09277,138.71477 640.63964,140.10889 640.89113,139.49696 z" />
    <path
       style="opacity:1;fill:#000000;fill-opacity:1;fill-rule:nonzero;stroke:none;stroke-width:1;stroke-linecap:round;stroke-linejoin:round;stroke-miterlimit:4;stroke-dasharray:none;stroke-dashoffset:0;stroke-opacity:1"
       d="M 646.9789,97.677082 C 646.00203,97.667192 645.00987,97.736562 644.0414,97.770832 C 640.14664,98.230482 636.84777,100.20439 633.69765,102.55208 C 630.34632,105.3699 629.88607,108.3132 629.13515,112.48958 C 628.98693,113.31398 633.32514,111.43795 633.4789,110.61458 C 634.15735,106.98113 634.91848,104.19537 637.5414,101.92708 C 638.33787,101.64853 639.1481,101.45369 639.9789,101.30208 C 641.84415,101.10709 643.74289,101.10154 645.6039,101.33333 C 647.32397,101.56587 648.72701,102.32742 649.94765,103.52083 C 650.84851,104.48203 651.8238,105.50346 652.44765,106.67708 C 652.62262,107.24638 652.86439,107.78612 653.1039,108.39583 C 653.60059,109.11868 653.00742,109.54956 653.1039,110.02083 C 652.01362,110.95378 651.07002,112.05484 650.44765,113.33333 C 650.11032,114.0263 649.29527,116.59534 649.07265,117.27083 C 647.88109,120.40148 647.76385,123.66212 647.82265,126.95833 C 648.31548,128.76105 647.53207,129.10589 649.5414,129.17708 C 650.27569,129.2031 652.70398,127.68558 653.1664,127.11458 C 654.28134,125.73787 653.69023,125.95067 653.5414,124.23958 C 653.43792,121.11849 653.61554,118.00496 654.63515,115.02083 C 655.06764,113.83068 655.50979,112.37907 656.1664,111.27083 C 656.3492,110.96229 656.56684,110.67663 656.7914,110.39583 C 658.59545,110.26191 660.41984,110.48759 662.19765,110.86458 C 664.66018,111.38597 667.29518,111.62444 668.7289,113.95833 C 670.17917,116.91971 671.25305,119.92586 670.9789,123.30208 C 670.95115,127.53124 670.78834,131.78596 669.19765,135.77083 C 668.26462,138.40065 667.22736,140.98935 665.5414,143.23958 C 664.73801,144.30443 663.87274,145.27562 662.9164,146.20833 C 662.86362,146.25981 662.75066,146.35865 662.6664,146.42708 C 659.67953,146.70963 657.75018,144.9194 655.57265,142.61458 C 655.0228,142.03261 652.43658,142.717 652.94765,143.33333 C 655.36102,146.24379 656.22188,149.86742 660.1664,149.45833 C 664.36256,147.97633 667.84265,145.14377 670.3539,141.55208 C 672.0202,139.24952 673.00925,136.5618 673.8539,133.86458 C 675.35879,129.80224 675.46763,125.4282 675.5414,121.14583 C 675.79997,117.67775 674.75921,114.46991 673.2914,111.39583 C 671.98187,108.69517 669.24844,108.21307 666.6039,107.48958 C 664.3364,106.92097 661.97497,106.51972 659.63515,106.70833 C 659.32692,106.78699 659.00821,106.89231 658.69765,106.98958 C 658.41818,106.74035 657.98224,106.56028 657.88515,105.80208 C 657.67878,105.15546 657.54263,104.4783 657.19765,103.89583 C 656.37035,102.75384 655.51921,101.63495 654.5414,100.61458 C 653.22377,99.315712 651.74921,98.324602 649.88515,97.989582 C 648.93436,97.782732 647.95577,97.686972 646.9789,97.677082 z M 664.38515,145.89583 C 664.20487,146.00046 664.23688,146.00371 663.88515,146.20833 C 663.84236,146.21934 663.80252,146.22933 663.76015,146.23958 C 663.97818,146.12158 664.20494,145.99543 664.38515,145.89583 z"
       id="path2426"
       sodipodi:nodetypes="cccsscccccccsccssccscsccccscssccccccccccccccssc" />
    <path
       style="opacity:1;fill:#000000;fill-opacity:1;fill-rule:nonzero;stroke:none;stroke-width:1;stroke-linecap:round;stroke-linejoin:round;stroke-miterlimit:4;stroke-dasharray:none;stroke-dashoffset:0;stroke-opacity:1"
       id="path2430"
       d="M 510.26336,162.84055 C 509.06783,159.54359 507.75,156.16957 508.85072,152.69349 C 510.7062,149.10145 513.2166,145.88272 515.48071,142.53982 C 517.16329,140.99422 517.65675,137.79154 519.45487,136.38487 C 519.76662,136.14099 520.13013,135.97171 520.46775,135.76513 C 520.9333,135.48028 522.81917,134.66212 523.36394,134.69551 L 523.36394,134.69551 C 523.5708,134.70819 523.84008,134.58493 523.98454,134.73354 C 524.29047,135.04828 523.59539,135.52087 523.38057,135.90363 C 522.48391,137.50136 521.81009,139.23422 520.64806,140.68059 C 518.42857,144.0301 515.96329,147.2163 513.91646,150.67641 C 512.32649,153.87199 513.53985,157.39562 514.54196,160.61319 C 514.79553,161.42733 510.55404,163.64218 510.26336,162.84055 z" />
    <path
       style="opacity:1;fill:#000000;fill-opacity:1;fill-rule:nonzero;stroke:none;stroke-width:1;stroke-linecap:round;stroke-linejoin:round;stroke-miterlimit:4;stroke-dasharray:none;stroke-dashoffset:0;stroke-opacity:1"
       id="path2432"
       d="M 539.21491,163.83521 C 542.07185,160.73499 543.56616,157.10413 544.54155,152.98248 C 545.00875,150.57176 544.68957,148.44104 543.15914,146.51444 C 541.2507,144.27065 538.87799,143.41253 536.0347,143.10308 C 533.49877,142.98202 531.10206,143.28452 528.61011,142.73463 C 527.78459,142.55247 531.4502,139.81917 532.28261,139.67167 L 532.28261,139.67167 C 535.11854,139.16916 537.93427,138.94746 540.80946,139.33961 C 543.7654,139.89274 546.14068,141.2468 547.96284,143.69462 C 549.22879,146.13526 549.48258,148.60395 548.64364,151.26408 C 547.14823,156.0516 545.75741,158.37999 542.3953,162.06455 C 541.99496,162.50328 538.81241,164.27196 539.21491,163.83521 z"
       sodipodi:nodetypes="ccccscccccsc" />
    <path
       style="opacity:1;fill:#000000;fill-opacity:1;fill-rule:nonzero;stroke:none;stroke-width:1;stroke-linecap:round;stroke-linejoin:round;stroke-miterlimit:4;stroke-dasharray:none;stroke-dashoffset:0;stroke-opacity:1"
       d="M 570.9164,80.333332 C 566.3358,80.488942 561.84985,81.844742 557.94765,84.270832 C 552.31322,87.360532 546.14681,90.867232 543.01015,96.677082 C 542.27442,93.794952 539.37431,91.934512 536.4164,92.177082 C 533.53852,92.458872 530.73038,93.756732 528.7914,95.927082 C 528.27669,96.365952 526.59384,98.133172 528.3539,96.989582 C 531.12561,95.462362 534.72988,94.936242 537.57265,96.552082 C 539.34904,97.770992 540.45131,100.37339 538.8539,102.14583 C 538.169,104.25912 537.33062,106.23217 535.57265,107.70833 C 533.55792,109.91078 531.24482,111.90357 529.1664,113.98958 C 528.14111,114.76234 526.77225,116.51343 526.4789,118.17708 C 525.83075,120.47679 525.65249,122.90719 525.51015,125.27083 C 527.40623,125.16508 530.11733,123.93673 529.6664,121.58333 C 529.96535,118.055 531.25828,114.35105 534.3539,112.33333 C 536.71345,110.34902 539.62032,109.16622 542.4164,107.98958 C 546.22621,106.7045 548.53261,107.86439 552.57265,108.89583 C 553.65111,109.17117 558.07949,111.10398 562.86278,113.46537 C 559.14428,109.05515 550.05405,104.43199 546.6664,103.83333 C 545.22023,103.34261 542.99689,104.78336 542.32265,104.67708 C 542.89261,102.18756 543.72046,99.624862 545.6039,97.802082 C 554.61696,93.102232 567.92432,102.51493 576.4164,97.145832 C 578.87266,96.003142 576.40565,93.331852 574.44765,94.177082 C 558.51077,90.663152 542.32772,98.044402 555.51015,88.552082 C 560.06431,85.631562 562.92798,84.227072 568.4164,84.677082 C 571.83194,84.227292 574.98599,85.292202 578.07265,86.583332 C 581.27677,87.798202 583.6702,90.762472 584.5414,94.020832 C 583.55946,96.982932 582.26478,100.70592 579.57265,102.45833 C 575.88999,103.84233 574.55453,107.90914 568.9789,108.83333 C 578.20144,112.50186 577.42002,111.19371 582.51015,103.61458 C 584.59636,100.80316 586.88459,97.786712 590.38515,96.677082 C 593.20891,95.702422 596.2391,95.640332 599.1039,94.864582 C 604.37259,94.313272 609.92743,95.854952 614.1664,99.020832 C 616.98286,101.09992 618.78531,104.88137 617.3539,108.30208 C 616.35845,112.70216 614.29844,114.16895 611.5414,117.67708 C 610.52425,118.75453 607.01097,121.1102 610.44765,119.14583 C 610.68472,119.02882 610.8289,118.97374 610.88515,118.95833 C 610.66809,119.17155 607.73195,120.82591 607.57265,120.33333 C 603.98188,121.86002 599.51401,119.83666 596.3539,122.11458 C 593.85667,124.13263 599.46831,122.80004 600.57265,123.11458 C 605.15056,123.22424 609.52692,121.453 612.9789,118.48958 C 616.57439,115.85299 618.24944,114.21899 620.26015,110.36458 C 621.45761,106.9846 623.1174,103.03277 621.01015,99.645832 C 617.97909,94.217692 611.48896,91.969702 605.63515,91.270832 C 602.30379,90.872912 599.18651,92.317992 595.9789,92.958332 C 593.55948,92.110722 590.21949,90.388592 590.8539,87.302082 C 590.15535,84.339032 595.14802,82.366222 594.88515,80.708332 C 591.5805,80.924152 588.77548,84.310402 586.88515,85.489582 C 584.70228,82.863622 581.25008,81.842282 578.19765,80.645832 C 576.45371,80.217382 574.6624,80.351432 572.88515,80.333332 C 572.22872,80.305552 571.57077,80.311102 570.9164,80.333332 z"
       id="path2438"
       sodipodi:nodetypes="cccccccccccccccscccccccccccccccccccsccccccsccccccc" />
    <path
       style="opacity:1;fill:#000000;fill-opacity:1;fill-rule:nonzero;stroke:none;stroke-width:1;stroke-linecap:round;stroke-linejoin:round;stroke-miterlimit:4;stroke-dasharray:none;stroke-dashoffset:0;stroke-opacity:1"
       id="path2458"
       d="M 618.97486,111.47349 C 618.0597,114.15628 612.70848,118.39207 618.47346,121.75887 C 619.67988,122.46343 620.47463,122.84336 621.48652,122.80668 C 623.26765,122.72831 625.04858,122.66111 626.83076,122.61373 C 628.68466,122.71147 630.45126,122.60198 632.26125,122.23338 C 634.14997,121.9738 635.9241,121.36314 637.83218,121.23126 C 637.92065,121.57172 641.1436,120.12938 640.71849,120.37625 C 634.06909,124.23771 636.955,122.71269 638.33733,121.12798 C 639.39913,119.76471 639.45439,118.12139 639.3486,116.471 C 639.2234,115.49691 639.36839,114.51984 638.70051,113.75445 C 637.92659,112.9212 638.21644,113.42956 637.93364,112.17521 C 637.74494,111.33816 641.31485,109.26816 642.08133,109.65388 L 642.08133,109.65388 C 643.26473,110.24941 642.75648,109.87408 643.63113,110.74513 C 644.49128,111.88173 644.32542,112.69418 644.36302,114.06617 C 644.41609,115.89546 644.52383,117.70495 643.5286,119.33885 C 641.1158,122.6204 637.5322,124.29299 633.61531,124.86421 C 631.758,125.19852 629.94161,125.72713 628.05871,125.9236 C 626.23539,126.2316 624.40053,126.15309 622.5567,126.16816 C 620.78473,126.17743 619.01428,126.28216 617.24254,126.28256 C 615.75675,126.14137 614.44363,125.57525 614.66966,123.82745 C 615.05238,120.73669 609.03981,122.58228 610.25369,119.73757 C 610.54047,119.0655 619.21078,110.78192 618.97486,111.47349 z"
       sodipodi:nodetypes="csccccscccscccscccsccsc" />
    <path
       style="opacity:1;fill:#000000;fill-opacity:1;fill-rule:nonzero;stroke:none;stroke-width:1;stroke-linecap:round;stroke-linejoin:round;stroke-miterlimit:4;stroke-dasharray:none;stroke-dashoffset:0;stroke-opacity:1"
       d="M 509.1223,203.66176 C 505.79822,205.63396 503.64778,209.36171 499.76805,210.41985 C 496.94804,211.31484 493.67538,210.85084 491.44252,208.82191 C 489.70316,207.42798 488.30438,205.61033 487.63778,203.46208 C 486.94795,201.3426 486.25673,199.18952 486.27924,196.93049 C 486.16964,194.26194 486.57446,191.56129 487.46758,189.04743 C 488.09338,186.63132 491.01085,180.65642 490.66081,178.10671 C 490.56191,176.29879 489.67043,175.76085 490.25608,174.12283 C 490.85617,172.53337 492.96998,175.15711 494.34398,174.73403 C 495.11224,174.52422 496.73003,174.36163 497.06334,174.14028 C 495.59978,174.46524 495.85724,176.42136 494.99396,177.40052 C 494.2116,178.72847 494.85309,180.28552 494.5904,181.72272 C 494.30107,183.79445 493.62334,185.80356 492.94949,187.77866 C 492.25145,189.6879 492.03064,191.77344 492.02841,193.80345 C 492.04895,195.61422 492.20888,197.43982 492.77985,199.16063 C 493.01137,201.50378 494.24572,203.63799 496.02835,205.14874 C 497.0974,206.655 499.28283,206.83215 500.85411,206.04641 C 502.79688,205.2644 504.53,204.06765 506.34435,203.04084 C 505.55093,203.69557 504.06322,204.2873 503.60077,204.85872 C 505.48357,204.56205 507.29377,203.87367 509.17685,203.60496 L 509.1223,203.66179 L 509.1223,203.66176 z"
       id="path2462"
       sodipodi:nodetypes="cccccccccccccccccccccc" />
    <path
       style="opacity:1;fill:#000000;fill-opacity:1;fill-rule:nonzero;stroke:none;stroke-width:1;stroke-linecap:round;stroke-linejoin:round;stroke-miterlimit:4;stroke-dasharray:none;stroke-dashoffset:0;stroke-opacity:1"
       d="M 498.1664,154.08333 C 497.44807,154.09786 496.70987,154.24186 495.94765,154.48958 C 491.9312,156.07339 488.03228,158.10619 484.6664,160.83333 C 482.65433,162.47292 480.71566,164.16818 479.7289,166.64583 C 478.94302,168.61401 478.41655,170.52535 478.6664,172.67708 C 478.65811,174.79663 478.69327,176.94976 479.19765,179.02083 C 479.50032,180.39056 479.60955,181.74616 479.6664,183.14583 C 479.79061,185.28391 479.223,187.37261 478.69765,189.42708 C 477.99506,192.28961 477.39117,195.19398 478.4789,198.05208 C 478.71244,198.44382 478.88716,198.90553 479.19765,199.23958 C 481.02112,201.20143 485.6463,202.9485 487.6664,202.36458 C 488.44485,202.13958 488.52697,195.1132 487.73794,195.29764 C 486.67627,199.35418 481.40688,201.17356 481.23702,196.13955 C 481.14278,193.34662 482.86289,190.01925 483.6039,187.36458 C 484.34354,185.19746 484.72357,182.98213 484.88515,180.70833 C 485.01243,179.1994 484.77468,177.75684 484.4164,176.30208 C 483.98258,174.28652 483.95173,172.25929 483.94765,170.20833 C 483.78351,168.10536 484.50923,166.31013 485.32265,164.42708 C 486.36812,162.15032 488.30158,160.69145 490.2289,159.20833 C 491.81777,158.39173 493.38109,157.4198 495.13515,157.55208 C 495.44094,157.53079 495.76685,157.51085 496.07265,157.48958 C 497.01061,157.4243 500.69616,156.12311 500.4789,155.20833 C 500.4234,154.97463 500.37815,154.75454 500.32265,154.52083 C 499.58796,154.19966 498.88473,154.0688 498.1664,154.08333 z"
       id="path2464"
       sodipodi:nodetypes="cccscccccsscscccccccsscc" />
    <path
       style="opacity:1;fill:#000000;fill-opacity:1;fill-rule:nonzero;stroke:none;stroke-width:1;stroke-linecap:round;stroke-linejoin:round;stroke-miterlimit:4;stroke-dasharray:none;stroke-dashoffset:0;stroke-opacity:1"
       id="path2466"
       d="M 480.96395,165.61369 C 478.42472,164.4155 476.86238,161.5394 475.68742,158.68085 C 475.27063,157.66682 474.60713,154.9549 474.52589,154.52591 C 474.06881,152.11202 475.15082,150.7262 476.40737,148.59666 C 479.51566,144.84457 484.44264,143.19588 488.59562,140.78267 C 479.146,146.38323 490.26944,138.86718 491.55514,138.00798 C 492.12994,137.62385 495.72094,136.31179 495.29169,136.85371 L 495.29169,136.85371 C 492.31888,140.60668 488.11472,142.84402 484.02216,145.25841 C 483.46205,145.57674 482.90407,145.89885 482.34182,146.21338 C 478.33192,148.45664 483.16247,145.67688 484.88512,144.6677 C 485.48706,144.31507 483.67981,145.38304 483.14668,145.83297 C 482.93212,146.01405 482.73076,146.2102 482.52279,146.39882 C 479.68028,149.00188 477.81337,152.77058 480.67219,156.27039 C 482.19068,158.12934 485.54555,159.68433 487.91949,158.89849 C 488.83825,158.59435 481.8392,166.02669 480.96395,165.61369 z"
       sodipodi:nodetypes="cssccscccssscssc" />
    <path
       style="opacity:1;fill:#000000;fill-opacity:1;fill-rule:nonzero;stroke:none;stroke-width:1;stroke-linecap:round;stroke-linejoin:round;stroke-miterlimit:4;stroke-dasharray:none;stroke-dashoffset:0;stroke-opacity:1"
       id="path2468"
       d="M 512.67115,146.36939 C 509.42626,143.74729 505.78612,142.14389 501.59316,142.39066 C 498.22211,143.35534 495.12919,145.11825 492.03702,146.74175 C 492.06872,146.47973 492.10042,146.2177 492.13212,145.95568 C 492.15437,145.77177 492.7377,145.33894 492.88559,145.22738 L 492.88559,145.22738 C 493.95215,144.42284 495.01871,143.61831 496.08527,142.81378 C 499.16736,141.11053 502.36746,139.26504 505.90919,138.81997 C 510.033,139.05791 513.60039,140.97987 516.64497,143.73395 C 517.27007,144.29942 513.32677,146.89918 512.67115,146.36939 z" />
    <path
       style="opacity:1;fill:#000000;fill-opacity:1;fill-rule:nonzero;stroke:none;stroke-width:1;stroke-linecap:round;stroke-linejoin:round;stroke-miterlimit:4;stroke-dasharray:none;stroke-dashoffset:0;stroke-opacity:1"
       id="path2470"
       d="M 519.77819,131.00842 C 517.45043,128.44673 516.21873,127.47376 512.94654,126.19632 C 511.08698,125.69568 509.10073,125.6953 507.24381,126.18576 C 506.08865,126.38463 504.99162,126.83891 503.94642,127.35925 C 503.50003,127.58149 502.20066,128.32388 502.63412,128.07738 C 506.90233,125.65006 507.14425,125.46044 505.07344,126.80396 C 501.73967,129.10254 498.45876,131.79307 494.62406,129.87558 C 493.45796,128.65543 492.85787,126.95403 492.60213,125.30361 C 492.2899,120.51882 500.23102,118.32032 503.14767,116.99563 C 503.39342,116.88402 502.16232,117.80919 502.04603,118.05275 L 502.04603,118.05275 C 501.25655,119.70633 497.69249,120.14985 497.99253,122.62944 C 498.12627,123.94705 498.45238,125.50611 499.40952,126.44598 C 500.28657,126.80869 501.01801,126.87703 501.9646,126.69587 C 502.23295,126.64451 502.98123,126.32419 502.75432,126.47637 C 501.30606,127.44759 496.62083,130.05009 499.5669,128.40666 C 503.18176,125.88731 507.10002,123.28108 511.50342,122.45189 C 513.43987,122.26088 515.38833,122.34359 517.19248,123.15274 C 520.06637,124.69214 521.46678,126.24692 523.60475,128.63483 C 524.13573,129.22788 520.31351,131.59755 519.77819,131.00842 z"
       sodipodi:nodetypes="cccsscccsccccsscccsc" />
    <path
       style="opacity:1;fill:#000000;fill-opacity:1;fill-rule:nonzero;stroke:none;stroke-width:1;stroke-linecap:round;stroke-linejoin:round;stroke-miterlimit:4;stroke-dasharray:none;stroke-dashoffset:0;stroke-opacity:1"
       d="M 515.3539,107.61458 C 514.14345,107.63064 512.94006,107.77532 511.76015,107.98958 C 507.7777,109.13409 502.63858,111.2531 499.02816,113.22095 C 494.16481,115.87171 491.38611,119.92872 489.30941,124.65845 C 489.04565,125.28249 493.98057,123.57544 494.26015,122.95833 C 494.97404,118.68405 496.88217,116.26756 500.2289,114.05208 C 502.67029,112.43592 505.58335,111.63003 508.44765,110.92708 C 510.5514,110.55045 512.73739,110.67313 514.82265,111.11458 C 516.30009,111.67679 517.41086,112.69015 517.63515,114.27083 C 517.75766,115.74851 517.20949,115.96061 516.19765,116.86458 C 516.1812,116.87957 516.15155,116.88084 516.13515,116.89583 C 516.07739,116.95159 516.11914,116.91347 516.07265,116.95833 C 515.91132,117.0934 515.7481,117.24778 515.57265,117.36458 C 515.50636,117.40872 515.35648,117.41528 515.38515,117.48958 C 516.45923,120.27204 519.11386,118.04154 520.88515,115.92708 C 522.90523,115.84615 524.7581,117.01554 526.51015,117.95833 C 529.19244,119.67749 528.0196,121.67505 527.1039,124.20833 C 526.76667,125.1413 531.90987,123.06157 532.2914,122.14583 C 533.58443,119.04228 534.42875,116.70277 531.2914,114.55208 C 529.13274,113.4803 526.79085,112.1363 524.32265,112.27083 C 523.75606,112.35024 523.21207,112.49544 522.6664,112.67708 C 522.65304,112.3941 522.62331,112.09948 522.5414,111.77083 C 522.04125,109.93682 520.70168,108.61504 518.94765,107.89583 C 517.76442,107.69111 516.56435,107.59852 515.3539,107.61458 z"
       id="path2472"
       sodipodi:nodetypes="ccsccscccsssssccsscccccc" />
    <path
       style="opacity:1;fill:#000000;fill-opacity:1;fill-rule:nonzero;stroke:none;stroke-width:1;stroke-linecap:round;stroke-linejoin:round;stroke-miterlimit:4;stroke-dasharray:none;stroke-dashoffset:0;stroke-opacity:1"
       d="M 543.26015,76.864582 C 541.3359,77.013582 539.60342,78.089352 537.1664,79.677082 C 535.36508,80.884902 533.99612,82.519122 532.44765,84.020832 C 530.37081,86.135812 528.59275,88.496462 526.69765,90.770832 C 526.40587,91.061422 526.30165,91.138122 526.13515,91.302082 C 526.07201,91.318542 525.99773,91.356772 525.94765,91.364582 C 525.59595,91.419452 525.23939,91.423412 524.88515,91.458332 C 524.68121,91.489732 524.49158,91.517402 524.2914,91.552082 C 524.17652,91.558912 524.06237,91.576692 523.94765,91.583332 C 523.89269,91.586512 523.82263,91.600182 523.7289,91.645832 C 523.71787,91.651202 523.7091,91.671222 523.69765,91.677082 C 519.85726,92.421972 516.65256,93.824982 513.32265,96.458332 C 509.69899,99.648322 508.18369,104.80053 508.2289,109.67708 C 508.2363,110.4757 511.95957,109.30171 512.2914,107.73958 C 513.33509,93.794642 521.62992,93.996242 527.3539,92.552082 C 529.0195,92.131852 530.62935,91.455302 532.26015,90.895832 C 532.73364,90.715922 534.82905,88.751572 534.3539,88.927082 C 532.96303,89.440832 531.48551,89.740522 530.1664,90.427082 C 530.57202,90.048112 530.9566,89.652212 531.32265,89.239582 C 533.15233,86.880832 534.99708,84.575922 537.13515,82.489582 C 537.94656,81.750302 538.69626,80.945752 539.4789,80.208332 C 539.68596,80.170862 539.90597,80.146442 540.1039,80.145832 C 541.0626,80.142862 541.93315,80.379462 542.7914,80.770832 C 545.60629,82.016942 546.62359,84.130022 547.44765,85.208332 C 547.37586,85.423312 547.33214,85.606002 547.38515,85.708332 C 548.67417,88.196292 548.01666,86.938792 549.3539,89.552082 C 549.64551,90.121942 552.62123,88.502882 552.57265,87.864582 C 552.32615,84.625162 552.0419,84.177132 550.8539,81.583332 C 550.84142,81.361272 550.81819,81.084772 550.82265,80.927082 C 550.21051,79.332572 548.69621,78.249502 547.13515,77.677082 C 545.64114,77.027232 544.4147,76.775182 543.26015,76.864582 z"
       id="path2476"
       sodipodi:nodetypes="ccccssssssccscscsccccsccssscccc" />
    <path
       style="opacity:1;fill:#000000;fill-opacity:1;fill-rule:nonzero;stroke:none;stroke-width:1;stroke-linecap:round;stroke-linejoin:round;stroke-miterlimit:4;stroke-dasharray:none;stroke-dashoffset:0;stroke-opacity:1"
       d="M 635.26015,79.052082 C 633.90909,79.047842 632.58227,79.282502 631.82265,80.145832 C 631.10332,80.755882 629.62918,82.488412 631.1664,82.677082 C 631.63802,82.587562 632.07562,82.455572 632.4789,82.333332 C 632.30959,82.430792 632.20019,82.501742 632.01015,82.614582 C 632.79184,82.061652 634.1892,82.178292 635.13515,82.239582 C 637.18379,82.404352 638.80909,83.920212 639.8539,85.583332 C 640.82554,87.185112 642.47812,88.225982 644.01015,89.302082 C 645.37219,89.912582 646.4439,92.380182 646.88515,93.458332 C 648.4974,95.734562 648.53724,97.293812 648.76015,100.02083 C 649.3431,100.29679 650.32144,99.616702 650.88515,99.302082 C 652.31004,98.485552 651.53155,96.645752 651.51015,95.395832 C 650.95823,92.675902 650.08738,90.020022 648.57265,87.739582 C 647.83274,86.501082 646.7685,85.527652 645.69765,84.583332 C 644.62949,83.657052 643.47281,82.778022 642.63515,81.614582 C 641.1752,79.783982 640.21679,79.431742 637.6039,79.239582 C 636.88247,79.145142 636.07079,79.054622 635.26015,79.052082 z"
       id="path2486" />
    <path
       style="opacity:1;fill:#000000;fill-opacity:1;fill-rule:nonzero;stroke:none;stroke-width:1;stroke-linecap:round;stroke-linejoin:round;stroke-miterlimit:4;stroke-dasharray:none;stroke-dashoffset:0;stroke-opacity:1"
       id="path2488"
       d="M 482.37909,144.37567 C 481.21029,141.00781 480.4334,136.91208 481.06252,133.37601 C 481.28452,131.40498 482.16355,129.80207 483.4922,128.37627 C 485.89504,126.21033 488.89093,124.73426 491.74235,123.25893 C 493.07623,122.8329 495.03814,122.15505 496.32607,122.95715 C 496.99013,123.3707 493.6692,125.58623 492.90843,125.76852 L 492.90843,125.76852 C 491.28413,126.15774 489.54623,126.00237 488.03683,126.8317 C 486.23904,127.75065 486.42349,127.67388 490.90345,125.08984 C 491.15083,124.94715 490.42574,125.40326 490.18036,125.54936 C 489.45336,125.98223 488.64788,126.27915 488.05429,126.90877 C 486.51999,128.24329 485.24713,129.72927 484.81028,131.77918 C 484.5363,132.71047 484.28653,133.39867 484.20932,134.39012 C 484.03336,136.64958 484.90966,140.51883 485.57291,142.6497 C 485.76363,143.26246 482.58951,144.98196 482.37909,144.37567 z"
       sodipodi:nodetypes="ccccscccssccssc" />
    <path
       style="opacity:1;fill:#000000;fill-opacity:1;fill-rule:nonzero;stroke:none;stroke-width:1;stroke-linecap:round;stroke-linejoin:round;stroke-miterlimit:4;stroke-dasharray:none;stroke-dashoffset:0;stroke-opacity:1"
       id="path2640"
       d="M 515.85519,108.89409 C 517.73333,106.71441 520.22953,105.02165 522.95049,104.07673 C 524.50959,103.57657 525.6266,104.47728 526.75924,105.42542 C 527.02799,105.70685 527.3481,106.01567 527.78068,105.87213 C 527.87589,105.84054 528.11812,105.65616 528.02878,105.70177 C 527.29195,106.07789 526.56711,106.47705 525.83627,106.86468 C 526.53245,106.11956 527.06705,105.17721 527.35468,104.19485 C 527.36347,104.15185 527.3466,104.03864 527.38105,104.06584 C 527.92651,104.49641 526.21957,104.35412 526.172,104.32069 C 526.01031,104.20704 526.02561,103.95352 525.95241,103.76994 C 525.85613,103.52847 526.84873,102.92139 527.09815,102.84811 L 527.09815,102.84811 C 527.56581,102.71068 528.02256,102.5284 528.50111,102.43585 C 528.70846,102.39576 528.92323,102.45454 529.13442,102.45431 C 529.52116,102.45388 530.34917,102.39243 530.15095,103.04661 C 529.78891,104.07634 529.34112,105.07896 528.70727,105.97342 C 527.10503,106.94665 525.67702,108.70043 524.21878,107.07467 C 523.26171,106.18874 522.23419,105.56279 520.89731,105.97171 C 519.73804,106.38695 519.74455,106.44614 521.48557,105.39444 C 521.79429,105.20796 520.87361,105.7768 520.57628,105.98095 C 519.97178,106.39599 519.39651,106.82791 518.86663,107.33674 C 518.6158,107.57761 518.39193,107.84508 518.15457,108.09926 C 517.86104,108.41359 515.57445,109.2199 515.85519,108.89409 z" />
    <path
       style="opacity:1;fill:#000000;fill-opacity:1;fill-rule:nonzero;stroke:none;stroke-width:1;stroke-linecap:round;stroke-linejoin:round;stroke-miterlimit:4;stroke-dasharray:none;stroke-dashoffset:0;stroke-opacity:1"
       id="path2642"
       d="M 527.24677,159.24305 C 526.84424,159.76506 529.89538,158.0135 529.27342,158.39909 C 528.91344,158.62227 528.56799,158.9634 528.14489,158.983 C 527.84979,158.99668 528.61854,158.62692 528.82905,158.41968 C 529.35982,157.89717 529.36633,157.76976 529.69492,157.13803 C 530.08386,156.25312 530.35421,155.29202 530.09233,154.33847 C 529.40119,153.11884 529.0207,154.08825 528.40829,153.96021 C 528.29443,153.93641 528.41868,153.7278 528.42387,153.61158 C 528.42463,153.59454 528.4791,153.55414 528.49289,153.54408 L 528.49289,153.54408 C 529.80122,152.58938 531.78311,150.50554 532.70968,152.98244 C 532.94931,154.07086 532.64319,155.17427 532.19941,156.17654 C 532.08095,156.429 531.99002,156.69631 531.84401,156.93391 C 530.6382,158.89619 527.62119,160.18034 525.45077,160.84459 C 525.04399,160.96909 527.50653,158.9062 527.24677,159.24305 z" />
    <path
       style="opacity:1;fill:#000000;fill-opacity:1;fill-rule:nonzero;stroke:none;stroke-width:1;stroke-linecap:round;stroke-linejoin:round;stroke-miterlimit:4;stroke-dasharray:none;stroke-dashoffset:0;stroke-opacity:1"
       d="M 497.53566,162.63381 C 495.90598,162.69624 494.06122,166.02696 492.9789,166.95833 C 494.22384,166.93426 495.29009,166.24052 496.2914,165.52083 C 496.97925,166.12472 498.09454,166.42748 499.0414,166.67708 C 499.96512,165.36949 499.8902,164.86183 499.3539,163.33333 C 499.18919,163.21811 497.76847,162.62489 497.53566,162.63381 z"
       id="path2644"
       sodipodi:nodetypes="cccccc" />
    <path
       style="opacity:1;fill:#000000;fill-opacity:1;fill-rule:nonzero;stroke:none;stroke-width:1;stroke-linecap:round;stroke-linejoin:round;stroke-miterlimit:4;stroke-dasharray:none;stroke-dashoffset:0;stroke-opacity:1"
       id="path2648"
       d="M 510.69694,115.39469 C 509.84366,116.1658 509.10779,117.05243 508.33033,117.89736 C 508.03627,118.21694 505.85863,119.13099 506.01798,118.727 L 506.01798,118.727 C 506.45354,117.62271 506.91007,117.14187 507.77569,116.32393 C 508.16958,115.95175 511.099,115.03135 510.69694,115.39469 z" />
  </g>
</svg>
