<?xml version="1.0" encoding="UTF-8" standalone="no"?>
<!-- Created with Inkscape (http://www.inkscape.org/) -->

<svg
   xmlns:dc="http://purl.org/dc/elements/1.1/"
   xmlns:cc="http://creativecommons.org/ns#"
   xmlns:rdf="http://www.w3.org/1999/02/22-rdf-syntax-ns#"
   xmlns:svg="http://www.w3.org/2000/svg"
   xmlns="http://www.w3.org/2000/svg"
   xmlns:xlink="http://www.w3.org/1999/xlink"
   xmlns:sodipodi="http://sodipodi.sourceforge.net/DTD/sodipodi-0.dtd"
   xmlns:inkscape="http://www.inkscape.org/namespaces/inkscape"
   version="1.0"
   width="746.30701"
   height="193.74725"
   id="svg5655"
   inkscape:version="0.48.4 r9939"
   sodipodi:docname="inflation.svg">
  <metadata
     id="metadata86">
    <rdf:RDF>
      <cc:Work
         rdf:about="">
        <dc:format>image/svg+xml</dc:format>
        <dc:type
           rdf:resource="http://purl.org/dc/dcmitype/StillImage" />
      </cc:Work>
    </rdf:RDF>
  </metadata>
  <sodipodi:namedview
     pagecolor="#ffffff"
     bordercolor="#666666"
     borderopacity="1"
     objecttolerance="10"
     gridtolerance="10"
     guidetolerance="10"
     inkscape:pageopacity="0"
     inkscape:pageshadow="2"
     inkscape:window-width="1199"
     inkscape:window-height="656"
     id="namedview84"
     showgrid="false"
     fit-margin-top="0"
     fit-margin-left="0"
     fit-margin-right="0"
     fit-margin-bottom="0"
     inkscape:zoom="0.57483044"
     inkscape:cx="387.28224"
     inkscape:cy="96.873627"
     inkscape:window-x="0"
     inkscape:window-y="27"
     inkscape:window-maximized="0"
     inkscape:current-layer="svg5655" />
  <defs
     id="defs5657">
    <linearGradient
       id="linearGradient6706">
      <stop
         id="stop6708"
         style="stop-color:#ffffff;stop-opacity:1"
         offset="0" />
      <stop
         id="stop6710"
         style="stop-color:#ffffff;stop-opacity:0"
         offset="1" />
    </linearGradient>
    <linearGradient
       id="linearGradient6682">
      <stop
         id="stop6684"
         style="stop-color:#555753;stop-opacity:1"
         offset="0" />
      <stop
         id="stop6686"
         style="stop-color:#555753;stop-opacity:0"
         offset="1" />
    </linearGradient>
    <linearGradient
       id="linearGradient6670">
      <stop
         id="stop6672"
         style="stop-color:#ffffff;stop-opacity:1"
         offset="0" />
      <stop
         id="stop6674"
         style="stop-color:#ffffff;stop-opacity:0"
         offset="1" />
    </linearGradient>
    <linearGradient
       id="linearGradient6660">
      <stop
         id="stop6662"
         style="stop-color:#ffffff;stop-opacity:1"
         offset="0" />
      <stop
         id="stop6664"
         style="stop-color:#ffffff;stop-opacity:0"
         offset="1" />
    </linearGradient>
    <linearGradient
       id="linearGradient9895">
      <stop
         id="stop9897"
         style="stop-color:#796052;stop-opacity:1"
         offset="0" />
      <stop
         id="stop9899"
         style="stop-color:#796052;stop-opacity:0"
         offset="1" />
    </linearGradient>
    <linearGradient
       id="linearGradient6445">
      <stop
         id="stop6447"
         style="stop-color:#6d594e;stop-opacity:1"
         offset="0" />
      <stop
         id="stop6449"
         style="stop-color:#6d594e;stop-opacity:0"
         offset="1" />
    </linearGradient>
    <linearGradient
       id="linearGradient6375">
      <stop
         id="stop6377"
         style="stop-color:#514843;stop-opacity:1"
         offset="0" />
      <stop
         id="stop6379"
         style="stop-color:#514843;stop-opacity:0"
         offset="1" />
    </linearGradient>
    <linearGradient
       id="linearGradient6361">
      <stop
         id="stop6363"
         style="stop-color:#3a3b3a;stop-opacity:1"
         offset="0" />
      <stop
         id="stop6365"
         style="stop-color:#3a3b3a;stop-opacity:0"
         offset="1" />
    </linearGradient>
    <linearGradient
       id="linearGradient6329">
      <stop
         id="stop6331"
         style="stop-color:#000000;stop-opacity:1"
         offset="0" />
      <stop
         id="stop6333"
         style="stop-color:#000000;stop-opacity:0"
         offset="1" />
    </linearGradient>
    <linearGradient
       id="linearGradient6319">
      <stop
         id="stop6321"
         style="stop-color:#363939;stop-opacity:1"
         offset="0" />
      <stop
         id="stop6323"
         style="stop-color:#363939;stop-opacity:0"
         offset="1" />
    </linearGradient>
    <linearGradient
       id="linearGradient6301">
      <stop
         id="stop6303"
         style="stop-color:#3b3c3b;stop-opacity:1"
         offset="0" />
      <stop
         id="stop6305"
         style="stop-color:#3b3c3b;stop-opacity:0"
         offset="1" />
    </linearGradient>
    <linearGradient
       id="linearGradient6267">
      <stop
         id="stop6269"
         style="stop-color:#2e3436;stop-opacity:1"
         offset="0" />
      <stop
         id="stop3859"
         style="stop-color:#2e3436;stop-opacity:0.67199999"
         offset="0.5" />
      <stop
         id="stop6271"
         style="stop-color:#2e3436;stop-opacity:0"
         offset="1" />
    </linearGradient>
    <radialGradient
       cx="272.46106"
       cy="353.0986"
       r="114.07019"
       fx="272.46106"
       fy="353.0986"
       id="radialGradient6423"
       xlink:href="#linearGradient6267"
       gradientUnits="userSpaceOnUse"
       gradientTransform="matrix(0.09180177,-0.1410537,0.57412,0.3736538,119.50568,578.7484)" />
    <linearGradient
       x1="202.23254"
       y1="323.33511"
       x2="188.79752"
       y2="324.7493"
       id="linearGradient6135"
       xlink:href="#linearGradient6301"
       gradientUnits="userSpaceOnUse"
       gradientTransform="matrix(-1.8756764,0,0,1.8756764,803.90773,51.635482)" />
    <linearGradient
       x1="220.97087"
       y1="321.92087"
       x2="217.08179"
       y2="338.71466"
       id="linearGradient6137"
       xlink:href="#linearGradient6319"
       gradientUnits="userSpaceOnUse"
       gradientTransform="matrix(-1.8756764,0,0,1.8756764,803.07879,54.951252)" />
    <linearGradient
       x1="288.5"
       y1="365.36218"
       x2="297.75"
       y2="365.36218"
       id="linearGradient6139"
       xlink:href="#linearGradient6329"
       gradientUnits="userSpaceOnUse"
       gradientTransform="matrix(-1.6729006,0,0,1.8170615,747.06479,75.275072)" />
    <linearGradient
       x1="301.22751"
       y1="256.86707"
       x2="309.00568"
       y2="234.94675"
       id="linearGradient6141"
       xlink:href="#linearGradient6361"
       gradientUnits="userSpaceOnUse"
       gradientTransform="matrix(-1.8756764,0,0,1.8756764,850.65992,161.05553)" />
    <linearGradient
       x1="260.95273"
       y1="373.71643"
       x2="261.42242"
       y2="378.48941"
       id="linearGradient6143"
       xlink:href="#linearGradient6375"
       gradientUnits="userSpaceOnUse"
       gradientTransform="matrix(-1.8756764,0,0,1.8756764,805.23404,54.288082)" />
    <linearGradient
       x1="210.36427"
       y1="607.32684"
       x2="218.40762"
       y2="620.40833"
       id="linearGradient6145"
       xlink:href="#linearGradient9895"
       gradientUnits="userSpaceOnUse"
       gradientTransform="matrix(-1.8756764,0,0,1.8756764,741.7926,-456.55904)" />
    <linearGradient
       x1="244"
       y1="625.73718"
       x2="259"
       y2="634.73718"
       id="linearGradient6147"
       xlink:href="#linearGradient6445"
       gradientUnits="userSpaceOnUse"
       gradientTransform="matrix(-1.8756764,0,0,1.8756764,740.38584,-456.09012)" />
    <radialGradient
       cx="168.26779"
       cy="693.44495"
       r="57.5"
       fx="168.26779"
       fy="693.44495"
       id="radialGradient6666"
       xlink:href="#linearGradient6660"
       gradientUnits="userSpaceOnUse"
       gradientTransform="matrix(1,0,0,0.6695652,0,235.22403)" />
    <radialGradient
       cx="148.52199"
       cy="647.45093"
       r="92.521988"
       fx="148.52199"
       fy="647.45093"
       id="radialGradient6678"
       xlink:href="#linearGradient6670"
       gradientUnits="userSpaceOnUse"
       gradientTransform="matrix(0.894303,0.4474618,-0.6917274,1.3824955,463.55785,-314.10495)" />
    <radialGradient
       cx="227.64011"
       cy="707.89026"
       r="94.452866"
       fx="227.64011"
       fy="707.89026"
       id="radialGradient6688"
       xlink:href="#linearGradient6682"
       gradientUnits="userSpaceOnUse"
       gradientTransform="matrix(1.328206,0,0,0.3778224,-69.400105,485.719)" />
    <radialGradient
       cx="148.52199"
       cy="647.45093"
       r="92.521988"
       fx="148.52199"
       fy="647.45093"
       id="radialGradient6692"
       xlink:href="#linearGradient6670"
       gradientUnits="userSpaceOnUse"
       gradientTransform="matrix(0.894303,0.4474618,-0.6917274,1.3824955,635.55785,-420.10495)" />
    <linearGradient
       x1="303.86737"
       y1="549.75647"
       x2="303.86737"
       y2="559.67828"
       id="linearGradient6712"
       xlink:href="#linearGradient6706"
       gradientUnits="userSpaceOnUse" />
    <linearGradient
       x1="321.19147"
       y1="583.69763"
       x2="326.1412"
       y2="571.69904"
       id="linearGradient6716"
       xlink:href="#linearGradient6706"
       gradientUnits="userSpaceOnUse"
       gradientTransform="matrix(1,0,0,-1,13.435029,1243.1002)" />
    <linearGradient
       x1="202.23254"
       y1="323.33511"
       x2="188.79752"
       y2="324.7493"
       id="linearGradient6770"
       xlink:href="#linearGradient6301"
       gradientUnits="userSpaceOnUse"
       gradientTransform="matrix(-1.8756764,0,0,1.8756764,986.69453,522.40085)" />
    <linearGradient
       x1="220.97087"
       y1="321.92087"
       x2="217.08179"
       y2="338.71466"
       id="linearGradient6772"
       xlink:href="#linearGradient6319"
       gradientUnits="userSpaceOnUse"
       gradientTransform="matrix(-1.8756764,0,0,1.8756764,985.86559,525.71662)" />
    <linearGradient
       x1="288.5"
       y1="365.36218"
       x2="297.75"
       y2="365.36218"
       id="linearGradient6774"
       xlink:href="#linearGradient6329"
       gradientUnits="userSpaceOnUse"
       gradientTransform="matrix(-1.6729006,0,0,1.8170615,929.85159,546.04044)" />
    <linearGradient
       x1="301.22751"
       y1="256.86707"
       x2="309.00568"
       y2="234.94675"
       id="linearGradient6776"
       xlink:href="#linearGradient6361"
       gradientUnits="userSpaceOnUse"
       gradientTransform="matrix(-1.8756764,0,0,1.8756764,1033.4467,631.8209)" />
    <linearGradient
       x1="260.95273"
       y1="373.71643"
       x2="261.42242"
       y2="378.48941"
       id="linearGradient6778"
       xlink:href="#linearGradient6375"
       gradientUnits="userSpaceOnUse"
       gradientTransform="matrix(-1.8756764,0,0,1.8756764,988.02084,525.05345)" />
    <linearGradient
       x1="210.36427"
       y1="607.32684"
       x2="218.40762"
       y2="620.40833"
       id="linearGradient6780"
       xlink:href="#linearGradient9895"
       gradientUnits="userSpaceOnUse"
       gradientTransform="matrix(-1.8756764,0,0,1.8756764,924.5794,14.20633)" />
    <linearGradient
       x1="244"
       y1="625.73718"
       x2="259"
       y2="634.73718"
       id="linearGradient6782"
       xlink:href="#linearGradient6445"
       gradientUnits="userSpaceOnUse"
       gradientTransform="matrix(-1.8756764,0,0,1.8756764,923.17264,14.67525)" />
    <clipPath
       id="clipPath">
      <path
         d="m 293.94732,1259.1443 c 0,0 55.24016,-13.0961 77.68347,-22.2629 17.9536,-7.333 41.09082,-19.4747 56.84159,-30.7892 11.35099,-8.154 22.76587,-23.5661 34.10493,-31.7366 10.11219,-7.2864 25.15343,-14.6784 36.47336,-19.8945 22.09963,-10.1834 54.35207,-17.3809 75.78876,-28.8945 11.39502,-6.1202 27.92097,-14.314 35.05233,-25.105 3.61165,-5.4651 5.50366,-14.81 4.73679,-21.3156 -0.72168,-6.1224 -4.58295,-14.173 -8.99993,-18.4735 -3.69073,-3.5935 -10.55394,-6.2372 -15.63143,-7.1052 -9.5619,-1.6346 -20.55481,2.8818 -29.84183,5.6841 -8.82721,2.6636 -20.76632,8.5219 -29.36814,11.842 -5.04815,1.9485 -12.41,2.5009 -17.52615,4.2631 -6.19356,2.1334 -13.85162,6.4713 -19.89456,9 -15.31282,6.4076 -35.19951,17.54 -51.63109,19.8945 -13.55086,1.9417 -45.47326,-3.7894 -45.47326,-3.7894"
         id="path6732"
         style="fill:#db9977;fill-opacity:1;fill-rule:evenodd;stroke:#000000;stroke-width:3.75135279;stroke-linecap:butt;stroke-linejoin:miter;stroke-miterlimit:4;stroke-opacity:1;stroke-dasharray:none"
         inkscape:connector-curvature="0" />
    </clipPath>
    <filter
       x="-0.5"
       y="-0.5"
       width="2"
       height="2"
       color-interpolation-filters="sRGB"
       id="filter">
      <feGaussianBlur
         id="feGaussianBlur6855"
         stdDeviation="5.0" />
    </filter>
    <clipPath
       id="clipPath7">
      <path
         d="m 432.27297,1016.1106 c 54.95221,3.2459 78.86471,-1.8963 152.51593,2.8721 28.4817,1.844 53.93952,46.7152 58.73212,74.8512 3.28793,19.3025 11.66926,38.1028 17.52585,59.2011 1.55094,5.5872 -6.05067,13.3451 -11.37129,15.6501 -4.20504,1.8218 -10.89599,-0.3101 -15.18125,-1.9343 -12.28503,-4.6561 -20.41541,-22.6043 -25.08717,-27.4317 -3.85533,-3.9838 3.50104,13.8225 0.46892,18.4637 -10.16182,15.5545 -26.69891,31.1389 -40.73735,42.613 -3.6459,2.9799 -11.42514,-0.6721 -15.65018,1.4067 -4.69178,2.3085 -16.02801,17.0962 -20.74967,19.343 -10.86472,2.0824 -6.82511,-1.4732 -16.1777,8.6163 -6.41202,4.7854 -17.11428,9.6948 -25.08718,9.0267 -15.91368,-1.3335 -37.54215,-28.2225 -46.42299,-26.0836 -8.91494,2.1472 -36.49586,24.8029 -54.98076,31.7693 -11.06885,4.1715 -23.92793,13.795 -34.58278,18.9326 -15.54718,7.4966 -36.37594,17.8006 -53.04647,22.2737 -6.50302,1.7449 -15.52942,2.0154 -22.21504,2.8135 -14.05505,1.6778 -23.99737,0.2772 -46.89191,5.2167 1.67106,-24.0349 2.98662,-134.0029 2.34459,-149.2335 12.16313,-0.992 33.18895,-13.5512 46.423,-21.2772 18.63188,-10.8772 41.1821,-28.9647 58.26319,-42.1441 10.63118,-8.2028 23.4144,-20.9733 34.58278,-28.4282 19.34224,-12.9109 36.98053,-37.7293 57.32536,-36.5171 z m 68.63803,140.7343 -14.1848,21.2772 25.55609,-4.7478 4.27889,-7.0924 -15.65018,-9.437 z"
         id="path6718"
         style="fill:#db9977;fill-opacity:1;fill-rule:evenodd;stroke:#000000;stroke-width:3.75135279;stroke-linecap:butt;stroke-linejoin:miter;stroke-miterlimit:4;stroke-opacity:1;stroke-dasharray:none"
         inkscape:connector-curvature="0" />
    </clipPath>
    <filter
       x="-0.5"
       y="-0.5"
       width="2"
       height="2"
       color-interpolation-filters="sRGB"
       id="filtern">
      <feGaussianBlur
         stdDeviation="5.0"
         id="feGaussianBlur7186" />
    </filter>
    <radialGradient
       cx="148.52199"
       cy="647.45093"
       r="92.521988"
       fx="148.52199"
       fy="647.45093"
       id="radialGradient7466"
       xlink:href="#linearGradient6670"
       gradientUnits="userSpaceOnUse"
       gradientTransform="matrix(0.894303,0.4474618,-0.6917274,1.3824955,465.55785,-210.10495)" />
    <radialGradient
       cx="227.64011"
       cy="707.89026"
       r="94.452866"
       fx="227.64011"
       fy="707.89026"
       id="radialGradient7468"
       xlink:href="#linearGradient6682"
       gradientUnits="userSpaceOnUse"
       gradientTransform="matrix(1.328206,0,0,0.3778224,-75.4001,593.719)" />
    <linearGradient
       x1="244"
       y1="625.73718"
       x2="259"
       y2="634.73718"
       id="linearGradient7474"
       xlink:href="#linearGradient6445"
       gradientUnits="userSpaceOnUse"
       gradientTransform="matrix(-1.8756764,0,0,1.8756764,747.17264,-353.32475)" />
    <linearGradient
       x1="210.36427"
       y1="607.32684"
       x2="218.40762"
       y2="620.40833"
       id="linearGradient7476"
       xlink:href="#linearGradient9895"
       gradientUnits="userSpaceOnUse"
       gradientTransform="matrix(-1.8756764,0,0,1.8756764,748.5794,-353.79367)" />
    <linearGradient
       x1="260.95273"
       y1="373.71643"
       x2="261.42242"
       y2="378.48941"
       id="linearGradient7478"
       xlink:href="#linearGradient6375"
       gradientUnits="userSpaceOnUse"
       gradientTransform="matrix(-1.8756764,0,0,1.8756764,812.02084,157.05345)" />
    <linearGradient
       x1="301.22751"
       y1="256.86707"
       x2="309.00568"
       y2="234.94675"
       id="linearGradient7480"
       xlink:href="#linearGradient6361"
       gradientUnits="userSpaceOnUse"
       gradientTransform="matrix(-1.8756764,0,0,1.8756764,857.4467,263.8209)" />
    <linearGradient
       x1="288.5"
       y1="365.36218"
       x2="297.75"
       y2="365.36218"
       id="linearGradient7482"
       xlink:href="#linearGradient6329"
       gradientUnits="userSpaceOnUse"
       gradientTransform="matrix(-1.6729006,0,0,1.8170615,753.85159,178.04044)" />
    <linearGradient
       x1="220.97087"
       y1="321.92087"
       x2="217.08179"
       y2="338.71466"
       id="linearGradient7484"
       xlink:href="#linearGradient6319"
       gradientUnits="userSpaceOnUse"
       gradientTransform="matrix(-1.8756764,0,0,1.8756764,809.86559,157.71662)" />
    <linearGradient
       x1="202.23254"
       y1="323.33511"
       x2="188.79752"
       y2="324.7493"
       id="linearGradient7486"
       xlink:href="#linearGradient6301"
       gradientUnits="userSpaceOnUse"
       gradientTransform="matrix(-1.8756764,0,0,1.8756764,810.69453,154.40085)" />
    <linearGradient
       x1="40.187061"
       y1="210.17789"
       x2="584.66974"
       y2="210.17789"
       id="linearGradient3861"
       xlink:href="#linearGradient6319"
       gradientUnits="userSpaceOnUse" />
  </defs>
  <rect
     style="fill:#000000;stroke:none"
     id="rect3863"
     y="-8.8817842e-15"
     x="0"
     height="193.74725"
     width="746.30701" />
  <g
     style="font-size:184.74972534px;font-style:normal;font-variant:normal;font-weight:normal;font-stretch:normal;text-align:start;line-height:125%;writing-mode:lr-tb;text-anchor:start;fill:#ffffff;fill-opacity:1;stroke:none;font-family:Komika Display;-inkscape-font-specification:Komika Display"
     id="text3865">
    <path
       d="m 126.09389,60.56162 c -1.35494,9.6e-5 -2.77135,0.492762 -4.24924,1.477998 -1.35494,0.862259 -2.89452,2.03234 -4.61874,3.510245 -1.60127,1.478087 -3.38718,3.07925 -5.35775,4.803492 -1.84759,1.724416 -3.94142,3.387162 -6.28149,4.988243 -4.31091,3.325573 -7.513235,5.850484 -9.606982,7.574739 -1.970743,1.724403 -3.756655,3.202399 -5.357742,4.433993 -1.478072,1.231733 -3.140818,2.586563 -4.988242,4.064494 -1.724401,1.354896 -4.434061,3.325557 -8.128988,5.911991 C 74.302327,93.878217 71.407918,90.183226 68.821479,86.241832 66.234931,82.177413 63.71002,77.989756 61.24674,73.67885 c -0.369546,-0.615748 -0.923795,-1.416329 -1.662748,-2.401746 -0.615877,-0.985245 -1.354875,-1.970576 -2.216996,-2.955996 -0.739042,-0.985242 -1.47804,-1.90899 -2.216997,-2.771245 -0.739039,-0.98524 -1.354871,-1.662655 -1.847497,-2.032247 -0.492705,-0.24624 -1.293286,-0.554156 -2.401747,-0.923749 -1.108534,-0.492571 -2.340197,-0.738904 -3.694994,-0.738999 -1.10853,9.5e-5 -2.217028,0.246428 -3.325495,0.738999 -1.108527,0.369593 -2.155441,1.108592 -3.140746,2.216997 -0.862191,0.985423 -1.601189,2.463419 -2.216996,4.433993 -0.615856,1.847583 -0.985355,4.249327 -1.108499,7.205239 1.108474,3.202406 2.340138,6.096816 3.694995,8.683237 1.354803,2.463399 2.832799,5.049893 4.433993,7.759489 1.724298,2.586558 3.633377,5.480967 5.727242,8.683238 2.093791,3.20238 4.372369,7.08212 6.83574,11.63923 -2.340205,2.09387 -4.1877,3.8182 -5.542492,5.17299 -1.231702,1.23171 -2.463366,2.40179 -3.694995,3.51025 -1.231698,1.10853 -2.648111,2.34019 -4.249243,3.69499 -1.478027,1.2317 -3.695022,2.89444 -6.650991,4.98825 -0.246356,0.24635 -0.923771,0.8006 -2.032246,1.66274 -0.985353,0.86219 -2.09385,1.84752 -3.325496,2.956 -1.108515,0.98535 -2.155429,1.9091 -3.140745,2.77124 -0.985346,0.73902 -1.539595,1.10852 -1.662747,1.1085 -1.847509,1.35485 -3.571838,2.70968 -5.172993,4.0645 -1.478004,1.23167 -2.524918,2.89442 -3.140745,4.98824 -0.246338,0.73901 -0.369504,1.41642 -0.3695,2.03225 -4e-6,1.23167 0.369495,2.46333 1.108499,3.69499 0.738992,1.23167 1.66274,2.27858 2.771246,3.14075 1.231655,0.98533 2.586485,1.78591 4.064494,2.40174 1.60115,0.61583 3.140729,0.92375 4.618743,0.92375 1.10848,0 2.709642,-0.61583 4.803493,-1.8475 2.093806,-1.10849 4.249217,-2.46332 6.46624,-4.06449 2.340132,-1.60116 4.495544,-3.20232 6.46624,-4.80349 1.970627,-1.60116 3.448623,-2.83282 4.433994,-3.695 2.216955,-2.09381 5.234531,-4.80347 9.052736,-8.12898 3.818109,-3.32548 8.190515,-6.40464 13.117231,-9.23749 4.310761,3.07919 7.697836,6.21993 10.161235,9.42223 2.463255,3.07918 5.049749,6.40467 7.759488,9.97649 0.123087,0.24634 0.615752,0.98534 1.477998,2.217 0.862083,1.1085 1.847414,2.34016 2.955996,3.69499 1.231579,1.35483 2.463245,2.52491 3.694995,3.51025 1.35474,1.10849 2.5864,1.66274 3.69499,1.66274 l 3.51025,0 c 1.1084,0 2.2169,-0.12316 3.32549,-0.3695 1.1084,-0.12316 2.15532,-0.49266 3.14075,-1.10849 0.98523,-0.61584 1.78581,-1.478 2.40175,-2.5865 0.61572,-1.1085 0.92364,-2.58649 0.92374,-4.43399 -1e-4,-0.3695 -1e-4,-0.739 0,-1.1085 -1e-4,-0.49266 -0.0617,-0.98533 -0.18475,-1.478 -1.8476,-4.31081 -3.69509,-7.75947 -5.54249,-10.34598 -1.84759,-2.58648 -4.12617,-4.86506 -6.83574,-6.83574 -3.94141,-5.0498 -6.774239,-8.92954 -8.498485,-11.63924 -1.724413,-2.83279 -2.586577,-5.11136 -2.586496,-6.83574 l 0,-0.3695 c 1.970581,-1.72428 3.69491,-3.20228 5.172991,-4.43399 1.47791,-1.35478 2.89432,-2.58644 4.24925,-3.69499 1.4779,-1.23161 2.9559,-2.4017 4.43399,-3.51025 1.4779,-1.10844 3.20223,-2.340103 5.17299,-3.694994 l 4.43399,-3.140745 c 1.97056,-1.2316 4.00281,-2.709596 6.09675,-4.433993 1.47788,-1.10843 2.77113,-2.093761 3.87974,-2.955996 1.23155,-0.862094 2.40163,-1.785841 3.51024,-2.771246 1.23155,-1.108423 2.46321,-2.340087 3.695,-3.694994 1.35471,-1.354753 2.8327,-3.079082 4.43399,-5.172993 -1.2e-4,-1.847412 -0.43121,-3.633325 -1.29325,-5.357742 -0.86229,-1.724241 -1.97078,-3.202237 -3.32549,-4.433993 -1.35495,-1.231571 -2.89453,-2.216902 -4.61874,-2.955996 -1.72445,-0.738903 -3.44878,-1.108402 -5.173,-1.108498"
       style="line-height:125%;font-family:Komika Display;-inkscape-font-specification:Komika Display"
       id="path3061" />
    <path
       d="m 266.20924,76.265347 0,-2.401747 c -0.12325,-0.123083 -0.18483,-0.615749 -0.18475,-1.477998 -8e-5,-4.803403 -2.89449,-8.498394 -8.68324,-11.084983 -3.94139,-1.601067 -8.06746,-2.401648 -12.37823,-2.401747 -5.17304,9.9e-5 -10.96186,0.308014 -17.36647,0.923749 -6.28153,0.492763 -13.30201,1.354927 -21.06147,2.586496 -0.61585,0.123261 -1.1701,0.246428 -1.66275,0.3695 -0.49268,9.4e-5 -0.98535,0.06168 -1.478,0.184749 -0.98534,0.123261 -1.72434,0.246427 -2.21699,0.3695 -0.49268,0.12326 -1.04693,0.308009 -1.66275,0.554249 -2.09384,0.739091 -3.81817,1.601256 -5.17299,2.586496 l 0.18475,0 c -2.956,1.72442 -4.434,4.064581 -4.434,7.02049 0.3695,3.202409 1.41641,6.219984 3.14075,9.052736 1.72432,2.832901 3.51023,4.865146 5.35774,6.096741 1.60115,0.862233 4.55714,1.293315 8.86799,1.293248 l 2.03224,0 c 1.10848,6.7e-5 1.84748,-0.06152 2.217,-0.184749 l 33.8092,-1.847498 c 0.49261,-0.123097 1.41636,-0.307847 2.77125,-0.554249 0.4926,-0.123097 0.92368,-0.18468 1.29324,-0.18475 0.49261,-0.123096 1.04686,-0.246263 1.66275,-0.369499 2.58643,-0.369429 4.37234,-0.554178 5.35774,-0.554249 3.81809,7.1e-5 6.343,-0.677344 7.57474,-2.032247 1.35476,-1.354757 2.03217,-4.002834 2.03225,-7.944238 m -2.40175,33.809203 c -7e-5,-3.57178 -0.6159,-6.40461 -1.84749,-8.49849 -1.10858,-2.21694 -2.8329,-4.002852 -5.173,-5.357743 -3.81822,-1.724268 -8.68329,-2.586433 -14.59523,-2.586496 -0.24638,6.3e-5 -1.10855,0.06165 -2.58649,0.184749 -1.35488,6.4e-5 -3.20238,0.12323 -5.54249,0.3695 -1.47805,0.123229 -2.95604,0.246395 -4.434,0.369499 -1.35487,0.123229 -2.7097,0.184812 -4.06449,0.18475 -1.47803,0.123229 -3.0792,0.246395 -4.80349,0.3695 -1.6012,6.1e-5 -3.20236,0.123228 -4.8035,0.369499 -3.69501,0.492727 -6.71259,0.862226 -9.05273,1.108498 -3.57185,0.36956 -5.91201,0.739059 -7.02049,1.108499 l 0.3695,0 c -2.09384,0.492724 -3.87976,1.785971 -5.35774,3.879745 -1.47801,2.09388 -2.21701,4.24929 -2.217,6.46624 -1e-5,5.17304 2.21699,9.42227 6.65099,12.74773 3.81814,3.0792 8.25213,4.61878 13.30198,4.61874 0.49264,4e-5 3.63338,-0.18471 9.42223,-0.55425 5.54246,-0.2463 10.65386,-0.55421 15.33423,-0.92374 4.80344,-0.36947 9.17585,-0.73897 13.11723,-1.1085 1.35477,-0.12313 2.3401,-0.18472 2.956,-0.18475 0.73893,-0.12313 1.29318,-0.18472 1.66275,-0.18475 l 1.10849,0 c 2.58643,-0.49263 4.61867,-2.46329 6.09674,-5.91199 l 0,0.18475 c 0.98526,-2.21696 1.47793,-4.43395 1.478,-6.65099"
       style="line-height:125%;font-family:Komika Display;-inkscape-font-specification:Komika Display"
       id="path3063" />
    <path
       d="m 447.24087,60.56162 c -1.35495,9.6e-5 -2.77136,0.492762 -4.24925,1.477998 -1.35494,0.862259 -2.89451,2.03234 -4.61874,3.510245 -1.60127,1.478087 -3.38718,3.07925 -5.35774,4.803492 -1.8476,1.724416 -3.94142,3.387162 -6.28149,4.988243 -4.31092,3.325573 -7.51324,5.850484 -9.60699,7.574739 -1.97074,1.724403 -3.75665,3.202399 -5.35774,4.433993 -1.47807,1.231733 -3.14082,2.586563 -4.98824,4.064494 -1.7244,1.354896 -4.43406,3.325557 -8.12899,5.911991 -3.20239,-3.448598 -6.0968,-7.143589 -8.68324,-11.084983 -2.58655,-4.064419 -5.11146,-8.252076 -7.57474,-12.562982 -0.36954,-0.615748 -0.92379,-1.416329 -1.66274,-2.401746 -0.61588,-0.985245 -1.35488,-1.970576 -2.217,-2.955996 -0.73904,-0.985242 -1.47804,-1.90899 -2.217,-2.771245 -0.73904,-0.98524 -1.35487,-1.662655 -1.8475,-2.032247 -0.4927,-0.24624 -1.29328,-0.554156 -2.40174,-0.923749 -1.10854,-0.492571 -2.3402,-0.738904 -3.695,-0.738999 -1.10853,9.5e-5 -2.21702,0.246428 -3.32549,0.738999 -1.10853,0.369593 -2.15544,1.108592 -3.14075,2.216997 -0.86219,0.985423 -1.60119,2.463419 -2.21699,4.433993 -0.61586,1.847583 -0.98536,4.249327 -1.1085,7.205239 1.10847,3.202406 2.34014,6.096816 3.69499,8.683237 1.35481,2.463399 2.8328,5.049893 4.434,7.759489 1.72429,2.586558 3.63337,5.480967 5.72724,8.683238 2.09379,3.20238 4.37237,7.08212 6.83574,11.63923 -2.34021,2.09387 -4.1877,3.8182 -5.54249,5.17299 -1.23171,1.23171 -2.46337,2.40179 -3.695,3.51025 -1.2317,1.10853 -2.64811,2.34019 -4.24924,3.69499 -1.47803,1.2317 -3.69502,2.89444 -6.65099,4.98825 -0.24636,0.24635 -0.92377,0.8006 -2.03225,1.66274 -0.98535,0.86219 -2.09385,1.84752 -3.32549,2.956 -1.10852,0.98535 -2.15543,1.9091 -3.14075,2.77124 -0.98535,0.73902 -1.53959,1.10852 -1.66275,1.1085 -1.84751,1.35485 -3.57184,2.70968 -5.17299,4.0645 -1.478,1.23167 -2.52492,2.89442 -3.14075,4.98824 -0.24633,0.73901 -0.3695,1.41642 -0.36949,2.03225 -10e-6,1.23167 0.36949,2.46333 1.10849,3.69499 0.739,1.23167 1.66274,2.27858 2.77125,3.14075 1.23165,0.98533 2.58648,1.78591 4.06449,2.40174 1.60115,0.61583 3.14073,0.92375 4.61875,0.92375 1.10848,0 2.70964,-0.61583 4.80349,-1.8475 2.09381,-1.10849 4.24922,-2.46332 6.46624,-4.06449 2.34013,-1.60116 4.49554,-3.20232 6.46624,-4.80349 1.97063,-1.60116 3.44862,-2.83282 4.43399,-3.695 2.21696,-2.09381 5.23453,-4.80347 9.05274,-8.12898 3.81811,-3.32548 8.19051,-6.40464 13.11723,-9.23749 4.31076,3.07919 7.69784,6.21993 10.16124,9.42223 2.46325,3.07918 5.04974,6.40467 7.75948,9.97649 0.12309,0.24634 0.61576,0.98534 1.478,2.217 0.86209,1.1085 1.84742,2.34016 2.956,3.69499 1.23158,1.35483 2.46324,2.52491 3.69499,3.51025 1.35474,1.10849 2.58641,1.66274 3.695,1.66274 l 3.51024,0 c 1.1084,0 2.2169,-0.12316 3.3255,-0.3695 1.1084,-0.12316 2.15531,-0.49266 3.14074,-1.10849 0.98523,-0.61584 1.78581,-1.478 2.40175,-2.5865 0.61573,-1.1085 0.92364,-2.58649 0.92375,-4.43399 -1.1e-4,-0.3695 -1.1e-4,-0.739 0,-1.1085 -1.1e-4,-0.49266 -0.0617,-0.98533 -0.18475,-1.478 -1.8476,-4.31081 -3.6951,-7.75947 -5.54249,-10.34598 -1.8476,-2.58648 -4.12618,-4.86506 -6.83574,-6.83574 -3.94142,-5.0498 -6.77425,-8.92954 -8.49849,-11.63924 -1.72441,-2.83279 -2.58658,-5.11136 -2.5865,-6.83574 l 0,-0.3695 c 1.97058,-1.72428 3.69491,-3.20228 5.17299,-4.43399 1.47791,-1.35478 2.89433,-2.58644 4.24925,-3.69499 1.4779,-1.23161 2.9559,-2.4017 4.43399,-3.51025 1.4779,-1.10844 3.20223,-2.340103 5.17299,-3.694994 l 4.434,-3.140745 c 1.97055,-1.2316 4.0028,-2.709596 6.09674,-4.433993 1.47788,-1.10843 2.77113,-2.093761 3.87974,-2.955996 1.23155,-0.862094 2.40163,-1.785841 3.51025,-2.771246 1.23154,-1.108423 2.46321,-2.340087 3.69499,-3.694994 1.35471,-1.354753 2.83271,-3.079082 4.43399,-5.172993 -1.2e-4,-1.847412 -0.4312,-3.633325 -1.29324,-5.357742 -0.86229,-1.724241 -1.97079,-3.202237 -3.3255,-4.433993 -1.35495,-1.231571 -2.89453,-2.216902 -4.61874,-2.955996 -1.72445,-0.738903 -3.44878,-1.108402 -5.17299,-1.108498"
       style="line-height:125%;font-family:Komika Display;-inkscape-font-specification:Komika Display"
       id="path3065" />
    <path
       d="m 606.38545,79.775591 c -10e-5,-5.665575 -2.77134,-9.175816 -8.31374,-10.530734 -7.39007,-0.985243 -12.99414,-1.539492 -16.81222,-1.662748 -5.54256,-0.369409 -8.56014,-0.800491 -9.05274,-1.293248 -1.97073,-1.601072 -2.95606,-4.125982 -2.956,-7.574738 -6e-5,-0.862067 0.0615,-1.970564 0.18475,-3.325495 0.24628,-1.477895 0.43103,-3.017475 0.55425,-4.618744 0.24627,-1.601056 0.43102,-3.079052 0.55425,-4.433993 0.24627,-1.477886 0.36944,-2.647966 0.3695,-3.510245 -6e-5,-8.99103 -3.81822,-13.486602 -11.45448,-13.48673 -5.17304,1.28e-4 -8.56011,2.956121 -10.16124,8.867987 -0.24637,1.354949 -0.4927,3.325611 -0.739,5.911991 -0.24637,2.46344 -0.4927,5.481016 -0.73899,9.052737 -0.24638,2.83293 -0.49271,5.234674 -0.739,7.205239 -0.12321,1.970759 -0.30796,3.633504 -0.55425,4.988243 -0.4927,3.44875 -5.17303,5.173079 -14.04098,5.172992 -3.57185,8.7e-5 -6.58942,0.123253 -9.05274,0.3695 -2.46334,0.123252 -4.37242,0.308002 -5.72724,0.554249 -5.54249,1.478082 -8.31374,4.803573 -8.31374,9.976485 0,2.463403 0.67742,5.173063 2.03225,8.128988 2.21699,3.818224 6.83573,5.727303 13.85623,5.727241 0.73898,6.2e-5 1.90906,-0.06152 3.51024,-0.184749 1.72431,-0.123105 3.07914,-0.184688 4.0645,-0.18475 4.55713,6.2e-5 6.83571,1.724391 6.83574,5.172991 -3e-5,2.09389 -0.18478,4.9883 -0.55425,8.68324 -0.36953,3.94137 -0.55428,6.83578 -0.55425,8.68324 -3e-5,10.96184 3.75654,16.44274 11.26973,16.44272 3.07912,2e-5 5.29612,-0.73897 6.65099,-2.217 0.49262,-0.6158 1.04687,-1.78588 1.66275,-3.51024 0.73895,-1.7243 1.53953,-4.00288 2.40175,-6.83574 1.23161,-4.55712 2.15536,-8.25211 2.77124,-11.08498 0.73895,-4.31078 2.27853,-8.00577 4.61875,-11.084987 2.7096,-3.694933 6.03509,-5.542429 9.97648,-5.542492 l 16.62748,0 c 3.44857,6.3e-5 6.40456,-1.477933 8.86798,-4.433994 1.97057,-2.340093 2.9559,-5.480835 2.956,-9.422236"
       style="line-height:125%;font-family:Komika Display;-inkscape-font-specification:Komika Display"
       id="path3067" />
    <path
       d="m 724.02772,53.356381 c 1.35478,-3.448555 2.0322,-6.342964 2.03225,-8.683237 -5e-5,-3.694879 -1.04697,-6.589288 -3.14075,-8.683238 -2.09387,-2.216873 -4.37245,-3.32537 -6.83574,-3.325495 -2.3402,1.25e-4 -4.31086,0.554373 -5.91199,1.662748 -2.70969,2.46345 -5.29619,4.495695 -7.75949,6.096741 -2.34019,1.601279 -4.68035,3.140859 -7.02049,4.618743 -3.20234,2.09394 -6.2815,4.187768 -9.23748,6.281491 -2.83284,2.093933 -5.85042,4.865177 -9.05274,8.313737 -0.739,1.354928 -1.1085,2.832924 -1.1085,4.433994 0,3.079252 0.80058,5.912078 2.40175,8.498487 1.72432,2.586578 3.38707,4.002991 4.98824,4.249244 0.12316,0.123246 0.61582,0.184829 1.478,0.184749 1.35482,8e-5 2.58648,-0.246252 3.69499,-0.738998 1.10849,-0.615751 2.27857,-1.35475 3.51025,-2.216997 2.09381,-1.847413 4.00289,-2.95591 5.72724,-3.325495 0.12314,0.123252 0.18473,0.615918 0.18475,1.477998 -2e-5,2.093913 -0.36952,4.680406 -1.1085,7.759488 -0.61585,3.079236 -1.23169,6.035229 -1.8475,8.867987 -0.24635,0.985399 -0.49268,2.032313 -0.73899,3.140745 -0.12319,0.985396 -0.24636,1.909144 -0.3695,2.771246 -1.10852,6.281551 -2.2786,11.762451 -3.51025,16.442721 -1.10851,4.68037 -2.21701,9.11436 -3.32549,13.30198 -1.10851,4.18769 -2.21701,8.49852 -3.3255,12.93249 -1.10851,4.31084 -2.15542,9.36066 -3.14074,15.14947 l 0,1.29325 c -10e-6,2.956 0.80057,4.80349 2.40174,5.54249 1.72432,0.739 3.81815,1.1085 6.28149,1.1085 l 4.61875,0 c 2.34014,-1.1085 4.18763,-2.217 5.54249,-3.32549 1.3548,-0.98533 2.34013,-2.15542 2.95599,-3.51025 0.73897,-1.47799 1.23164,-3.14074 1.478,-4.98824 0.2463,-1.97065 0.49264,-4.43398 0.739,-7.38999 0.12314,-1.23165 0.36947,-2.89439 0.739,-4.98824 0.49263,-2.21698 0.9853,-4.61872 1.478,-7.20524 0.49263,-2.58647 1.04688,-5.29613 1.66274,-8.12899 0.6158,-2.83279 1.17005,-5.60403 1.66275,-8.31374 0.73896,-4.06444 1.41638,-7.5131 2.03225,-10.34598 0.61579,-2.832774 1.17004,-5.419267 1.66275,-7.759491 0.61579,-2.463264 1.23162,-4.803425 1.84749,-7.020489 0.61579,-2.340092 1.29321,-4.988168 2.03225,-7.944238 0.86212,-3.079082 1.78587,-6.650906 2.77125,-10.715484 0.98528,-4.187569 2.15536,-9.298973 3.51024,-15.334228 l 0,-0.184749"
       style="line-height:125%;font-family:Komika Display;-inkscape-font-specification:Komika Display"
       id="path3069" />
  </g>
</svg>
