<?xml version="1.0" encoding="UTF-8" standalone="no"?>
<!-- Created with Inkscape (http://www.inkscape.org/) -->

<svg
   xmlns:dc="http://purl.org/dc/elements/1.1/"
   xmlns:cc="http://creativecommons.org/ns#"
   xmlns:rdf="http://www.w3.org/1999/02/22-rdf-syntax-ns#"
   xmlns:svg="http://www.w3.org/2000/svg"
   xmlns="http://www.w3.org/2000/svg"
   xmlns:sodipodi="http://sodipodi.sourceforge.net/DTD/sodipodi-0.dtd"
   xmlns:inkscape="http://www.inkscape.org/namespaces/inkscape"
   width="250.51662"
   height="161.68283"
   id="svg2"
   version="1.1"
   inkscape:version="0.47pre4 r22446"
   sodipodi:docname="ludu-3.svg">
  <defs
     id="defs4">
    <inkscape:perspective
       sodipodi:type="inkscape:persp3d"
       inkscape:vp_x="0 : 526.18109 : 1"
       inkscape:vp_y="0 : 1000 : 0"
       inkscape:vp_z="744.09448 : 526.18109 : 1"
       inkscape:persp3d-origin="372.04724 : 350.78739 : 1"
       id="perspective10" />
    <inkscape:perspective
       sodipodi:type="inkscape:persp3d"
       inkscape:vp_x="0 : 0.5 : 1"
       inkscape:vp_y="0 : 1000 : 0"
       inkscape:vp_z="1 : 0.5 : 1"
       inkscape:persp3d-origin="0.5 : 0.33333333 : 1"
       id="perspective3666" />
    <inkscape:perspective
       sodipodi:type="inkscape:persp3d"
       inkscape:vp_x="0 : 0.5 : 1"
       inkscape:vp_y="0 : 1000 : 0"
       inkscape:vp_z="1 : 0.5 : 1"
       inkscape:persp3d-origin="0.5 : 0.33333333 : 1"
       id="perspective2824" />
    <inkscape:perspective
       id="perspective10-3"
       inkscape:persp3d-origin="372.04724 : 350.78739 : 1"
       inkscape:vp_z="744.09448 : 526.18109 : 1"
       inkscape:vp_y="0 : 1000 : 0"
       inkscape:vp_x="0 : 526.18109 : 1"
       sodipodi:type="inkscape:persp3d" />
  </defs>
  <sodipodi:namedview
     id="base"
     pagecolor="#ffffff"
     bordercolor="#666666"
     borderopacity="1.0"
     inkscape:pageopacity="0.0"
     inkscape:pageshadow="2"
     inkscape:zoom="0.35"
     inkscape:cx="365.86327"
     inkscape:cy="489.12326"
     inkscape:document-units="px"
     inkscape:current-layer="layer1"
     showgrid="false"
     inkscape:window-width="991"
     inkscape:window-height="748"
     inkscape:window-x="1"
     inkscape:window-y="48"
     inkscape:window-maximized="0" />
  <metadata
     id="metadata7">
    <rdf:RDF>
      <cc:Work
         rdf:about="">
        <dc:format>image/svg+xml</dc:format>
        <dc:type
           rdf:resource="http://purl.org/dc/dcmitype/StillImage" />
        <dc:title></dc:title>
      </cc:Work>
    </rdf:RDF>
  </metadata>
  <g
     inkscape:label="Layer 1"
     inkscape:groupmode="layer"
     id="layer1"
     transform="translate(-9.136727,-859.80258)">
    <path
       style="fill:none;stroke:#000000;stroke-width:2.62299991;stroke-linecap:butt;stroke-linejoin:miter;stroke-miterlimit:4;stroke-opacity:1;stroke-dasharray:none"
       d="m 235.22636,959.00483 c -27.898,-1.65916 -39.85428,-14.93247 -45.43388,-21.56911 -4.69466,-5.58415 -15.94172,-14.93251 -23.11547,-16.59167 -7.17376,-1.65914 -23.9126,-3.31835 -29.49219,-3.31835 -5.57962,0 -17.53588,0 -17.53588,0 0,0 -9.40515,0.75363 -8.76793,-6.63665 0,0 0.7971,-8.2958 4.78254,-9.95501 3.98539,-1.65915 12.75335,-5.80708 19.92711,-5.80708 7.17375,0 28.49884,-1.6592 35.07179,-1.65916 7.97084,0 26.30379,3.31837 26.30379,3.31837 l 9.56505,5.80708"
       id="path2830"
       sodipodi:nodetypes="csssccssscc" />
    <path
       style="fill:none;stroke:#000000;stroke-width:2.62299991;stroke-linecap:butt;stroke-linejoin:miter;stroke-miterlimit:4;stroke-opacity:1;stroke-dasharray:none"
       d="m 126.82274,916.69613 5.57956,-9.12543 c 0.78676,-6.84004 -3.55698,-8.46026 -8.76792,-10.78453"
       id="path2832"
       sodipodi:nodetypes="ccc" />
    <path
       style="fill:none;stroke:#000000;stroke-width:2.62299991;stroke-linecap:butt;stroke-linejoin:miter;stroke-miterlimit:4;stroke-opacity:1;stroke-dasharray:none"
       d="m 118.85185,890.14951 c 0,0 25.60582,-13.40453 32.87486,-14.52791 15.29232,-2.36332 33.73145,-0.51999 39.49267,0.20227 11.23301,1.40826 23.8697,7.16823 31.71618,11.56553 10.36212,5.80713 35.40628,30.96588 35.40628,30.96588 m -130.72202,0 -11.98743,29.12859 -8.7368,21.47596 -96.447363,-44.79747 29.49216,-63.04828 86.085223,34.01293 m 130.72206,104.52737 c 0,0 -15.14463,-15.7621 -23.91256,-17.4213 -8.76795,-1.6591 -14.34754,2.4888 -24.70966,-4.1478 -10.36212,-6.63673 -27.10093,-23.22833 -36.66592,-22.39876 -9.56504,0.82957 -17.92248,15.77876 -23.50206,10.80127 -2.78982,-2.48878 2.61583,-16.65127 10.20342,-24.36641 8.029,-8.16401 33.32596,-1.334 33.32596,-1.334"
       id="path3606"
       sodipodi:nodetypes="csssccccccccsssssc" />
    <path
       style="fill:none;stroke:#000000;stroke-width:2.62299991;stroke-linecap:butt;stroke-linejoin:miter;stroke-miterlimit:4;stroke-opacity:1;stroke-dasharray:none"
       d="m 168.62327,937.15707 c -12.50746,4.09325 -23.49008,16.5787 -28.80119,19.70987 -5.3111,3.13118 -9.46891,-4.51684 -7.4962,-8.21246 1.03181,-1.93298 36.69193,-25.04798 36.69193,-25.04798 0,0 -37.67827,22.78958 -42.21546,22.17365 -4.53721,-0.61591 -4.53716,-2.0531 -4.73441,-8.21245 -0.1973,-6.15932 28.80117,-18.88862 28.80117,-18.88862"
       id="path3614"
       sodipodi:nodetypes="czsczzc" />
    <text
       id="text3692"
       y="1021.4854"
       x="77.253456"
       style="font-size:55.55479813px;font-style:normal;font-weight:normal;fill:#000000;fill-opacity:1;stroke:none;font-family:Bitstream Vera Sans"
       xml:space="preserve"><tspan
         y="1021.4854"
         x="77.253456"
         id="tspan3694"
         sodipodi:role="line">4</tspan></text>
  </g>
</svg>
