<?xml version="1.0" encoding="UTF-8" standalone="no"?>
<!-- Created with Inkscape (http://www.inkscape.org/) -->

<svg
   xmlns:dc="http://purl.org/dc/elements/1.1/"
   xmlns:cc="http://creativecommons.org/ns#"
   xmlns:rdf="http://www.w3.org/1999/02/22-rdf-syntax-ns#"
   xmlns:svg="http://www.w3.org/2000/svg"
   xmlns="http://www.w3.org/2000/svg"
   xmlns:sodipodi="http://sodipodi.sourceforge.net/DTD/sodipodi-0.dtd"
   xmlns:inkscape="http://www.inkscape.org/namespaces/inkscape"
   width="65"
   height="65.650002"
   id="svg5296"
   sodipodi:version="0.32"
   inkscape:version="0.47pre4 r22446"
   version="1.0"
   sodipodi:docname="money.svg"
   inkscape:output_extension="org.inkscape.output.svg.inkscape">
  <defs
     id="defs5298">
    <inkscape:perspective
       sodipodi:type="inkscape:persp3d"
       inkscape:vp_x="0 : 32.822662 : 1"
       inkscape:vp_y="0 : 1000 : 0"
       inkscape:vp_z="55.999447 : 32.822662 : 1"
       inkscape:persp3d-origin="27.999723 : 21.881775 : 1"
       id="perspective18" />
  </defs>
  <sodipodi:namedview
     id="base"
     pagecolor="#ffffff"
     bordercolor="#666666"
     borderopacity="1.0"
     inkscape:pageopacity="0.0"
     inkscape:pageshadow="2"
     inkscape:zoom="7.1591773"
     inkscape:cx="32.360319"
     inkscape:cy="32.825001"
     inkscape:document-units="px"
     inkscape:current-layer="layer1"
     inkscape:window-width="1199"
     inkscape:window-height="729"
     inkscape:window-x="23"
     inkscape:window-y="42"
     showgrid="false"
     inkscape:window-maximized="0" />
  <metadata
     id="metadata5301">
    <rdf:RDF>
      <cc:Work
         rdf:about="">
        <dc:format>image/svg+xml</dc:format>
        <dc:type
           rdf:resource="http://purl.org/dc/dcmitype/StillImage" />
      </cc:Work>
    </rdf:RDF>
  </metadata>
  <g
     inkscape:label="Livello 1"
     inkscape:groupmode="layer"
     id="layer1"
     transform="translate(-253.67644,-559.10259)">
    <path
       style="fill:#787878;fill-opacity:1;fill-rule:nonzero;stroke:none"
       d="m 314.1569,598.95671 c 0,14.34656 -11.46219,24.95089 -26.43891,24.95089 -14.97672,0 -29.00746,-11.76671 -27.13175,-25.99012 1.73207,-13.1341 12.03304,-26.60151 27.00927,-26.48003 15.0992,0.12248 26.38818,13.02413 26.56139,27.51926 z"
       id="path4796"
       sodipodi:nodetypes="csssc" />
    <path
       style="fill:#787878;fill-opacity:1;fill-rule:evenodd;stroke:#000000;stroke-width:0.85923618000000002px;stroke-linecap:butt;stroke-linejoin:miter;stroke-opacity:1"
       d="m 282.88478,570.52933 c -1.28885,-1.93328 -7.73312,-8.37755 -7.73312,-8.37755 l 11.81449,0.85924 -2.5777,3.00732 2.14809,1.07405 7.94793,-2.57771 3.65175,0.85924 5.37023,-1.71848 -5.79984,6.87389 -3.65176,1.71848 -11.17007,-1.71848 z"
       id="path4798" />
    <path
       style="fill:#313131;fill-opacity:1;fill-rule:evenodd;stroke:none"
       d="m 277.51456,561.93697 7.51831,-2.3629 1.50367,1.93328 8.99703,-1.45266 -1.90834,2.3119 0.64443,0.77026 6.44427,-2.70354 3.22214,0.21481 0.85923,1.71847 -1.71847,1.93328 -4.94061,1.07405 -3.22213,-1.07405 -8.59236,2.79252 -1.93328,-1.07405 3.00732,-3.22213 -9.88121,-0.85924 z"
       id="path4800"
       sodipodi:nodetypes="cccccccccccccccc" />
    <path
       style="fill:#edd400;fill-opacity:1;fill-rule:evenodd;stroke:#000000;stroke-width:0.51554173;stroke-linecap:butt;stroke-linejoin:miter;stroke-miterlimit:4;stroke-opacity:1;stroke-dasharray:none"
       d="m 280.47746,572.60564 c 0.22784,-0.30379 1.99412,-1.83127 1.99412,-1.83127 l 11.9236,1.48095 11.16413,-3.49353 3.03786,0.5696 -0.5696,1.78474 -10.7844,1.17717 -3.68341,1.70879 -13.0823,-1.39645 z"
       id="path4802"
       sodipodi:nodetypes="ccccccccc" />
    <path
       style="fill-rule:evenodd"
       id="path4545"
       d="m 288.64176,581.00542 c 0.38905,1.22753 0.79549,2.43768 1.48187,3.36789 2.98097,-0.43271 4.38848,-0.25987 7.1399,0.40414 -0.0312,0.79469 0.92698,0.59989 1.07773,1.21245 0.24922,1.01265 -0.53644,0.99028 -0.8083,1.48186 -2.99633,0.5425 -3.58356,-2.61954 -6.87047,-1.21243 0.65417,1.36641 0.91067,3.13078 1.7513,4.31088 2.15504,-0.27455 4.68445,0.17284 6.1969,1.07772 1.08459,0.64879 2.132,1.3485 1.88601,3.09845 -0.0803,0.57079 -0.22969,1.60999 -0.53886,2.29017 -0.0818,0.17997 -0.38259,0.19587 -0.53886,0.40414 -0.27846,0.37101 -0.383,1.02491 -0.53886,1.21244 -0.49333,0.59355 -1.21971,0.57078 -1.61659,1.48186 -0.76181,-0.13323 -0.74753,0.50976 -1.21243,0.67358 0.17809,0.73056 0.34083,1.89424 0.943,2.55959 -0.29206,1.02208 0.6496,1.86325 -0.53886,2.15545 -1.00807,-0.83308 -0.88804,-2.79427 -1.48187,-4.04146 -1.50679,0.17364 -2.73889,0.64919 -3.90674,0.80829 -0.0942,1.61079 1.39282,2.65147 0.67358,4.04146 -2.02437,0.0135 -0.91741,-3.1452 -2.15545,-4.04146 -2.92978,0.19628 -5.24877,0.009 -6.87047,-1.34715 -0.46006,-0.92186 -0.2724,-2.07462 0.67357,-2.29016 1.71695,-0.39108 4.10774,3.21928 5.92747,1.88601 -0.58318,-1.5274 -0.64016,-3.581 -1.48186,-4.84975 -4.01735,0.78714 -7.98364,-1.60904 -6.60105,-6.1969 0.77811,-0.50599 1.15343,-1.47527 1.88601,-2.02073 0.44712,-0.33301 1.06641,-0.26836 1.34715,-0.80829 0.0283,-1.82917 -1.9469,-2.77028 -1.21243,-4.4456 1.6547,0.32102 1.17471,2.77688 2.15544,3.77203 1.44307,-0.12866 2.25284,-0.89047 3.5026,-1.21245 -0.19238,-1.39443 -1.64353,-2.29231 -0.94301,-3.77203 0.22457,0 0.44901,0 0.67358,0 z m -2.55959,6.87048 c 0.39364,1.44752 0.92684,2.75534 1.7513,3.77203 1.24813,-0.45547 2.29096,-0.37437 3.50259,-0.943 -0.29314,-1.54802 -1.29111,-2.39107 -1.48186,-4.04146 -1.72099,-0.0595 -2.61847,0.70443 -3.77203,1.21243 z m -1.07772,0.53886 c -0.89627,0.9449 -2.4141,1.26822 -2.29016,3.23317 1.10143,0.87835 2.57467,0.38529 3.90674,0.26943 -0.29004,-1.41626 -0.79765,-2.61522 -1.61658,-3.5026 z m 8.8912,6.73577 c 0.8188,0.97736 0.98558,2.60687 1.61659,3.77203 1.67208,-0.61551 3.92344,-2.20516 2.6943,-4.44561 -1.27548,-0.22686 -3.98649,-0.79657 -4.31089,0.67358 z m -4.98446,0.943 c 0.75562,1.26512 0.65471,3.38675 1.61658,4.44561 1.35699,-0.26741 2.7583,-0.34083 3.90674,-1.07772 -0.28438,-1.28734 -0.62049,-2.52282 -1.21243,-3.5026 -0.0318,-0.59679 -0.0973,-1.16003 -0.67358,-1.21244 -0.96726,0.37047 -3.10775,0.15627 -3.63731,1.34715 z"
       clip-rule="evenodd" />
    <path
       style="fill-rule:evenodd"
       id="path4559"
       d="m 275.37033,605.40701 c 0.47784,0.79603 -0.23844,2.68878 -1.34715,2.29016 -0.0605,-1.27293 0.20989,-2.21486 1.34715,-2.29016 z"
       clip-rule="evenodd" />
    <path
       style="fill-rule:evenodd"
       id="path4561"
       d="m 288.16828,610.79562 c -0.0637,0.42301 0.36252,0.35592 0.40415,0.67358 -0.26835,0.58493 -0.51825,1.18805 -1.48187,1.07772 -0.40361,-0.99218 0.26957,-1.57752 1.07772,-1.7513 z"
       clip-rule="evenodd" />
    <path
       style="fill-rule:evenodd"
       id="path4563"
       d="m 279.54651,610.93034 c 0.47339,0.68421 0.0993,1.81407 -0.53886,2.15544 -1.08797,-0.27172 -0.46356,-2.31441 0.53886,-2.15544 z"
       clip-rule="evenodd" />
    <path
       sodipodi:nodetypes="ccccccccccccccccccccccccccccccccccccccccccccccccccccccccccccccccccccccccccccccccccccccccccccccccccccccccccccccscccccccccccccccccccccccccccscccccccccccccccccccccccccccccccccccccccccccccccccccscccccc"
       id="path4691"
       d="m 296.74605,560.68616 c -0.64416,0.71702 -1.52489,1.17079 -2.42487,1.48187 0.42533,0.54354 1.11433,0.043 1.61747,-0.0995 1.76923,-0.66247 3.41708,-1.79908 5.35861,-1.8815 0.87645,-0.0501 1.76195,-0.0721 2.63588,-0.0216 1.27023,0.37889 1.97688,2.07751 1.23071,3.20749 -0.49739,0.39644 -0.98919,0.78698 -1.2658,1.35688 -0.47891,0.24608 -0.89721,0.56753 -1.06764,1.08824 -0.51052,0.20697 -0.96809,0.45224 -1.20728,0.9773 -0.92246,1.17048 -2.21771,2.0088 -3.0192,3.28071 -0.0213,0.44619 0.74763,0.0137 0.96549,-0.11855 0.53198,-0.39859 1.16531,-0.65429 1.83568,-0.60537 0.57484,-0.15269 1.05494,-0.55215 1.65652,-0.63613 1.51767,-0.35606 3.08773,-0.56839 4.64838,-0.47137 0.7546,0.0874 1.67509,0.19054 2.10886,0.90591 0.32288,0.49005 0.0906,1.16804 -0.41036,1.43337 -0.45867,0.30661 -1.05154,0.38908 -1.42255,0.82584 -0.27505,0.29418 -0.65074,0.54639 -1.07373,0.46774 -0.61609,0.0371 -1.12094,0.49063 -1.74649,0.49923 -2.27636,0.28648 -4.5887,-0.25537 -6.85142,0.20773 -0.27379,0.0846 -1.03334,-0.48885 -0.90143,0.0411 0.3589,0.36377 0.96264,0.38095 1.26044,0.82052 0.40879,0.41201 0.92813,0.56755 1.45567,0.70048 0.57737,0.3316 1.07596,0.78113 1.63021,1.1486 2.11292,1.54851 4.15884,3.24203 5.76408,5.32884 4.10674,3.94766 5.41262,6.87142 5.65118,10.8996 0.28735,0.43219 0.48404,0.9089 0.40589,1.42499 0.13908,0.54215 0.58519,0.96404 0.61991,1.54326 0.26031,1.50063 0.006,3.03243 0.22057,4.53828 0.178,1.77872 0.23592,3.58502 -0.0924,5.35096 -0.16639,0.83484 -0.21776,1.705 -0.53757,2.5005 -0.23384,0.53154 -0.67684,0.97013 -0.73125,1.57479 -0.11576,0.74949 -0.11981,1.54308 -0.51706,2.21623 -0.64399,1.26185 -1.7521,2.25906 -2.19022,3.63021 -0.91853,0.3971 -1.49349,1.26843 -2.30122,1.82625 -3.80788,3.21592 -8.09864,5.98433 -12.89317,7.45883 -4.76528,1.50128 -9.92838,1.49134 -14.76255,0.31362 -4.66175,-1.12099 -9.05108,-3.17209 -13.16691,-5.59915 -0.98998,-0.48226 -1.37066,-1.69748 -2.40991,-2.11354 -1.42867,-1.96407 -3.3009,-3.65194 -4.23787,-5.93805 -0.34407,-0.53659 -0.20475,-1.34637 -0.80784,-1.71575 -1.12555,-4.80796 -1.56591,-7.30145 -0.88176,-11.34105 -0.0501,-0.65175 0.006,-1.31372 0.35095,-1.88255 0.3153,-0.82125 0.51571,-1.68664 0.59205,-2.56306 0.59133,-0.49548 0.88696,-1.266 0.94301,-2.02072 0.60175,-0.31533 0.71285,-1.04288 0.94301,-1.61659 0.009,-0.39835 -0.13135,-1.22193 0.4548,-1.20989 0.62059,0.11407 0.89216,-0.70919 1.11439,-1.157 0.28942,-0.42002 0.83137,-0.62716 0.95357,-1.18247 0.19291,-0.52086 0.68399,-0.7729 1.06805,-1.12115 0.46306,-0.55798 0.67155,-1.28147 1.15317,-1.82975 0.57866,-0.70767 1.25648,-1.33985 1.71244,-2.14142 0.24042,-0.39599 0.76243,-0.40745 1.01143,-0.80253 0.32511,-0.36116 0.63242,-0.76308 1.08137,-0.97763 0.45645,-0.35418 0.49183,-1.03448 0.99412,-1.3506 0.97486,-0.72724 1.92213,-1.4921 2.93388,-2.16956 1.90004,-1.30413 4.03572,-2.81249 6.3583,-3.0483 2.5516,-0.28901 5.1689,-0.37546 7.70958,-0.16121 1.62379,0.17019 3.19195,0.62054 4.82863,0.52501 0.5831,-0.12233 3.4141,-1.36025 4.02187,-1.31691 0.73631,-0.0618 0.0224,2.07967 0.4387,1.38572 -0.95117,-0.12732 -3.33169,0.62622 -4.24375,0.74292 -0.56468,-0.33502 -1.18239,0.59388 -1.76478,0.46995 -3.53451,0.18304 -7.58865,-2.43154 -10.63785,-1.02861 -0.69047,-0.44443 0.0735,-2.6835 -0.43415,-3.31257 -0.47144,-0.62188 -0.94982,-1.25357 -1.56922,-1.73758 -0.61677,-0.0539 -0.70915,-0.76105 -1.00818,-1.17308 -0.82304,-1.23698 -2.09868,-2.07525 -2.97428,-3.26867 -0.0971,-0.5698 0.0666,-1.18669 0.43989,-1.62867 0.68338,-0.14165 1.37616,-0.2334 2.04989,-0.4214 2.72668,-0.64907 5.42106,-1.5566 8.24003,-1.70445 0.59555,0.18178 0.5932,1.08464 1.24795,1.16729 0.67617,-1.3e-4 1.31537,-0.26797 1.967,-0.41552 1.90924,-0.58609 3.87293,-1.35469 5.90695,-1.0773 0.86519,0.13159 1.68737,0.66063 1.97216,1.52047 z m -10.23836,1.34715 c -0.4471,-0.42105 -1.00515,-0.69481 -1.48186,-1.07772 -2.19712,0.16891 -4.26562,1.06825 -6.46633,1.21244 -0.18761,0.50723 -1.20524,0.18412 -1.14404,0.81322 3.12237,0.22721 6.18861,-0.85533 9.31043,-0.53717 0.73914,0.0977 1.48453,0.327 2.07197,0.80167 0.16548,0.76684 -0.006,1.65693 0.53021,2.30504 0.5821,0.13273 1.01029,-0.45412 1.56972,-0.51846 0.57012,-0.23673 1.16211,-0.70392 1.15336,-1.38012 0.154,-1.02479 1.08739,-1.65386 1.91632,-2.13535 0.21595,-0.16472 0.89506,-0.45626 0.73647,-0.69117 -2.77025,0.11035 -5.44211,0.96277 -8.19625,1.20762 z m 15.76169,-0.67357 c -0.93087,0.0362 -1.86881,0.082 -2.77858,0.29764 -0.48684,0.5049 -1.23795,0.46131 -1.87888,0.47673 -0.59082,0.16459 -1.05586,0.64718 -1.68294,0.70595 -0.58397,0.16913 -1.17949,0.30673 -1.74251,0.5404 -0.50361,-0.0449 -1.52784,-0.139 -1.38025,0.6508 0.33182,0.38815 0.88145,0.004 1.2688,-0.11302 0.43711,-0.16356 0.93082,-0.39433 1.39703,-0.24875 0.51274,0.32868 0.65428,1.11076 1.30886,1.23348 1.11113,0.12284 2.1127,-0.55393 3.21559,-0.51523 0.5029,-0.005 1.0247,-0.10853 1.41508,-0.44611 0.53066,-0.34105 1.16295,-0.43412 1.76396,-0.57196 0.51199,-0.17897 1.04256,-0.52173 1.22966,-1.04948 0.0299,-0.63446 -0.68018,-0.98185 -1.23405,-0.95978 -0.30022,-0.0214 -0.6013,-0.007 -0.90177,-6.7e-4 z m -20.61143,2.6943 c -1.13757,0.0803 -2.34228,-0.45684 -3.42405,0.0937 -0.38903,0.42388 0.52921,0.69725 0.69011,1.06813 0.52846,0.54305 1.08965,1.08519 1.79093,1.39771 -0.0888,0.67085 0.74471,0.79631 1.0798,1.21908 1.01635,1.00693 1.74325,2.37351 3.08916,2.9965 0.54946,0.23958 1.16619,0.31134 1.75851,0.23002 -1.33766,-1.05534 -2.13709,-2.6119 -3.36788,-3.77202 -0.14762,-0.71696 -0.75992,-1.37841 -0.50713,-2.14498 0.20171,-0.6038 0.93134,-0.7856 1.18071,-1.35762 -0.77177,0.009 -1.52109,0.22956 -2.29016,0.26943 z m 2.6943,1.88602 c 1.17436,0.50825 2.49104,0.27872 3.69439,0.0104 0.54613,-0.19586 -0.0703,-0.76161 0.0681,-1.17287 -0.11027,-0.67825 -0.98749,-0.24956 -1.44125,-0.24751 -0.91404,0.19642 -1.68174,0.74862 -2.3212,1.40996 z m 9.02592,-0.40415 c -0.1054,0.50235 -0.69215,0.49952 -1.09778,0.54353 -0.47902,0.0712 -0.78606,0.50453 -1.21814,0.69359 -1.46053,0.78558 -3.13525,1.01199 -4.75717,1.22866 -0.26266,0.0779 -1.0297,-0.0262 -0.52119,0.33804 0.7291,0.75819 1.71803,1.35508 2.06356,2.40271 -0.035,0.52609 0.30437,1.11704 0.89498,0.90833 2.4963,0.17081 5.08456,0.29047 7.48293,-0.55357 0.49138,-0.31438 0.79482,-0.83644 1.23075,-1.21593 1.33728,-1.40135 2.69153,-2.78674 4.00498,-4.21064 -2.07641,0.38505 -4.26047,0.74205 -6.33162,0.13471 -1.03154,0.67966 -1.12365,2.02285 -1.73294,3.00155 -0.4137,0.39198 -0.57282,0.92945 -0.79497,1.4019 -0.4557,0.46629 -1.12351,0.0283 -0.75162,-0.53864 0.22148,-0.74346 0.7705,-1.32107 1.14576,-1.97974 0.0779,-0.60423 0.46789,-1.01973 0.79858,-1.48157 0.0998,-0.29428 0.36333,-0.85909 -0.18577,-0.67358 -0.0764,0.008 -0.15409,0.0138 -0.23034,6.5e-4 z m 6.87048,5.38861 c 1.3805,0.449 2.80895,-0.0451 4.17616,-0.29382 0.78122,-0.17391 1.53853,-0.3622 2.31601,-0.54883 0.26663,-0.0612 1.08463,-0.43043 0.66381,-0.64005 -2.22745,0.0142 -4.54556,0.13508 -6.58429,1.12138 -0.19915,0.10604 -0.39137,0.22557 -0.57169,0.36132 z m 3.90674,8.08291 c 0.0506,-0.44196 -0.38247,-0.65878 -0.67712,-0.76527 -0.26974,-0.54959 -0.79506,-0.86597 -1.35273,-1.04875 -0.56782,-0.35843 -0.77396,-1.15358 -1.4758,-1.32313 -0.5418,-0.2076 -1.0299,-0.52995 -1.52049,-0.82704 -0.59111,-0.18778 -1.01004,-0.64916 -1.3708,-1.1278 -0.34571,-0.52572 -1.09582,-0.76362 -1.5747,-0.26081 -0.39912,0.36445 -0.89422,0.58446 -1.42615,0.6617 -1.53387,0.28135 -3.10107,0.0984 -4.64342,-0.003 -1.31716,-0.12107 -2.64126,-0.16563 -3.95507,-0.31806 -1.69645,-0.22693 -3.37,-0.69019 -4.90531,-1.45414 -0.46161,0.35942 -0.9213,0.74797 -1.48187,0.94301 -0.87904,1.13608 -2.19917,1.86457 -2.96373,3.09844 -0.62615,0.0463 -0.998,0.71588 -1.56566,0.88644 -1.48698,1.46866 -2.77251,3.13676 -4.36181,4.50218 -0.13001,0.78798 -0.97169,1.1122 -1.35714,1.74759 -0.88538,1.19554 -1.6401,2.48333 -2.56763,3.64876 -0.82844,1.0823 -1.75413,2.10103 -2.45306,3.27454 0.0349,0.42256 0.57106,0.78409 0.14092,1.22069 -0.32567,0.68072 -0.81614,1.26252 -1.30715,1.82865 -0.0871,1.17726 -0.72956,0.81367 -0.93053,3.36011 -0.41389,4.10091 -1.31902,6.46833 0.97906,12.00906 0.41539,0.41798 0.64558,0.96812 0.89789,1.49227 0.2087,0.56353 0.73017,0.87257 1.19679,1.15068 0.14353,0.48765 0.38743,0.98466 0.97304,0.92174 0.59154,0.24179 0.5031,0.99326 0.73989,1.48557 0.30987,0.53933 0.96652,0.69285 1.44465,1.03827 0.81352,0.46502 1.54729,1.05573 2.34636,1.54032 0.67478,0.349 1.46279,0.54399 1.98532,1.13031 0.71354,0.62176 1.71415,0.67913 2.50661,1.15879 0.36145,0.54547 1.09696,0.26663 1.61362,0.48791 0.65912,0.66926 1.62268,0.83247 2.48454,1.10052 1.42892,0.37132 2.90441,0.51461 4.3742,0.60636 0.78614,0.67795 1.89671,0.56409 2.85924,0.52244 0.56468,-0.17592 0.99974,0.3019 1.51789,0.29215 0.81067,0.0362 1.62155,0.002 2.42288,-0.13041 0.78704,-0.11499 1.58564,-0.19688 2.3798,-0.11772 0.88795,-0.054 1.65482,-0.76344 2.57279,-0.56763 1.90112,0.008 3.50039,-1.25284 5.35623,-1.4807 0.53373,-0.6387 1.35606,-0.94242 2.15545,-1.07772 0.63983,-0.70259 1.55934,-1.02081 2.3806,-1.4508 0.32087,-0.55799 0.73967,-1.05863 1.27331,-1.42221 0.6973,-0.58178 1.44997,-1.14039 1.92699,-1.93042 0.0445,-0.46812 0.6394,-0.61796 0.66165,-1.11515 0.20925,-0.56793 0.45655,-1.16482 0.98098,-1.51284 0.39392,-0.43071 0.29887,-1.09293 0.6824,-1.53371 0.37596,-0.35307 0.45375,-0.75873 0.49828,-1.24012 0.35141,-0.31075 0.52255,-0.69985 0.60047,-1.18682 0.13842,-0.67094 0.40137,-1.30186 0.64056,-1.94002 0.33099,-0.91244 0.38408,-1.88658 0.55192,-2.83419 0.29102,-2.20169 -0.0548,-4.4161 -0.24927,-6.61048 -0.0522,-0.88798 -0.19762,-1.76757 -0.46735,-2.61662 -3.13081,-6.00611 2.28618,-1.39233 -4.98749,-10.72175 -0.39666,-0.38541 -0.85,-0.77666 -0.99045,-1.33571 -0.7719,-0.8122 -1.75611,-1.37841 -2.5596,-2.15545 z"
       style="fill-rule:evenodd" />
  </g>
</svg>
