<?xml version="1.0" encoding="UTF-8" standalone="no"?>
<!-- Created with Inkscape (http://www.inkscape.org/) -->

<svg
   xmlns:svg="http://www.w3.org/2000/svg"
   xmlns="http://www.w3.org/2000/svg"
   version="1.1"
   width="250"
   height="220"
   id="svg2898">
  <defs
     id="defs2900" />
  <g
     id="layer1">
    <g
       transform="translate(-399.55045,-365.25381)"
       id="g2956">
      <path
         d="m 502.14341,479.67441 -4.92594,8.62041 96.05605,23.39826 19.70379,-62.19012 -58.49565,-18.47233 0,0"
         id="path3672"
         style="fill:none;stroke:#000000;stroke-width:2.62311149px;stroke-linecap:butt;stroke-linejoin:miter;stroke-opacity:1" />
      <path
         d="m 424.55971,403.32218 c 0,0 13.34428,-0.3596 19.7038,-2.463 6.35953,-2.10339 20.29222,-20.60506 29.5557,-22.78251 9.01104,-2.11811 20.93529,3.69447 23.39826,4.31022 2.46297,0.61572 21.55105,9.85188 21.55105,9.85188 l 14.1621,14.16213 c 0,0 16.00935,17.85654 17.24082,22.16676 1.2315,4.31022 3.07872,12.31489 0,12.93064 -3.07872,0.61572 -14.1621,-2.46298 -14.1621,-2.46298 0,0 7.03607,7.96178 3.07872,12.31489 -3.95739,4.35308 -12.31486,2.46297 -12.31486,2.46297 0,0 5.54169,4.31019 1.23148,10.46763 -4.31022,6.15744 -8.53333,3.14519 -14.77785,4.31022 1.2498,4.06207 3.69444,5.84954 1.23147,9.23613 -2.46297,3.3866 -6.15744,2.463 -9.85189,3.07872 -3.69447,0.61575 -44.33354,-17.85657 -44.33354,-17.85657 0,0 -3.69448,6.15747 -9.23617,6.77319 0,0 -7.38893,0 -12.93062,-1.2315 -3.00541,-0.66787 -29.55571,-11.6991 -29.55571,-11.6991"
         id="path3674"
         style="fill:none;stroke:#000000;stroke-width:2.62311149px;stroke-linecap:butt;stroke-linejoin:miter;stroke-opacity:1" />
      <path
         d="m 512.61108,467.97528 c 0,0 -25.24552,-17.85657 -32.01868,-19.70382 -6.77319,-1.84722 -27.09273,-15.39358 -27.09273,-15.39358 l 0,0.61572"
         id="path3676"
         style="fill:none;stroke:#000000;stroke-width:2.62311149px;stroke-linecap:butt;stroke-linejoin:miter;stroke-opacity:1" />
      <path
         d="m 526.77318,453.81318 c 0,0 -20.9353,-17.85658 -24.01402,-19.08808 -3.07872,-1.2315 -17.24082,-13.54635 -25.24548,-16.00932 -8.00469,-2.46297 -18.47232,-4.92597 -18.47232,-4.92597"
         id="path3678"
         style="fill:none;stroke:#000000;stroke-width:2.62311149px;stroke-linecap:butt;stroke-linejoin:miter;stroke-opacity:1" />
      <path
         d="m 535.39359,438.41955 c 0,0 -17.85657,-15.39358 -22.78251,-20.31955 -3.8943,-3.89429 -12.31489,-11.08338 -18.47233,-15.39357 -4.78553,-3.34984 -15.3936,-6.77319 -15.3936,-6.77319"
         id="path3680"
         style="fill:none;stroke:#000000;stroke-width:2.62311149px;stroke-linecap:butt;stroke-linejoin:miter;stroke-opacity:1" />
      <path
         d="m 529.23615,498.14673 c -1.23147,3.07872 -14.1621,25.86115 -14.1621,25.86115 l 89.8986,28.94 25.86123,-42.4863 -32.63442,-11.69913"
         id="path3682"
         style="fill:none;stroke:#000000;stroke-width:2.62311149px;stroke-linecap:butt;stroke-linejoin:miter;stroke-opacity:1" />
      <path
         d="m 631.44963,510.46161 0,11.69907 -25.86123,38.1761 -90.51435,-30.1714 -0.61575,-6.1575"
         id="path3684"
         style="fill:none;stroke:#000000;stroke-width:2.62311149px;stroke-linecap:butt;stroke-linejoin:miter;stroke-opacity:1" />
      <path
         d="m 631.44963,524.00788 -0.61574,9.2362 -24.62977,33.8659 -90.51432,-31.4029 0.61575,-4.926"
         id="path3686"
         style="fill:none;stroke:#000000;stroke-width:2.62311149px;stroke-linecap:butt;stroke-linejoin:miter;stroke-opacity:1" />
      <text
         x="441.31659"
         y="554.26062"
         id="text3696"
         xml:space="preserve"
         style="font-size:55.55479813px;font-style:normal;font-weight:normal;fill:#000000;fill-opacity:1;stroke:none;font-family:Bitstream Vera Sans"><tspan
           x="441.31659"
           y="554.26062"
           id="tspan3698">2</tspan></text>
    </g>
  </g>
</svg>
