<?xml version="1.0" encoding="UTF-8" standalone="no"?>
<!-- Created with Inkscape (http://www.inkscape.org/) -->

<svg
   xmlns:dc="http://purl.org/dc/elements/1.1/"
   xmlns:cc="http://creativecommons.org/ns#"
   xmlns:rdf="http://www.w3.org/1999/02/22-rdf-syntax-ns#"
   xmlns:svg="http://www.w3.org/2000/svg"
   xmlns="http://www.w3.org/2000/svg"
   xmlns:sodipodi="http://sodipodi.sourceforge.net/DTD/sodipodi-0.dtd"
   xmlns:inkscape="http://www.inkscape.org/namespaces/inkscape"
   width="650"
   height="193"
   id="svg2"
   version="1.1"
   inkscape:version="0.47pre4 r22446"
   sodipodi:docname="scary-hand.svg">
  <defs
     id="defs4">
    <inkscape:perspective
       sodipodi:type="inkscape:persp3d"
       inkscape:vp_x="0 : 526.18109 : 1"
       inkscape:vp_y="0 : 1000 : 0"
       inkscape:vp_z="744.09448 : 526.18109 : 1"
       inkscape:persp3d-origin="372.04724 : 350.78739 : 1"
       id="perspective10" />
    <inkscape:perspective
       id="perspective2824"
       inkscape:persp3d-origin="0.5 : 0.33333333 : 1"
       inkscape:vp_z="1 : 0.5 : 1"
       inkscape:vp_y="0 : 1000 : 0"
       inkscape:vp_x="0 : 0.5 : 1"
       sodipodi:type="inkscape:persp3d" />
    <inkscape:perspective
       id="perspective3666"
       inkscape:persp3d-origin="0.5 : 0.33333333 : 1"
       inkscape:vp_z="1 : 0.5 : 1"
       inkscape:vp_y="0 : 1000 : 0"
       inkscape:vp_x="0 : 0.5 : 1"
       sodipodi:type="inkscape:persp3d" />
  </defs>
  <sodipodi:namedview
     id="base"
     pagecolor="#ffffff"
     bordercolor="#666666"
     borderopacity="1.0"
     inkscape:pageopacity="0.0"
     inkscape:pageshadow="2"
     inkscape:zoom="1.2615385"
     inkscape:cx="325"
     inkscape:cy="102"
     inkscape:document-units="px"
     inkscape:current-layer="layer1"
     showgrid="false"
     inkscape:window-width="1380"
     inkscape:window-height="799"
     inkscape:window-x="69"
     inkscape:window-y="50"
     inkscape:window-maximized="0" />
  <metadata
     id="metadata7">
    <rdf:RDF>
      <cc:Work
         rdf:about="">
        <dc:format>image/svg+xml</dc:format>
        <dc:type
           rdf:resource="http://purl.org/dc/dcmitype/StillImage" />
        <dc:title />
      </cc:Work>
    </rdf:RDF>
  </metadata>
  <g
     inkscape:label="Layer 1"
     inkscape:groupmode="layer"
     id="layer1"
     transform="translate(0,-859.36215)">
    <path
       style="fill:none;stroke:#000000;stroke-width:2.62299991;stroke-linecap:butt;stroke-linejoin:miter;stroke-miterlimit:4;stroke-opacity:1;stroke-dasharray:none"
       d="m 556.26759,983.11615 c -27.898,-1.65916 -39.85428,-14.93247 -45.43388,-21.56911 -4.69466,-5.58415 -15.94172,-14.93251 -23.11547,-16.59167 -7.17376,-1.65914 -23.9126,-3.31835 -29.49219,-3.31835 -5.57962,0 -17.53588,0 -17.53588,0 0,0 -9.40515,0.75363 -8.76793,-6.63665 0,0 0.7971,-8.2958 4.78254,-9.95501 3.98539,-1.65915 12.75335,-5.80708 19.92711,-5.80708 7.17375,0 28.49884,-1.6592 35.07179,-1.65916 7.97084,0 26.30379,3.31837 26.30379,3.31837 l 9.56505,5.80708"
       id="path2830"
       sodipodi:nodetypes="csssccssscc" />
    <path
       style="fill:none;stroke:#000000;stroke-width:2.62299991;stroke-linecap:butt;stroke-linejoin:miter;stroke-miterlimit:4;stroke-opacity:1;stroke-dasharray:none"
       d="m 447.86397,940.80745 5.57956,-9.12543 c 0.78676,-6.84004 -3.55698,-8.46026 -8.76792,-10.78453"
       id="path2832"
       sodipodi:nodetypes="ccc" />
    <path
       style="fill:none;stroke:#000000;stroke-width:2.62299991;stroke-linecap:butt;stroke-linejoin:miter;stroke-miterlimit:4;stroke-opacity:1;stroke-dasharray:none"
       d="m 439.89308,914.26083 c 0,0 25.60582,-13.40453 32.87486,-14.52791 15.29232,-2.36332 33.73145,-0.51999 39.49267,0.20227 11.23301,1.40826 23.8697,7.16823 31.71618,11.56553 10.36212,5.80713 35.40628,30.96588 35.40628,30.96588 m -130.72202,0 -11.98743,29.12859 -8.7368,21.47596 -96.44736,-44.79747 29.49216,-63.04828 86.08522,34.01293 M 577.7889,1023.7657 c 0,0 -15.14463,-15.7621 -23.91256,-17.4213 -8.76795,-1.6591 -14.34754,2.4888 -24.70966,-4.1478 -10.36212,-6.63673 -27.10093,-23.22833 -36.66592,-22.39876 -9.56504,0.82957 -17.92248,15.77876 -23.50206,10.80127 -2.78982,-2.48878 2.61583,-16.65127 10.20342,-24.36641 8.029,-8.16401 33.32596,-1.334 33.32596,-1.334"
       id="path3606"
       sodipodi:nodetypes="csssccccccccsssssc" />
    <path
       style="fill:none;stroke:#000000;stroke-width:2.62299991;stroke-linecap:butt;stroke-linejoin:miter;stroke-miterlimit:4;stroke-opacity:1;stroke-dasharray:none"
       d="m 489.6645,961.26839 c -12.50746,4.09325 -23.49008,16.5787 -28.80119,19.70987 -5.3111,3.13118 -9.46891,-4.51684 -7.4962,-8.21246 1.03181,-1.93298 36.69193,-25.04798 36.69193,-25.04798 0,0 -37.67827,22.78958 -42.21546,22.17365 -4.53721,-0.61591 -4.53716,-2.0531 -4.73441,-8.21245 -0.1973,-6.15932 28.80117,-18.88862 28.80117,-18.88862"
       id="path3614"
       sodipodi:nodetypes="czsczzc" />
    <path
       style="fill:none;stroke:#000000;stroke-width:2.62311149px;stroke-linecap:butt;stroke-linejoin:miter;stroke-opacity:1"
       d="m 167.72107,963.78573 -4.92594,8.62041 96.05604,23.39826 19.70379,-62.19012 -58.49565,-18.47233 0,0"
       id="path3672" />
    <path
       style="fill:none;stroke:#000000;stroke-width:2.62311149px;stroke-linecap:butt;stroke-linejoin:miter;stroke-opacity:1"
       d="m 90.137374,887.4335 c 0,0 13.344276,-0.3596 19.703796,-2.463 6.35953,-2.10339 20.29222,-20.60506 29.5557,-22.78251 9.01104,-2.11811 20.93529,3.69447 23.39826,4.31022 2.46297,0.61572 21.55104,9.85188 21.55104,9.85188 l 14.1621,14.16213 c 0,0 16.00935,17.85654 17.24082,22.16676 1.2315,4.31022 3.07872,12.31489 0,12.93064 -3.07872,0.61572 -14.1621,-2.46298 -14.1621,-2.46298 0,0 7.03607,7.96178 3.07872,12.31489 -3.95739,4.35308 -12.31486,2.46297 -12.31486,2.46297 0,0 5.54169,4.31019 1.23148,10.46763 -4.31022,6.15744 -8.53333,3.14519 -14.77785,4.31022 1.2498,4.06207 3.69444,5.84954 1.23147,9.23613 -2.46297,3.3866 -6.15744,2.463 -9.85188,3.07872 -3.69447,0.61575 -44.33354,-17.85657 -44.33354,-17.85657 0,0 -3.69448,6.15747 -9.23617,6.77319 0,0 -7.38893,0 -12.93062,-1.2315 -3.00541,-0.66787 -29.555707,-11.6991 -29.555707,-11.6991"
       id="path3674"
       sodipodi:nodetypes="czssccssczczczsccsc" />
    <path
       style="fill:none;stroke:#000000;stroke-width:2.62311149px;stroke-linecap:butt;stroke-linejoin:miter;stroke-opacity:1"
       d="m 178.18873,952.0866 c 0,0 -25.24551,-17.85657 -32.01867,-19.70382 -6.77319,-1.84722 -27.09273,-15.39358 -27.09273,-15.39358 l 0,0.61572"
       id="path3676" />
    <path
       style="fill:none;stroke:#000000;stroke-width:2.62311149px;stroke-linecap:butt;stroke-linejoin:miter;stroke-opacity:1"
       d="m 192.35083,937.9245 c 0,0 -20.93529,-17.85658 -24.01401,-19.08808 -3.07872,-1.2315 -17.24082,-13.54635 -25.24548,-16.00932 -8.00469,-2.46297 -18.47232,-4.92597 -18.47232,-4.92597"
       id="path3678"
       sodipodi:nodetypes="cssc" />
    <path
       style="fill:none;stroke:#000000;stroke-width:2.62311149px;stroke-linecap:butt;stroke-linejoin:miter;stroke-opacity:1"
       d="m 200.97124,922.53087 c 0,0 -17.85657,-15.39358 -22.78251,-20.31955 -3.8943,-3.89429 -12.31488,-11.08338 -18.47232,-15.39357 -4.78553,-3.34984 -15.3936,-6.77319 -15.3936,-6.77319"
       id="path3680"
       sodipodi:nodetypes="cssc" />
    <path
       style="fill:none;stroke:#000000;stroke-width:2.62311149px;stroke-linecap:butt;stroke-linejoin:miter;stroke-opacity:1"
       d="m 194.8138,982.25805 c -1.23147,3.07872 -14.1621,25.86115 -14.1621,25.86115 l 89.8986,28.94 25.86123,-42.4863 -32.63442,-11.69913"
       id="path3682" />
    <path
       style="fill:none;stroke:#000000;stroke-width:2.62311149px;stroke-linecap:butt;stroke-linejoin:miter;stroke-opacity:1"
       d="m 297.02728,994.57293 0,11.69907 -25.86123,38.1761 -90.51435,-30.1714 -0.61575,-6.1575"
       id="path3684"
       sodipodi:nodetypes="ccccc" />
    <path
       style="fill:none;stroke:#000000;stroke-width:2.62311149px;stroke-linecap:butt;stroke-linejoin:miter;stroke-opacity:1"
       d="m 297.02728,1008.1192 -0.61574,9.2362 -24.62977,33.8659 -90.51432,-31.4029 0.61575,-4.926"
       id="path3686"
       sodipodi:nodetypes="ccccc" />
    <text
       id="text3692"
       y="1045.5967"
       x="398.29468"
       style="font-size:55.55479813px;font-style:normal;font-weight:normal;fill:#000000;fill-opacity:1;stroke:none;font-family:Bitstream Vera Sans"
       xml:space="preserve"><tspan
         y="1045.5967"
         x="398.29468"
         id="tspan3694"
         sodipodi:role="line">1</tspan></text>
    <text
       xml:space="preserve"
       style="font-size:55.55479813px;font-style:normal;font-weight:normal;fill:#000000;fill-opacity:1;stroke:none;font-family:Bitstream Vera Sans"
       x="106.89426"
       y="1038.3719"
       id="text3696"><tspan
         sodipodi:role="line"
         id="tspan3698"
         x="106.89426"
         y="1038.3719">1</tspan></text>
  </g>
</svg>
