<?xml version="1.0" encoding="UTF-8" standalone="no"?>
<!-- Created with Inkscape (http://www.inkscape.org/) -->

<svg
   xmlns:dc="http://purl.org/dc/elements/1.1/"
   xmlns:cc="http://creativecommons.org/ns#"
   xmlns:rdf="http://www.w3.org/1999/02/22-rdf-syntax-ns#"
   xmlns:svg="http://www.w3.org/2000/svg"
   xmlns="http://www.w3.org/2000/svg"
   xmlns:xlink="http://www.w3.org/1999/xlink"
   xmlns:sodipodi="http://sodipodi.sourceforge.net/DTD/sodipodi-0.dtd"
   xmlns:inkscape="http://www.inkscape.org/namespaces/inkscape"
   width="505.84067"
   height="505.84067"
   id="svg3394"
   sodipodi:version="0.32"
   inkscape:version="0.47pre4 r22446"
   sodipodi:modified="true"
   version="1.0"
   sodipodi:docname="clock.svg">
  <defs
     id="defs3396">
    <inkscape:perspective
       sodipodi:type="inkscape:persp3d"
       inkscape:vp_x="0 : 252.92033 : 1"
       inkscape:vp_y="0 : 1000 : 0"
       inkscape:vp_z="505.84067 : 252.92033 : 1"
       inkscape:persp3d-origin="252.92033 : 168.61356 : 1"
       id="perspective118" />
    <linearGradient
       id="linearGradient3533">
      <stop
         id="stop3535"
         offset="0"
         style="stop-color:#eaeaea;stop-opacity:1;" />
      <stop
         style="stop-color:#747474;stop-opacity:1;"
         offset="0.28333333"
         id="stop3541" />
      <stop
         id="stop3537"
         offset="1"
         style="stop-color:#2f2f2f;stop-opacity:1;" />
    </linearGradient>
    <linearGradient
       id="linearGradient3519">
      <stop
         id="stop3521"
         offset="0"
         style="stop-color:#e3e3e3;stop-opacity:1;" />
      <stop
         id="stop3523"
         offset="1"
         style="stop-color:#4d4d4d;stop-opacity:1;" />
    </linearGradient>
    <radialGradient
       inkscape:collect="always"
       xlink:href="#linearGradient3519"
       id="radialGradient3517"
       cx="-109.77167"
       cy="268.83145"
       fx="-109.77167"
       fy="268.83145"
       r="53.068974"
       gradientUnits="userSpaceOnUse"
       gradientTransform="matrix(1.1508851,1.5818601,-0.8086287,0.5883193,233.22527,283.48067)" />
    <radialGradient
       inkscape:collect="always"
       xlink:href="#linearGradient3533"
       id="radialGradient3531"
       cx="-45.349045"
       cy="349.31546"
       fx="-45.349045"
       fy="349.31546"
       r="53.068974"
       gradientUnits="userSpaceOnUse"
       gradientTransform="matrix(1.521677,-1.3494678,1.3084517,1.4754267,-433.40485,-227.27094)" />
  </defs>
  <sodipodi:namedview
     id="base"
     pagecolor="#ffffff"
     bordercolor="#666666"
     borderopacity="1.0"
     inkscape:pageopacity="0.0"
     inkscape:pageshadow="2"
     inkscape:zoom="1.1149756"
     inkscape:cx="121.52733"
     inkscape:cy="249.33282"
     inkscape:document-units="px"
     inkscape:current-layer="layer1"
     inkscape:window-width="1232"
     inkscape:window-height="765"
     inkscape:window-x="66"
     inkscape:window-y="66"
     showgrid="false"
     inkscape:window-maximized="0" />
  <metadata
     id="metadata3399">
    <rdf:RDF>
      <cc:Work
         rdf:about="">
        <dc:format>image/svg+xml</dc:format>
        <dc:type
           rdf:resource="http://purl.org/dc/dcmitype/StillImage" />
      </cc:Work>
    </rdf:RDF>
  </metadata>
  <g
     inkscape:groupmode="layer"
     id="layer2"
     transform="translate(-29.936794,-179.44192)"
     style="display:inline">
    <path
       transform="matrix(4.7658796,0,0,4.7658796,658.04227,-1041.839)"
       d="m -25.654194,309.32407 a 53.068974,53.068974 0 1 1 -106.137946,0 53.068974,53.068974 0 1 1 106.137946,0 z"
       sodipodi:ry="53.068974"
       sodipodi:rx="53.068974"
       sodipodi:cy="309.32407"
       sodipodi:cx="-78.723167"
       id="path3509"
       style="fill:url(#radialGradient3517);fill-opacity:1;fill-rule:nonzero;stroke:none"
       sodipodi:type="arc" />
    <path
       sodipodi:type="arc"
       style="fill:url(#radialGradient3531);fill-opacity:1;fill-rule:nonzero;stroke:none"
       id="path3507"
       sodipodi:cx="-78.723167"
       sodipodi:cy="309.32407"
       sodipodi:rx="53.068974"
       sodipodi:ry="53.068974"
       d="m -25.654194,309.32407 a 53.068974,53.068974 0 1 1 -106.137946,0 53.068974,53.068974 0 1 1 106.137946,0 z"
       transform="matrix(4.2787471,0,0,4.2787471,619.69366,-891.15725)" />
    <path
       sodipodi:type="arc"
       style="fill:#e6e6e6;fill-opacity:1;fill-rule:nonzero;stroke:none"
       id="path3539"
       sodipodi:cx="-78.723167"
       sodipodi:cy="309.32407"
       sodipodi:rx="53.068974"
       sodipodi:ry="53.068974"
       d="m -25.654194,309.32407 a 53.068974,53.068974 0 1 1 -106.137946,0 53.068974,53.068974 0 1 1 106.137946,0 z"
       transform="matrix(4.0620488,0,0,4.0620488,602.63448,-824.12725)" />
    <path
       transform="matrix(3.8274385,0,0,3.8274385,584.16522,-751.55665)"
       d="m -25.654194,309.32407 a 53.068974,53.068974 0 1 1 -106.137946,0 53.068974,53.068974 0 1 1 106.137946,0 z"
       sodipodi:ry="53.068974"
       sodipodi:rx="53.068974"
       sodipodi:cy="309.32407"
       sodipodi:cx="-78.723167"
       id="path3499"
       style="fill:#cccccc;fill-opacity:1;fill-rule:nonzero;stroke:none"
       sodipodi:type="arc" />
    <path
       sodipodi:type="arc"
       style="fill:#e6e6e6;fill-opacity:1;fill-rule:nonzero;stroke:none"
       id="path3502"
       sodipodi:cx="-78.723167"
       sodipodi:cy="309.32407"
       sodipodi:rx="53.068974"
       sodipodi:ry="53.068974"
       d="m -25.654194,309.32407 a 53.068974,53.068974 0 1 1 -106.137946,0 53.068974,53.068974 0 1 1 106.137946,0 z"
       transform="matrix(3.0797662,1.8084944,-1.8084944,3.0797662,1084.7169,-377.91323)" />
  </g>
  <g
     inkscape:label="Livello 1"
     inkscape:groupmode="layer"
     id="layer1"
     style="display:inline"
     transform="translate(-29.936794,-179.44192)">
    <g
       transform="matrix(3.543307,0,0,3.543307,282.85714,-619.99999)"
       style="fill:#999999;display:inline"
       id="layer9">
      <line
         style="fill:#999999;fill-rule:evenodd;stroke:#000000;stroke-width:0.0762"
         id="line2249"
         y2="243.31599"
         x2="0"
         y1="239.96899"
         x1="0"
         class="fil4 str0" />
      <line
         style="fill:#999999;fill-rule:evenodd;stroke:#000000;stroke-width:0.0762"
         id="line2251"
         y2="243.61"
         x2="-5.6114998"
         y1="240.28101"
         x1="-5.9614"
         class="fil4 str0" />
      <line
         style="fill:#999999;fill-rule:evenodd;stroke:#000000;stroke-width:0.0762"
         id="line2253"
         y2="244.489"
         x2="-11.1616"
         y1="241.215"
         x1="-11.8574"
         class="fil4 str0" />
      <line
         style="fill:#999999;fill-rule:evenodd;stroke:#000000;stroke-width:0.0762"
         id="line2255"
         y2="245.94299"
         x2="-16.589399"
         y1="242.75999"
         x1="-17.623501"
         class="fil4 str0" />
      <line
         style="fill:#999999;fill-rule:evenodd;stroke:#000000;stroke-width:0.0762"
         id="line2257"
         y2="247.957"
         x2="-21.8354"
         y1="244.89999"
         x1="-23.1966"
         class="fil4 str0" />
      <line
         style="fill:#999999;fill-rule:evenodd;stroke:#000000;stroke-width:0.0762"
         id="line2259"
         y2="250.508"
         x2="-26.842199"
         y1="247.61"
         x1="-28.5154"
         class="fil4 str0" />
      <line
         style="fill:#999999;fill-rule:evenodd;stroke:#000000;stroke-width:0.0762"
         id="line2261"
         y2="253.56799"
         x2="-31.554899"
         y1="250.86099"
         x1="-33.5219"
         class="fil4 str0" />
      <line
         style="fill:#999999;fill-rule:evenodd;stroke:#000000;stroke-width:0.0762"
         id="line2263"
         y2="257.10501"
         x2="-35.921902"
         y1="254.618"
         x1="-38.161098"
         class="fil4 str0" />
      <line
         style="fill:#999999;fill-rule:evenodd;stroke:#000000;stroke-width:0.0762"
         id="line2265"
         y2="261.078"
         x2="-39.895302"
         y1="258.83899"
         x1="-42.382198"
         class="fil4 str0" />
      <line
         style="fill:#999999;fill-rule:evenodd;stroke:#000000;stroke-width:0.0762"
         id="line2267"
         y2="265.44501"
         x2="-43.431599"
         y1="263.478"
         x1="-46.139"
         class="fil4 str0" />
      <line
         style="fill:#999999;fill-rule:evenodd;stroke:#000000;stroke-width:0.0762"
         id="line2269"
         y2="270.15799"
         x2="-46.4921"
         y1="268.48499"
         x1="-49.390202"
         class="fil4 str0" />
      <line
         style="fill:#999999;fill-rule:evenodd;stroke:#000000;stroke-width:0.0762"
         id="line2271"
         y2="275.16501"
         x2="-49.043098"
         y1="273.80301"
         x1="-52.1003"
         class="fil4 str0" />
      <line
         style="fill:#999999;fill-rule:evenodd;stroke:#000000;stroke-width:0.0762"
         id="line2273"
         y2="280.41101"
         x2="-51.0569"
         y1="279.37601"
         x1="-54.239601"
         class="fil4 str0" />
      <line
         style="fill:#999999;fill-rule:evenodd;stroke:#000000;stroke-width:0.0762"
         id="line2275"
         y2="285.83801"
         x2="-52.511299"
         y1="285.14301"
         x1="-55.784599"
         class="fil4 str0" />
      <line
         style="fill:#999999;fill-rule:evenodd;stroke:#000000;stroke-width:0.0762"
         id="line2277"
         y2="291.38901"
         x2="-53.390301"
         y1="291.039"
         x1="-56.718498"
         class="fil4 str0" />
      <line
         style="fill:#999999;fill-rule:evenodd;stroke:#000000;stroke-width:0.0762"
         id="line2279"
         y2="297"
         x2="-53.684399"
         y1="297"
         x1="-57.030899"
         class="fil4 str0" />
      <line
         style="fill:#999999;fill-rule:evenodd;stroke:#000000;stroke-width:0.0762"
         id="line2281"
         y2="302.61099"
         x2="-53.390301"
         y1="302.961"
         x1="-56.718498"
         class="fil4 str0" />
      <line
         style="fill:#999999;fill-rule:evenodd;stroke:#000000;stroke-width:0.0762"
         id="line2283"
         y2="308.16199"
         x2="-52.511299"
         y1="308.85699"
         x1="-55.784599"
         class="fil4 str0" />
      <line
         style="fill:#999999;fill-rule:evenodd;stroke:#000000;stroke-width:0.0762"
         id="line2285"
         y2="313.58899"
         x2="-51.0569"
         y1="314.62399"
         x1="-54.239601"
         class="fil4 str0" />
      <line
         style="fill:#999999;fill-rule:evenodd;stroke:#000000;stroke-width:0.0762"
         id="line2287"
         y2="318.83499"
         x2="-49.043098"
         y1="320.19699"
         x1="-52.1003"
         class="fil4 str0" />
      <line
         style="fill:#999999;fill-rule:evenodd;stroke:#000000;stroke-width:0.0762"
         id="line2289"
         y2="323.84201"
         x2="-46.4921"
         y1="325.51501"
         x1="-49.390202"
         class="fil4 str0" />
      <line
         style="fill:#999999;fill-rule:evenodd;stroke:#000000;stroke-width:0.0762"
         id="line2291"
         y2="328.55499"
         x2="-43.431599"
         y1="330.522"
         x1="-46.139"
         class="fil4 str0" />
      <line
         style="fill:#999999;fill-rule:evenodd;stroke:#000000;stroke-width:0.0762"
         id="line2293"
         y2="332.922"
         x2="-39.895302"
         y1="335.16101"
         x1="-42.382198"
         class="fil4 str0" />
      <line
         style="fill:#999999;fill-rule:evenodd;stroke:#000000;stroke-width:0.0762"
         id="line2295"
         y2="336.89499"
         x2="-35.921902"
         y1="339.38199"
         x1="-38.161098"
         class="fil4 str0" />
      <line
         style="fill:#999999;fill-rule:evenodd;stroke:#000000;stroke-width:0.0762"
         id="line2297"
         y2="340.43201"
         x2="-31.554899"
         y1="343.13901"
         x1="-33.5219"
         class="fil4 str0" />
      <line
         style="fill:#999999;fill-rule:evenodd;stroke:#000000;stroke-width:0.0762"
         id="line2299"
         y2="343.492"
         x2="-26.842199"
         y1="346.39001"
         x1="-28.515499"
         class="fil4 str0" />
      <line
         style="fill:#999999;fill-rule:evenodd;stroke:#000000;stroke-width:0.0762"
         id="line2301"
         y2="346.043"
         x2="-21.8354"
         y1="349.10001"
         x1="-23.1966"
         class="fil4 str0" />
      <line
         style="fill:#999999;fill-rule:evenodd;stroke:#000000;stroke-width:0.0762"
         id="line2303"
         y2="348.05701"
         x2="-16.589399"
         y1="351.23999"
         x1="-17.623501"
         class="fil4 str0" />
      <line
         style="fill:#999999;fill-rule:evenodd;stroke:#000000;stroke-width:0.0762"
         id="line2305"
         y2="349.51099"
         x2="-11.1616"
         y1="352.785"
         x1="-11.8574"
         class="fil4 str0" />
      <line
         style="fill:#999999;fill-rule:evenodd;stroke:#000000;stroke-width:0.0762"
         id="line2307"
         y2="350.39001"
         x2="-5.6114998"
         y1="353.71899"
         x1="-5.9614"
         class="fil4 str0" />
      <line
         style="fill:#999999;fill-rule:evenodd;stroke:#000000;stroke-width:0.0762"
         id="line2309"
         y2="350.68399"
         x2="0"
         y1="354.03101"
         x1="0"
         class="fil4 str0" />
      <line
         style="fill:#999999;fill-rule:evenodd;stroke:#000000;stroke-width:0.0762"
         id="line2311"
         y2="350.39001"
         x2="5.6114998"
         y1="353.71899"
         x1="5.9614"
         class="fil4 str0" />
      <line
         style="fill:#999999;fill-rule:evenodd;stroke:#000000;stroke-width:0.0762"
         id="line2313"
         y2="349.51099"
         x2="11.1616"
         y1="352.785"
         x1="11.8574"
         class="fil4 str0" />
      <line
         style="fill:#999999;fill-rule:evenodd;stroke:#000000;stroke-width:0.0762"
         id="line2315"
         y2="348.05701"
         x2="16.589399"
         y1="351.23999"
         x1="17.623501"
         class="fil4 str0" />
      <line
         style="fill:#999999;fill-rule:evenodd;stroke:#000000;stroke-width:0.0762"
         id="line2317"
         y2="346.043"
         x2="21.8354"
         y1="349.10001"
         x1="23.1966"
         class="fil4 str0" />
      <line
         style="fill:#999999;fill-rule:evenodd;stroke:#000000;stroke-width:0.0762"
         id="line2319"
         y2="343.492"
         x2="26.842199"
         y1="346.39001"
         x1="28.5154"
         class="fil4 str0" />
      <line
         style="fill:#999999;fill-rule:evenodd;stroke:#000000;stroke-width:0.0762"
         id="line2321"
         y2="340.43201"
         x2="31.554899"
         y1="343.13901"
         x1="33.5219"
         class="fil4 str0" />
      <line
         style="fill:#999999;fill-rule:evenodd;stroke:#000000;stroke-width:0.0762"
         id="line2323"
         y2="336.89499"
         x2="35.921902"
         y1="339.38199"
         x1="38.161098"
         class="fil4 str0" />
      <line
         style="fill:#999999;fill-rule:evenodd;stroke:#000000;stroke-width:0.0762"
         id="line2325"
         y2="332.922"
         x2="39.895302"
         y1="335.16101"
         x1="42.382198"
         class="fil4 str0" />
      <line
         style="fill:#999999;fill-rule:evenodd;stroke:#000000;stroke-width:0.0762"
         id="line2327"
         y2="328.55499"
         x2="43.431599"
         y1="330.522"
         x1="46.139"
         class="fil4 str0" />
      <line
         style="fill:#999999;fill-rule:evenodd;stroke:#000000;stroke-width:0.0762"
         id="line2329"
         y2="323.84201"
         x2="46.4921"
         y1="325.51501"
         x1="49.390202"
         class="fil4 str0" />
      <line
         style="fill:#999999;fill-rule:evenodd;stroke:#000000;stroke-width:0.0762"
         id="line2331"
         y2="318.83499"
         x2="49.043098"
         y1="320.19699"
         x1="52.1003"
         class="fil4 str0" />
      <line
         style="fill:#999999;fill-rule:evenodd;stroke:#000000;stroke-width:0.0762"
         id="line2333"
         y2="313.58899"
         x2="51.0569"
         y1="314.62399"
         x1="54.239601"
         class="fil4 str0" />
      <line
         style="fill:#999999;fill-rule:evenodd;stroke:#000000;stroke-width:0.0762"
         id="line2335"
         y2="308.16199"
         x2="52.511299"
         y1="308.85699"
         x1="55.784599"
         class="fil4 str0" />
      <line
         style="fill:#999999;fill-rule:evenodd;stroke:#000000;stroke-width:0.0762"
         id="line2337"
         y2="302.61099"
         x2="53.390301"
         y1="302.961"
         x1="56.718498"
         class="fil4 str0" />
      <line
         style="fill:#999999;fill-rule:evenodd;stroke:#000000;stroke-width:0.0762"
         id="line2339"
         y2="297"
         x2="53.684399"
         y1="297"
         x1="57.030899"
         class="fil4 str0" />
      <line
         style="fill:#999999;fill-rule:evenodd;stroke:#000000;stroke-width:0.0762"
         id="line2341"
         y2="291.38901"
         x2="53.390301"
         y1="291.039"
         x1="56.718498"
         class="fil4 str0" />
      <line
         style="fill:#999999;fill-rule:evenodd;stroke:#000000;stroke-width:0.0762"
         id="line2343"
         y2="285.83801"
         x2="52.511299"
         y1="285.14301"
         x1="55.784599"
         class="fil4 str0" />
      <line
         style="fill:#999999;fill-rule:evenodd;stroke:#000000;stroke-width:0.0762"
         id="line2345"
         y2="280.41101"
         x2="51.0569"
         y1="279.37601"
         x1="54.239601"
         class="fil4 str0" />
      <line
         style="fill:#999999;fill-rule:evenodd;stroke:#000000;stroke-width:0.0762"
         id="line2347"
         y2="275.16501"
         x2="49.043098"
         y1="273.80301"
         x1="52.1003"
         class="fil4 str0" />
      <line
         style="fill:#999999;fill-rule:evenodd;stroke:#000000;stroke-width:0.0762"
         id="line2349"
         y2="270.15799"
         x2="46.4921"
         y1="268.48499"
         x1="49.390202"
         class="fil4 str0" />
      <line
         style="fill:#999999;fill-rule:evenodd;stroke:#000000;stroke-width:0.0762"
         id="line2351"
         y2="265.44501"
         x2="43.431599"
         y1="263.478"
         x1="46.139"
         class="fil4 str0" />
      <line
         style="fill:#999999;fill-rule:evenodd;stroke:#000000;stroke-width:0.0762"
         id="line2353"
         y2="261.078"
         x2="39.895302"
         y1="258.83899"
         x1="42.382198"
         class="fil4 str0" />
      <line
         style="fill:#999999;fill-rule:evenodd;stroke:#000000;stroke-width:0.0762"
         id="line2355"
         y2="257.10501"
         x2="35.921902"
         y1="254.618"
         x1="38.161098"
         class="fil4 str0" />
      <line
         style="fill:#999999;fill-rule:evenodd;stroke:#000000;stroke-width:0.0762"
         id="line2357"
         y2="253.56799"
         x2="31.554899"
         y1="250.86099"
         x1="33.5219"
         class="fil4 str0" />
      <line
         style="fill:#999999;fill-rule:evenodd;stroke:#000000;stroke-width:0.0762"
         id="line2359"
         y2="250.508"
         x2="26.842199"
         y1="247.61"
         x1="28.515499"
         class="fil4 str0" />
      <line
         style="fill:#999999;fill-rule:evenodd;stroke:#000000;stroke-width:0.0762"
         id="line2361"
         y2="247.957"
         x2="21.8354"
         y1="244.89999"
         x1="23.1966"
         class="fil4 str0" />
      <line
         style="fill:#999999;fill-rule:evenodd;stroke:#000000;stroke-width:0.0762"
         id="line2363"
         y2="245.94299"
         x2="16.589399"
         y1="242.75999"
         x1="17.623501"
         class="fil4 str0" />
      <line
         style="fill:#999999;fill-rule:evenodd;stroke:#000000;stroke-width:0.0762"
         id="line2365"
         y2="244.489"
         x2="11.1616"
         y1="241.215"
         x1="11.8574"
         class="fil4 str0" />
      <line
         style="fill:#999999;fill-rule:evenodd;stroke:#000000;stroke-width:0.0762"
         id="line2367"
         y2="243.61"
         x2="5.6114998"
         y1="240.28101"
         x1="5.9614"
         class="fil4 str0" />
    </g>
    <g
       transform="matrix(3.543307,0,0,3.543307,282.85714,-619.99999)"
       style="display:inline"
       id="layer10">
      <polygon
         points="0,243.316 -1.4881,239.969 1.548,239.969 1.548,239.969 "
         style="fill:#000000;fill-rule:evenodd;stroke:#000000;stroke-width:0.0762"
         id="polygon2219" />
      <polygon
         points="-26.8422,250.508 -29.8042,248.354 -27.1748,246.836 -27.1748,246.836 "
         style="fill:#000000;fill-rule:evenodd;stroke:#000000;stroke-width:0.0762"
         id="polygon2221" />
      <polygon
         points="-46.492,270.158 -50.1342,269.773 -48.6162,267.144 -48.6162,267.144 "
         style="fill:#000000;fill-rule:evenodd;stroke:#000000;stroke-width:0.0762"
         id="polygon2223" />
      <polygon
         points="-53.6843,297 -57.0309,298.488 -57.0309,295.452 -57.0309,295.452 "
         style="fill:#000000;fill-rule:evenodd;stroke:#000000;stroke-width:0.0762"
         id="polygon2225" />
      <polygon
         points="-46.492,323.842 -48.6462,326.804 -50.1642,324.175 -50.1642,324.175 "
         style="fill:#000000;fill-rule:evenodd;stroke:#000000;stroke-width:0.0762"
         id="polygon2227" />
      <polygon
         points="-26.8422,343.492 -27.2267,347.134 -29.8561,345.616 -29.8561,345.616 "
         style="fill:#000000;fill-rule:evenodd;stroke:#000000;stroke-width:0.0762"
         id="polygon2229" />
      <polygon
         points="0,350.684 1.4881,354.031 -1.548,354.031 -1.548,354.031 "
         style="fill:#000000;fill-rule:evenodd;stroke:#000000;stroke-width:0.0762"
         id="polygon2231" />
      <polygon
         points="26.8422,343.492 29.8042,345.646 27.1748,347.164 27.1748,347.164 "
         style="fill:#000000;fill-rule:evenodd;stroke:#000000;stroke-width:0.0762"
         id="polygon2233" />
      <polygon
         points="46.492,323.842 50.1342,324.227 48.6162,326.856 48.6162,326.856 "
         style="fill:#000000;fill-rule:evenodd;stroke:#000000;stroke-width:0.0762"
         id="polygon2235" />
      <polygon
         points="53.6843,297 57.0309,295.512 57.0309,298.548 57.0309,298.548 "
         style="fill:#000000;fill-rule:evenodd;stroke:#000000;stroke-width:0.0762"
         id="polygon2237" />
      <polygon
         points="46.492,270.158 48.6462,267.196 50.1642,269.825 50.1642,269.825 "
         style="fill:#000000;fill-rule:evenodd;stroke:#000000;stroke-width:0.0762"
         id="polygon2239" />
      <polygon
         points="26.8422,250.508 27.2267,246.866 29.8561,248.384 29.8561,248.384 "
         style="fill:#000000;fill-rule:evenodd;stroke:#000000;stroke-width:0.0762"
         id="polygon2241" />
    </g>
    <g
       transform="matrix(3.543307,0,0,3.543307,282.85714,-619.99999)"
       style="display:inline"
       id="layer11">
      <path
         d="m -5.1298,255.569 -0.8968,3.1496 c -0.0663,0.2333 -0.1128,0.4447 -0.1425,0.6234 -0.0282,0.1822 -0.0437,0.3681 -0.0437,0.5613 0,0.3281 0.0635,0.5651 0.189,0.7145 0.1255,0.1495 0.3341,0.2261 0.626,0.2261 l 0.0734,0 0,0.6306 -2.3957,0 0,-0.6306 c 0.2481,-0.0292 0.4695,-0.1969 0.6655,-0.5068 0.1946,-0.3098 0.3906,-0.8056 0.5866,-1.4909 l 1.1605,-3.9516 -1.9544,-8.0089 -0.4131,0 0,-0.5869 3.8466,0 0,0.5869 -0.6232,0 1.1069,4.4656 0.6768,-2.2966 c 0.0663,-0.2223 0.1157,-0.4265 0.1481,-0.6197 0.031,-0.1932 0.0465,-0.3827 0.0465,-0.565 0,-0.3427 -0.062,-0.5869 -0.1875,-0.7364 -0.1255,-0.1494 -0.3328,-0.226 -0.6218,-0.226 l -0.079,0 0,-0.6088 2.3802,0 0,0.6088 c -0.2426,0.0292 -0.4597,0.1969 -0.6501,0.5031 -0.1917,0.3062 -0.3934,0.8056 -0.6063,1.5055 l -0.9292,3.1277 2.1475,8.8 0.3765,0 0,0.6306 -3.8509,0 0,-0.6306 0.6416,0 -1.2775,-5.2749 0,0 z m 4.6433,5.9055 0,-0.6306 0.7473,0 0,-13.9582 -0.7473,0 0,-0.5869 3.8734,0 0,0.5869 -0.7431,0 0,13.9582 0.7431,0 0,0.6306 -3.8734,0 z m 4.3331,0 0,-0.6306 0.7473,0 0,-13.9582 -0.7473,0 0,-0.5869 3.8735,0 0,0.5869 -0.7431,0 0,13.9582 0.7431,0 0,0.6306 -3.8735,0 z"
         style="fill:#000000;fill-rule:nonzero"
         id="path2429" />
      <path
         d="m -23.282,262.601 0.7981,3.176 c 0.0593,0.2352 0.1247,0.4416 0.1884,0.6111 0.0667,0.1719 0.1462,0.3407 0.2428,0.508 0.164,0.2841 0.3375,0.4576 0.5209,0.5243 0.1834,0.0667 0.4024,0.0287 0.6552,-0.1172 l 0.0635,-0.0367 0.3153,0.5461 -2.0747,1.1979 -0.3153,-0.5461 c 0.2003,-0.1494 0.3082,-0.4053 0.3229,-0.7717 0.0137,-0.3656 -0.0645,-0.893 -0.2374,-1.5845 l -0.9708,-4.0024 -5.6969,-5.9587 -0.3578,0.2065 -0.2935,-0.5082 3.3313,-1.9234 0.2934,0.5083 -0.5397,0.3116 3.1914,3.3139 -0.5621,-2.3273 c -0.0538,-0.2257 -0.1131,-0.4272 -0.1817,-0.6107 -0.0697,-0.1829 -0.151,-0.3547 -0.2422,-0.5126 -0.1713,-0.2968 -0.3472,-0.4773 -0.5306,-0.544 -0.1833,-0.0666 -0.4012,-0.0293 -0.6515,0.1152 l -0.0684,0.0395 -0.3044,-0.5272 2.0613,-1.1901 0.3044,0.5272 c -0.1954,0.1466 -0.2996,0.4004 -0.3114,0.7607 -0.013,0.3611 0.0621,0.8944 0.2277,1.607 l 0.7591,3.1733 6.2598,6.5472 0.326,-0.1882 0.3153,0.5461 -3.3349,1.9255 -0.3153,-0.5462 0.5556,-0.3208 -3.7438,-3.9294 0,0 z m 6.974,2.7927 -0.3153,-0.5462 0.6472,-0.3736 -6.9791,-12.0882 -0.6472,0.3737 -0.2935,-0.5083 3.3545,-1.9367 0.2935,0.5083 -0.6436,0.3715 6.9791,12.0882 0.6436,-0.3716 0.3153,0.5461 -3.3545,1.9368 0,0 z"
         style="fill:#000000;fill-rule:nonzero"
         id="path2431" />
      <path
         d="m -36.2791,276.974 2.2792,2.3515 c 0.169,0.174 0.3288,0.32 0.4687,0.435 0.1437,0.1155 0.2969,0.2219 0.4643,0.3185 0.2841,0.1641 0.5211,0.2276 0.7132,0.1936 0.1922,-0.0339 0.3629,-0.1763 0.5088,-0.4291 l 0.0367,-0.0635 0.5461,0.3153 -1.1978,2.0747 -0.5461,-0.3153 c 0.0988,-0.2295 0.0642,-0.5051 -0.1062,-0.8297 -0.171,-0.3235 -0.5023,-0.7411 -0.9978,-1.2535 l -2.842,-2.9808 -7.913,-2.312 -0.2066,0.3578 -0.5083,-0.2934 1.9233,-3.3313 0.5083,0.2935 -0.3116,0.5397 4.4208,1.2742 -1.6505,-1.7345 c -0.1594,-0.1685 -0.3116,-0.3134 -0.4627,-0.438 -0.1518,-0.1235 -0.3082,-0.2317 -0.466,-0.3228 -0.2968,-0.1714 -0.5393,-0.2397 -0.7315,-0.2058 -0.1922,0.0339 -0.3621,0.1752 -0.5067,0.4255 l -0.0395,0.0684 -0.5272,-0.3044 1.1901,-2.0613 0.5272,0.3044 c -0.0959,0.2246 -0.0593,0.4965 0.1107,0.8145 0.1693,0.3192 0.501,0.7435 1.0006,1.2778 l 2.2441,2.3686 8.6948,2.5402 0.1882,-0.326 0.5461,0.3153 -1.9254,3.3349 -0.5461,-0.3153 0.3208,-0.5556 -5.207,-1.5311 z"
         style="fill:#000000;fill-rule:nonzero"
         id="path2433" />
      <path
         d="m -35.526,302.215 -0.6306,0 0,-0.7474 -13.9582,0 0,0.7474 -0.5869,0 0,-3.8735 0.5869,0 0,0.7431 13.9582,0 0,-0.7431 0.6306,0 0,3.8735 z m -5.9055,-6.5851 3.1496,0.8968 c 0.2333,0.0663 0.4447,0.1128 0.6234,0.1425 0.1822,0.0282 0.3681,0.0437 0.5613,0.0437 0.3281,0 0.5651,-0.0635 0.7145,-0.189 0.1495,-0.1255 0.2261,-0.3341 0.2261,-0.626 l 0,-0.0734 0.6306,0 0,2.3957 -0.6306,0 c -0.0292,-0.2481 -0.1969,-0.4695 -0.5068,-0.6655 -0.3098,-0.1946 -0.8056,-0.3906 -1.4909,-0.5866 l -3.9516,-1.1605 -8.0089,1.9543 0,0.4132 -0.5869,0 0,-3.8466 0.5869,0 0,0.6232 4.4656,-1.1069 -2.2966,-0.6769 c -0.2223,-0.0662 -0.4265,-0.1156 -0.6197,-0.148 -0.1932,-0.031 -0.3827,-0.0465 -0.565,-0.0465 -0.3427,0 -0.5869,0.062 -0.7364,0.1875 -0.1494,0.1255 -0.226,0.3328 -0.226,0.6218 l 0,0.079 -0.6088,0 0,-2.3802 0.6088,0 c 0.0292,0.2426 0.1969,0.4597 0.5031,0.6501 0.3062,0.1917 0.8056,0.3934 1.5055,0.6063 l 3.1277,0.9292 8.8,-2.1475 0,-0.3765 0.6306,0 0,3.8509 -0.6306,0 0,-0.6416 -5.2749,1.2775 0,0 z"
         style="fill:#000000;fill-rule:nonzero"
         id="path2435" />
      <path
         d="m -27.9124,319.706 0.6507,1.1271 -11.5436,9.1835 0.2376,0.4116 -0.5082,0.2934 -1.8648,-3.2299 0.5082,-0.2935 0.4068,0.7046 7.8044,-6.2187 -7.5346,2.9238 c -0.14,0.0564 -0.2684,0.111 -0.3878,0.1669 -0.1161,0.054 -0.2199,0.1074 -0.3115,0.1603 -0.3157,0.1823 -0.5253,0.3586 -0.6335,0.5285 -0.1082,0.17 -0.1194,0.3474 -0.0382,0.5318 l -0.5083,0.2934 -0.8073,-1.3982 0.5083,-0.2935 0.0247,0.0428 c 0.0775,0.1343 0.267,0.178 0.569,0.1323 0.3018,-0.0457 0.7704,-0.1892 1.4049,-0.4318 l 12.0232,-4.6344 0,0 z m -1.3755,-2.3825 -0.5462,0.3153 -0.3736,-0.6472 -12.0882,6.9791 0.3737,0.6472 -0.5083,0.2934 -1.9367,-3.3545 0.5083,-0.2934 0.3715,0.6435 12.0882,-6.9791 -0.3716,-0.6435 0.5461,-0.3153 1.9368,3.3545 0,0 z m -2.1666,-3.7526 -0.5461,0.3153 -0.3737,-0.6472 -12.0881,6.9791 0.3736,0.6472 -0.5083,0.2934 -1.9367,-3.3545 0.5083,-0.2934 0.3715,0.6435 12.0882,-6.9791 -0.3715,-0.6435 0.5461,-0.3153 1.9367,3.3545 0,0 z m -2.1666,-3.7526 -0.5461,0.3153 -0.3737,-0.6472 -12.0881,6.9791 0.3737,0.6472 -0.5083,0.2934 -1.9367,-3.3545 0.5082,-0.2934 0.3716,0.6435 12.0881,-6.9791 -0.3715,-0.6435 0.5461,-0.3153 1.9367,3.3545 0,0 z"
         style="fill:#000000;fill-rule:nonzero"
         id="path2437" />
      <path
         d="m -14.696,329.537 1.1271,0.6508 -5.4053,13.7249 0.4116,0.2376 -0.2935,0.5083 -3.2299,-1.8648 0.2934,-0.5083 0.7046,0.4068 3.6494,-9.2877 -5.0632,6.2993 c -0.0931,0.1189 -0.177,0.2304 -0.2524,0.3385 -0.0736,0.1048 -0.1368,0.203 -0.1896,0.2945 -0.1823,0.3158 -0.2757,0.5733 -0.2844,0.7745 -0.0087,0.2013 0.0703,0.3606 0.2328,0.4797 l -0.2935,0.5082 -1.3982,-0.8072 0.2934,-0.5083 0.0428,0.0247 c 0.1343,0.0775 0.3202,0.0207 0.5589,-0.1699 0.2386,-0.1906 0.5726,-0.5491 1.0008,-1.0764 l 8.0952,-10.0252 0,0 z m -2.3825,-1.3755 -0.3153,0.5461 -0.6472,-0.3736 -6.9791,12.0881 0.6472,0.3737 -0.2935,0.5083 -3.3545,-1.9368 0.2935,-0.5082 0.6435,0.3715 6.9791,-12.0881 -0.6435,-0.3716 0.3153,-0.5461 3.3545,1.9367 z m -3.7526,-2.1666 -0.3153,0.5462 -0.6472,-0.3737 -6.9791,12.0882 0.6472,0.3736 -0.2935,0.5083 -3.3545,-1.9367 0.2935,-0.5083 0.6435,0.3715 6.9791,-12.0881 -0.6435,-0.3716 0.3153,-0.5461 3.3545,1.9367 z"
         style="fill:#000000;fill-rule:nonzero"
         id="path2439" />
      <path
         d="m 1.3749,332.526 1.3015,0 2.1813,14.5888 0.4752,0 0,0.5869 -3.7296,0 0,-0.5869 0.8136,0 -1.4834,-9.8681 -1.2352,7.987 c -0.0212,0.1495 -0.0381,0.288 -0.0494,0.4193 -0.0112,0.1276 -0.0169,0.2442 -0.0169,0.3499 0,0.3646 0.048,0.6343 0.141,0.8129 0.0931,0.1787 0.2411,0.2771 0.4414,0.299 l 0,0.5869 -1.6146,0 0,-0.5869 0.0494,0 c 0.1551,0 0.2877,-0.1422 0.3991,-0.4266 0.1113,-0.2843 0.2213,-0.7618 0.3285,-1.4326 l 1.9981,-12.7296 0,0 z m -2.7511,0 0,0.6306 -0.7473,0 0,13.9582 0.7473,0 0,0.5869 -3.8734,0 0,-0.5869 0.7431,0 0,-13.9582 -0.7431,0 0,-0.6306 3.8734,0 0,0 z"
         style="fill:#000000;fill-rule:nonzero"
         id="path2441" />
      <path
         d="m 17.0774,328.162 1.1271,-0.6508 9.1835,11.5436 0.4116,-0.2376 0.2934,0.5083 -3.2299,1.8648 -0.2935,-0.5083 0.7046,-0.4068 -6.2187,-7.8043 2.9238,7.5345 c 0.0564,0.1401 0.111,0.2685 0.1669,0.3878 0.054,0.1162 0.1074,0.22 0.1603,0.3115 0.1823,0.3158 0.3586,0.5254 0.5285,0.6335 0.17,0.1082 0.3474,0.1194 0.5318,0.0383 l 0.2934,0.5083 -1.3982,0.8072 -0.2935,-0.5082 0.0428,-0.0247 c 0.1343,-0.0776 0.178,-0.267 0.1323,-0.569 -0.0457,-0.3019 -0.1892,-0.7704 -0.4318,-1.4049 l -4.6344,-12.0232 0,0 z"
         style="fill:#000000;fill-rule:nonzero"
         id="path2443" />
      <path
         d="m 33.2221,310.51 0.5461,0.3153 -0.3737,0.6472 12.0882,6.9791 0.3736,-0.6472 0.5083,0.2934 -1.9367,3.3545 -0.5083,-0.2934 0.3716,-0.6436 -12.0882,-6.9791 -0.3715,0.6436 -0.5461,-0.3153 1.9367,-3.3545 0,0 z m -3.9348,6.8152 0.6507,-1.1271 13.725,5.4053 0.2376,-0.4116 0.5083,0.2935 -1.8649,3.2299 -0.5082,-0.2934 0.4068,-0.7046 -9.2877,-3.6494 6.2993,5.0632 c 0.1189,0.0931 0.2304,0.177 0.3384,0.2524 0.1049,0.0736 0.2031,0.1368 0.2946,0.1896 0.3157,0.1823 0.5733,0.2757 0.7745,0.2844 0.2013,0.009 0.3605,-0.0703 0.4796,-0.2328 l 0.5083,0.2935 -0.8073,1.3982 -0.5083,-0.2934 0.0247,-0.0428 c 0.0776,-0.1343 0.0207,-0.3202 -0.1699,-0.5589 -0.1905,-0.2386 -0.549,-0.5726 -1.0764,-1.0008 l -10.0251,-8.0952 0,0 z"
         style="fill:#000000;fill-rule:nonzero"
         id="path2445" />
      <path
         d="m 35.526,290.899 0.6306,0 0,0.7473 13.9582,0 0,-0.7473 0.5869,0 0,3.8735 -0.5869,0 0,-0.7431 -13.9582,0 0,0.7431 -0.6306,0 0,-3.8735 z m 0,4.3332 0.6306,0 0,0.7473 13.9582,0 0,-0.7473 0.5869,0 0,3.8734 -0.5869,0 0,-0.7431 -13.9582,0 0,0.7431 -0.6306,0 0,-3.8734 z m 0,4.3331 0.6306,0 0,0.7473 13.9582,0 0,-0.7473 0.5869,0 0,3.8734 -0.5869,0 0,-0.7431 -13.9582,0 0,0.7431 -0.6306,0 0,-3.8734 z"
         style="fill:#000000;fill-rule:nonzero"
         id="path2447" />
      <path
         d="m 28.7994,275.83 0.5461,-0.3153 0.3736,0.6472 12.0882,-6.9791 -0.3737,-0.6472 0.5083,-0.2935 1.9367,3.3545 -0.5082,0.2935 -0.3716,-0.6436 -12.0882,6.9791 0.3716,0.6436 -0.5461,0.3153 -1.9367,-3.3545 z m 2.1665,3.7526 0.5461,-0.3153 0.3737,0.6472 12.0882,-6.9791 -0.3737,-0.6472 0.5083,-0.2935 1.9367,3.3545 -0.5083,0.2935 -0.3715,-0.6436 -12.0882,6.9791 0.3716,0.6436 -0.5461,0.3153 -1.9368,-3.3545 z"
         style="fill:#000000;fill-rule:nonzero"
         id="path2449" />
      <polygon
         points="16.2323,265.35 16.5476,264.804 17.1948,265.177 24.1739,253.089 23.5267,252.716 23.8201,252.207 27.1746,254.144 26.8812,254.652 26.2376,254.281 19.2585,266.369 19.9021,266.74 19.5868,267.286 16.2323,265.35 "
         style="fill:#000000;fill-rule:nonzero"
         id="polygon2451" />
    </g>
    <g
       transform="matrix(-2.0133055,2.9157547,-2.9157547,-2.0133055,1149.4098,1031.4069)"
       style="display:inline"
       id="layer13"
       inkscape:transform-center-y="44.375649"
       inkscape:transform-center-x="-64.266718">
      <g
         style="fill-rule:evenodd"
         id="Livello_x0020_7">
        <polygon
           points="0,307.824 -1.6308,305.081 -0.8942,297 -1.6135,288.633 -0.6496,257.735 -1.1921,257.735 -1.193,256.024 -0.5239,256.024 -1.357,249.243 0,242.487 1.357,249.243 0.5239,256.024 1.193,256.024 1.1921,257.735 0.6496,257.735 1.6135,288.633 0.8942,297 1.6308,305.081 0,307.824 "
           style="fill:#000000;stroke:#000000;stroke-width:0.0762"
           id="polygon2375" />
      </g>
    </g>
    <g
       transform="matrix(-2.6350956,2.3688173,-2.3688173,-2.6350956,985.97662,1213.8921)"
       style="display:inline"
       id="layer14"
       inkscape:transform-center-y="33.669996"
       inkscape:transform-center-x="-30.267585">
      <g
         style="fill-rule:evenodd"
         id="Livello_x0020_6">
        <polygon
           points="1.6308,305.081 0,307.824 0,307.824 -1.6308,305.081 -0.8942,297 -1.6135,288.633 -0.6496,275.515 -1.1921,275.515 -1.193,273.804 -0.5239,273.804 -1.357,267.023 0,260.267 1.357,267.023 0.5239,273.803 1.193,273.803 1.1921,275.515 0.6496,275.515 1.6135,288.633 0.8942,297 "
           style="fill:#000000;stroke:#000000;stroke-width:0.0762"
           id="polygon2371" />
      </g>
    </g>
    <g
       transform="matrix(3.543307,0,0,3.543307,282.85714,-619.99999)"
       style="display:inline"
       id="layer15">
      <g
         style="fill-rule:evenodd"
         id="Livello_x0020_4">
        <circle
           cx="-9.9999997e-05"
           cy="297"
           r="2.6445999"
           style="fill:#999999;stroke:#000000;stroke-width:0.0762"
           id="circle2245"
           sodipodi:cx="-9.9999997e-05"
           sodipodi:cy="297"
           sodipodi:rx="2.6445999"
           sodipodi:ry="2.6445999"
           d="m 2.6444999,297 c 0,1.46057 -1.1840277,2.6446 -2.644599899997,2.6446 C -1.4606722,299.6446 -2.6446999,298.46057 -2.6446999,297 c 0,-1.46057 1.1840277,-2.6446 2.644599900003,-2.6446 C 1.4604722,294.3554 2.6444999,295.53943 2.6444999,297 z" />
      </g>
    </g>
  </g>
</svg>
