<?xml version="1.0" encoding="UTF-8" standalone="no"?>
<!-- Created with Inkscape (http://www.inkscape.org/) -->
<svg
   xmlns:dc="http://purl.org/dc/elements/1.1/"
   xmlns:cc="http://web.resource.org/cc/"
   xmlns:rdf="http://www.w3.org/1999/02/22-rdf-syntax-ns#"
   xmlns:svg="http://www.w3.org/2000/svg"
   xmlns="http://www.w3.org/2000/svg"
   xmlns:sodipodi="http://sodipodi.sourceforge.net/DTD/sodipodi-0.dtd"
   xmlns:inkscape="http://www.inkscape.org/namespaces/inkscape"
   height="300"
   width="150"
   id="svg13736"
   sodipodi:version="0.32"
   inkscape:version="0.45.1"
   version="1.0"
   sodipodi:docbase="Z:\"
   sodipodi:docname="glass.svg"
   inkscape:output_extension="org.inkscape.output.svg.inkscape">
  <defs
     id="defs13738" />
  <sodipodi:namedview
     id="base"
     pagecolor="#ffffff"
     bordercolor="#666666"
     borderopacity="1.0"
     inkscape:pageopacity="0.0"
     inkscape:pageshadow="2"
     inkscape:cx="75"
     inkscape:cy="150"
     inkscape:zoom="2.5033333"
     inkscape:document-units="px"
     inkscape:current-layer="layer1"
     width="150px"
     height="300px"
     inkscape:window-width="1280"
     inkscape:window-height="952"
     inkscape:window-x="-4"
     inkscape:window-y="-4" />
  <metadata
     id="metadata13741">
    <rdf:RDF>
      <cc:Work
         rdf:about="">
        <dc:format>image/svg+xml</dc:format>
        <dc:type
           rdf:resource="http://purl.org/dc/dcmitype/StillImage" />
      </cc:Work>
    </rdf:RDF>
  </metadata>
  <g
     inkscape:groupmode="layer"
     inkscape:label="Warstwa 1"
     id="layer1">
    <g
       id="g15958"
       transform="matrix(0.4176567,0,0,0.4176567,-8.9688977,-104.6209)">
      <path
         style="fill:#ff3300;fill-opacity:1;fill-rule:evenodd;stroke:#000000;stroke-width:1px;stroke-linecap:butt;stroke-linejoin:miter;stroke-opacity:1"
         d="M 91.396219,480.48298 L 143.62263,498.76223 L 227.18489,506.59619 L 255.90941,506.59619 L 304.21884,497.45657 L 283.32828,574.49052 L 250.68677,600.60373 L 216.73961,612.35467 L 157.98489,605.82637 L 114.8981,562.73958 L 87.479239,493.53958 L 91.396219,480.48298 z "
         id="path11381" />
      <path
         style="fill:#ffffff;fill-opacity:0.2625;fill-rule:evenodd;stroke:none;stroke-width:1px;stroke-linecap:butt;stroke-linejoin:miter;stroke-opacity:1"
         d="M 87.479239,485.70562 L 120.12075,573.18486 C 120.12075,573.18486 123.99247,569.77493 117.50942,544.46034 C 105.14976,496.19912 109.67547,507.57543 152.76226,514.43015 C 196.07036,521.32008 186.70651,521.55021 227.18489,519.65279 C 268.96602,517.6943 288.55092,506.59619 288.55092,506.59619 L 157.98489,501.37355 L 87.479239,485.70562 z "
         id="path14428"
         sodipodi:nodetypes="ccszzccc" />
      <path
         style="fill:#000000;fill-opacity:1;fill-rule:nonzero;stroke:none;stroke-width:1px;stroke-linecap:butt;stroke-linejoin:miter;stroke-opacity:1"
         id="path1387"
         d="M 113.42839,353.40657 C 113.66464,366.60857 111.69426,379.46295 108.81392,392.22906 C 102.14514,419.25306 96.417995,446.4737 96.629877,474.64021 C 97.100942,500.244 104.95408,524.84044 114.33657,547.93281 C 124.49273,574.2819 143.85619,591.22084 167.3181,601.48598 C 186.6244,606.69076 210.36869,611.09225 229.84898,603.94398 C 230.52318,603.60433 231.1974,603.26468 231.8716,602.92503 L 219.93574,613.39806 C 219.25506,613.67084 218.57438,613.94361 217.89371,614.21639 C 197.56163,618.90352 175.04153,616.9391 155.25315,610.49884 C 131.75548,599.90498 111.82361,582.40003 101.79426,555.80992 C 92.662881,532.48049 83.902389,507.86333 83.527874,482.08632 C 83.618218,453.81677 89.222612,426.44682 95.685955,399.24066 C 98.445746,386.78943 100.55241,374.21722 99.447351,361.34765 L 113.42839,353.40657 z " />
      <path
         style="fill:#000000;fill-opacity:1;fill-rule:nonzero;stroke:none;stroke-width:1px;stroke-linecap:butt;stroke-linejoin:miter;stroke-opacity:1"
         id="path1389"
         d="M 294.2138,352.93067 C 287.92224,366.13266 288.51641,380.21434 291.39675,392.98045 C 298.06553,420.00446 303.79268,447.22508 303.58079,475.3916 C 303.10973,500.99539 295.25659,525.59184 285.8741,548.6842 C 275.71794,575.03329 256.35448,591.97223 232.89256,602.23737 C 213.58627,607.44215 189.84197,611.84365 170.36169,604.69537 C 169.68749,604.35572 169.01327,604.01607 168.33907,603.67642 L 180.27493,614.14945 C 180.95561,614.42223 181.63629,614.695 182.31696,614.96778 C 202.64905,619.65491 225.16914,617.69049 244.95752,611.25023 C 268.45519,600.65637 288.38706,583.15142 298.41641,556.56131 C 307.54779,533.23188 316.30828,508.61472 316.6828,482.83772 C 316.59245,454.56815 310.98806,427.19821 304.52472,399.99204 C 301.76493,387.54082 295.80488,362.38886 310.94725,351.36023 L 294.2138,352.93067 z "
         sodipodi:nodetypes="ccccccccccccccc" />
      <path
         style="fill:#000000;fill-opacity:1;fill-rule:nonzero;stroke:none;stroke-width:1px;stroke-linecap:butt;stroke-linejoin:miter;stroke-opacity:1"
         id="path1399"
         d="M 290.54126,362.08717 C 277.89409,363.71511 262.14001,368.96679 249.87345,372.83563 C 223.79433,380.31173 198.07875,390.03502 170.98073,390.99473 C 152.09899,390.33532 132.57854,389.1751 114.46271,382.67457 C 108.19143,380.2514 109.0646,374.79621 104.0469,370.06225 C 103.20974,366.95069 101.54231,362.94477 100.69872,361.98932 L 108.38125,359.1921 C 109.19243,360.0821 109.71965,362.51333 110.5388,363.39539 C 115.42016,367.99562 120.95837,370.81112 127.04547,373.18884 C 144.83616,379.89917 164.18269,381.01867 182.81083,381.34254 C 209.61407,380.19301 235.1935,370.78123 260.98818,363.29191 C 273.74302,359.12944 286.6675,353.58391 299.91273,352.12893 L 290.54126,362.08717 z "
         sodipodi:nodetypes="ccccccccccccc" />
      <path
         style="fill:#000000;fill-opacity:1;fill-rule:nonzero;stroke:none;stroke-width:1px;stroke-linecap:butt;stroke-linejoin:miter;stroke-opacity:1"
         id="path1401"
         d="M 100.03576,360.54417 C 111.51178,349.27647 163.51838,339.82432 187.44824,336.1348 C 211.3781,332.44528 249.64127,333.71107 270.78776,339.96892 C 291.41958,346.07446 287.31204,345.42403 304.26228,348.90413 C 306.78161,349.49387 309.20115,350.4783 311.6401,351.36513 L 298.79912,361.00931 C 296.45618,360.1482 294.12625,359.21128 291.70937,358.62261 C 275.07211,355.04003 283.21133,351.62914 258.81579,346.3729 C 234.42026,341.11666 195.77209,340.83636 172.07861,345.94569 C 148.33232,351.06641 114.97324,359.62369 101.92904,365.30272 L 100.03576,360.54417 z "
         sodipodi:nodetypes="czzcccczzcc" />
      <path
         style="fill:#000000;fill-opacity:1;fill-rule:nonzero;stroke:none;stroke-width:1px;stroke-linecap:butt;stroke-linejoin:miter;stroke-opacity:1"
         id="path1423"
         d="M 202.767,777.17646 C 188.96565,779.17552 174.23144,782.49959 159.66752,785.99619 C 129.97537,795.05155 124.46152,792.16649 113.42351,820.92979 C 110.97781,859.59713 157.14653,871.19875 191.874,876.44175 C 211.89496,877.97128 234.75341,875.88701 259.7108,868.25655 C 264.53812,866.78064 279.51713,860.5649 274.50646,862.77801 C 253.13681,872.21655 277.10778,858.72776 285.81211,850.03499 C 309.94672,822.33732 300.32561,803.32495 287.37365,792.64037 C 272.14829,783.78338 255.19083,776.58183 236.59083,771.41647 L 255.07455,761.90985 C 272.55358,768.26097 290.01788,774.72789 304.81935,783.94903 C 318.1346,795.18436 328.11704,814.39499 303.51816,843.1674 C 263.45916,884.20918 207.03326,886.42777 175.73245,884.86651 C 140.61576,878.96741 94.330119,867.3875 95.345948,828.8427 C 107.06032,796.02454 149.8393,783.74539 177.22031,776.34856 C 192.33101,772.74069 207.80376,768.80228 222.08469,766.9114 L 202.767,777.17646 z " />
      <path
         style="fill:#000000;fill-opacity:1;fill-rule:nonzero;stroke:none;stroke-width:1px;stroke-linecap:butt;stroke-linejoin:miter;stroke-opacity:1"
         id="path1425"
         d="M 172.73525,604.63859 C 179.17331,616.28992 181.43809,628.68318 184.30227,642.02751 C 190.85603,679.75196 198.60137,717.41731 203.5449,755.47533 C 204.85234,770.48568 206.50344,786.08815 204.00221,801.03934 C 202.56264,806.29121 202.05673,811.71626 201.82185,817.172 L 182.03513,829.17842 C 175.19441,830.67881 188.82647,813.75033 190.2647,808.3872 C 193.1037,793.53421 191.56743,778.03479 190.71436,763.00204 C 186.59136,724.83627 179.08606,687.04114 171.91228,649.49926 C 169.13271,637.76882 165.53649,620.75861 160.04074,611.85174 L 172.73525,604.63859 z "
         sodipodi:nodetypes="ccccccccccc" />
      <path
         style="fill:#000000;fill-opacity:1;fill-rule:nonzero;stroke:none;stroke-width:1px;stroke-linecap:butt;stroke-linejoin:miter;stroke-opacity:1"
         id="path1427"
         d="M 225.31509,608.65732 C 218.56463,626.50548 214.24357,646.19145 210.33686,665.23873 C 205.29178,695.24941 204.30125,726.27337 206.70889,756.69293 C 209.1871,771.19952 207.10765,785.6734 206.88753,800.24594 C 206.95387,805.8245 205.84254,811.09593 206.33312,816.59203 C 207.72567,818.22178 213.0735,819.28387 216.82635,821.60251 L 203.87682,830.1788 C 200.7069,831.77128 182.70468,831.62389 181.49725,828.80801 C 180.50857,822.91496 193.0331,813.88228 193.40383,807.87634 C 193.67336,793.27982 195.62417,778.77511 193.7394,764.2168 C 191.41527,733.46505 192.80409,702.22191 197.9302,671.90429 C 201.51565,653.84757 205.2048,632.84138 211.33406,616.5984 L 225.31509,608.65732 z "
         sodipodi:nodetypes="ccccccccccccc" />
      <path
         style="fill:#ff3300;fill-opacity:0.70833333;fill-rule:evenodd;stroke:#000000;stroke-width:1px;stroke-linecap:butt;stroke-linejoin:miter;stroke-opacity:1"
         d="M 99.230181,476.566 L 165.81886,466.12072 L 233.71319,467.42638 L 287.24526,476.566 L 306.83016,487.01128 L 292.4679,498.76223 L 237.63017,509.20751 L 151.45659,500.06789 L 95.3132,487.01128 L 99.230181,476.566 z "
         id="path12910" />
      <path
         style="fill:#000000;fill-opacity:1;fill-rule:nonzero;stroke:none;stroke-width:1px;stroke-linecap:butt;stroke-linejoin:miter;stroke-opacity:1"
         id="path1433"
         d="M 94.674757,477.81243 C 101.24588,481.89636 108.85274,483.90657 116.0807,486.24363 C 147.88269,497.7273 180.35695,502.36264 213.62433,502.54672 C 234.65038,502.58869 265.31723,506.55307 276.70014,502.14024 L 310.26524,489.128 L 307.8851,499.38342 C 294.97732,503.70742 306.9828,503.96572 273.20109,509.96025 C 251.61451,512.48781 220.11913,511.86102 199.08204,510.32387 C 165.66798,506.58155 136.33699,505.90576 104.21868,495.34168 C 96.77603,493.38092 92.518741,491.63504 85.558381,488.70744 L 94.674757,477.81243 z "
         sodipodi:nodetypes="ccczccccccc" />
      <path
         style="fill:#000000;fill-opacity:0.44583333;fill-rule:nonzero;stroke:none;stroke-width:1px;stroke-linecap:butt;stroke-linejoin:miter;stroke-opacity:1"
         id="path1439"
         d="M 184.93452,590.32539 C 200.02594,590.79634 215.85989,590.77565 231.70706,590.74284 C 274.09336,583.53621 234.83054,601.03386 222.45454,597.1821 C 216.21045,593.0969 198.96635,594.4117 199.94951,586.52523 C 207.83352,583.09582 315.54091,551.88228 245.54857,575.68634 C 242.48408,574.38466 234.75775,574.35793 243.99428,567.76611 C 247.41285,565.0963 247.91517,563.14299 251.64569,560.00663 L 277.49138,551.85127 C 273.56022,555.22413 273.8276,556.90976 269.03872,560.4239 C 267.46925,562.77076 269.68717,565.56159 271.57155,567.47864 C 258.6671,572.14225 164.5608,600.26781 226.32343,577.86261 C 226.31945,585.04882 242.87037,583.81076 249.36564,587.48654 C 266.1877,592.21459 205.47124,605.94493 206.0034,600.173 C 189.91164,600.13931 173.77563,600.13251 156.95519,600.59045 L 184.93452,590.32539 z " />
      <path
         sodipodi:nodetypes="ccczccccccc"
         d="M 97.22202,483.1367 C 104.15249,479.82451 111.91201,478.69265 119.3264,477.19256 C 152.06504,469.39805 184.8086,468.4906 217.90955,472.10015 C 238.8232,474.45548 269.70435,474.00921 280.59659,479.69529 L 312.71486,496.46203 L 311.34167,485.99206 C 298.9244,480.22047 310.88841,481.33228 277.8747,471.51969 C 256.65262,466.54518 225.27096,463.57789 204.20143,462.7082 C 170.60982,462.62045 141.3758,459.94864 108.41171,466.79258 C 100.82028,467.89399 96.417393,469.14485 89.211894,471.26272 L 97.22202,483.1367 z "
         id="path1341"
         style="fill:#000000;fill-opacity:1;fill-rule:nonzero;stroke:none;stroke-width:1px;stroke-linecap:butt;stroke-linejoin:miter;stroke-opacity:1" />
      <path
         style="fill:#000000;fill-opacity:0.34166667;fill-rule:nonzero;stroke:none;stroke-width:1px;stroke-linecap:butt;stroke-linejoin:miter;stroke-opacity:1"
         id="path2104"
         d="M 282.39626,789.06812 C 266.13933,792.59993 249.97824,797.35752 233.96339,802.14072 C 218.40979,807.22441 202.89099,812.47194 186.94332,815.91423 L 204.19737,828.83076 C 219.55441,824.08505 234.88367,819.23678 250.16616,814.21154 C 266.46715,809.49053 283.16921,804.26266 300.00737,802.94655 L 282.39626,789.06812 z " />
    </g>
  </g>
</svg>
